<?xml version="1.0" encoding="UTF-8" standalone="no"?>
<!-- Created with Inkscape (http://www.inkscape.org/) -->

<svg
   width="71.892998mm"
   height="83.486mm"
   viewBox="0 0 71.892999 83.486"
   version="1.1"
   id="svg5"
   sodipodi:docname="flag_shadow.svg"
   inkscape:version="1.1.2 (0a00cf5339, 2022-02-04)"
   xmlns:inkscape="http://www.inkscape.org/namespaces/inkscape"
   xmlns:sodipodi="http://sodipodi.sourceforge.net/DTD/sodipodi-0.dtd"
   xmlns="http://www.w3.org/2000/svg"
   xmlns:svg="http://www.w3.org/2000/svg">
  <sodipodi:namedview
     id="namedview7"
     pagecolor="#ffffff"
     bordercolor="#666666"
     borderopacity="1.0"
     inkscape:pageshadow="2"
     inkscape:pageopacity="0.0"
     inkscape:pagecheckerboard="0"
     inkscape:document-units="mm"
     showgrid="false"
     inkscape:zoom="1.4520903"
     inkscape:cx="9.9856046"
     inkscape:cy="196.61311"
     inkscape:window-width="1920"
     inkscape:window-height="990"
     inkscape:window-x="0"
     inkscape:window-y="28"
     inkscape:window-maximized="1"
     inkscape:current-layer="layer1"
     inkscape:snap-global="false"
     width="71.893mm" />
  <defs
     id="defs2">
    <filter
       inkscape:collect="always"
       style="color-interpolation-filters:sRGB"
       id="filter1038"
       x="-0.048576361"
       y="-0.041273811"
       width="1.0971527"
       height="1.0825476">
      <feGaussianBlur
         inkscape:collect="always"
         stdDeviation="1.3262708"
         id="feGaussianBlur1040" />
    </filter>
  </defs>
  <g
     inkscape:label="Vrstva 1"
     inkscape:groupmode="layer"
     id="layer1">
    <path
       style="fill:#008000;stroke-width:0.362068;filter:url(#filter1038)"
       d="M 66.042389,79.307694 C 65.501902,76.588662 65.009139,73.103319 63.828446,63.648292 61.982095,48.862679 58.244797,19.786988 58.080882,18.932977 c -0.07646,-0.398268 -0.06497,2.697407 0.02555,6.879278 0.09925,4.585531 0.58501,11.721498 1.223892,17.978729 0.582649,5.70642 1.059349,10.542047 1.059349,10.745825 0,0.382053 -1.535763,0.75532 -6.919493,1.681821 -4.202869,0.723277 -6.922342,1.82291 -8.950067,3.619002 -2.64412,2.342071 -3.815658,3.042235 -5.530516,3.305253 -1.970138,0.302163 -3.137961,0.878654 -4.300518,2.122897 -1.407595,1.506512 -2.896013,2.248027 -5.355948,2.66828 -1.451911,0.248044 -3.020435,0.84774 -4.344804,1.66115 -2.67454,1.642666 -4.448874,2.24657 -8.725725,2.969868 -3.617905,0.611858 -6.3756094,1.519844 -7.9810295,2.627801 C 7.767462,75.547674 6.409973,76.365856 5.2649348,77.01105 L 3.18305,78.184127 v -2.341701 -2.341701 l 3.5301579,-2.003021 c 2.7895206,-1.58279 4.1758391,-2.126428 6.6077341,-2.591192 7.139242,-1.364396 8.212683,-1.675601 10.051778,-2.914117 1.015741,-0.684041 2.606003,-1.413856 3.53392,-1.621801 2.569167,-0.575762 3.825726,-1.199054 5.716621,-2.835613 1.115562,-0.965512 2.461587,-1.706873 3.795029,-2.090198 2.760003,-0.793427 3.776934,-1.328906 6.787671,-3.574183 3.628373,-2.705874 4.226181,-2.948899 8.863342,-3.603299 6.09621,-0.860303 5.785919,-0.741515 5.785919,-2.214795 0,-0.826054 -0.200864,-1.348786 -0.573176,-1.491651 -0.845493,-0.324445 -6.565959,0.964239 -7.496257,1.688727 -1.198839,0.933624 -2.746856,1.668201 -5.344637,2.536191 -1.284722,0.429254 -4.046624,1.889314 -6.137561,3.244576 -4.393391,2.847601 -17.70867,9.488116 -20.637834,10.292371 -1.095261,0.300715 -2.806024,0.645963 -3.80171,0.767224 -2.946488,0.358827 -5.3082232,0.952529 -7.3481207,1.847194 -2.3137538,1.014786 -2.6889605,0.618211 -1.5420646,-1.629878 1.0950455,-2.146472 4.2341554,-3.582742 10.3384533,-4.730285 3.435115,-0.645758 6.208614,-1.756578 9.102174,-3.645512 1.474963,-0.962864 4.266557,-2.347931 6.203534,-3.07792 5.380435,-2.027736 7.65135,-3.207772 11.539416,-5.996194 4.930265,-3.53586 6.539965,-4.282989 10.935559,-5.075666 2.08795,-0.376521 3.866184,-0.754498 3.951637,-0.839951 0.08549,-0.08549 0.05039,-0.633278 -0.0779,-1.217394 -0.230586,-1.049826 -0.252827,-1.058447 -1.935304,-0.750742 -6.299707,1.152161 -10.06371,3.059518 -19.35553,9.808178 -2.12379,1.542506 -3.315762,2.141566 -4.887908,2.456568 -2.406935,0.482253 -4.268322,1.335022 -6.72058,3.078936 -1.779989,1.265837 -3.418672,1.848979 -8.187845,2.913758 -1.480248,0.330479 -4.000717,1.153095 -5.601056,1.828032 -1.6003298,0.674926 -2.9553762,1.227155 -3.0112086,1.227155 -0.055833,0 -0.1015043,-0.255024 -0.1015043,-0.566721 0,-0.942573 3.8418089,-4.477765 5.8803719,-5.411051 1.050955,-0.481144 3.113771,-1.127857 4.584013,-1.437132 3.301619,-0.694509 5.180906,-1.509191 7.414801,-3.214371 0.950353,-0.725422 1.968762,-1.31895 2.263135,-1.31895 0.986511,0 5.411256,-2.069312 8.307854,-3.885326 1.57776,-0.989169 4.784023,-3.03194 7.125047,-4.539479 2.341013,-1.507549 5.029368,-3.030873 5.974107,-3.385163 0.944739,-0.3543 1.817399,-0.788654 1.939235,-0.965235 0.121836,-0.176591 0.334159,-0.275509 0.471842,-0.21983 0.137682,0.05563 1.390711,-0.211147 2.784512,-0.592964 2.412138,-0.660773 2.523136,-0.73823 2.304743,-1.608355 -0.126188,-0.50279 -0.293788,-0.978516 -0.372457,-1.057174 -0.20464,-0.20464 -4.585489,1.31272 -7.278592,2.521032 -1.258776,0.564781 -5.151276,2.843937 -8.649982,5.064807 -3.498706,2.220861 -6.424359,3.974853 -6.501447,3.897765 -0.07708,-0.07708 0.09155,-5.674808 0.374858,-12.439366 0.58776,-14.036244 0.298457,-13.034584 4.076243,-14.113475 2.499018,-0.713681 4.025441,-1.674852 7.134746,-4.492627 1.695799,-1.5368 3.077766,-2.413997 4.900235,-3.110404 2.166286,-0.827779 6.869958,-3.7945868 6.869958,-4.3331691 0,-0.095952 -0.266046,-0.8393625 -0.591208,-1.6520259 -0.77561,-1.9384344 -0.277223,-3.2439591 1.238373,-3.2439591 1.925153,0 2.143957,0.4997818 2.377745,5.4310101 0.118008,2.48921 0.626925,7.70298 1.130916,11.58615 0.503991,3.883168 2.059121,16.02148 3.455857,26.974018 2.171093,17.024712 2.914897,22.60322 4.236198,31.771407 0.194685,1.350859 0.189153,1.357746 -1.090468,1.357746 -1.113705,0 -1.31267,-0.133495 -1.484057,-0.995687 z M 37.073716,41.937182 c -0.02053,-0.305817 -0.194818,-0.668913 -0.387276,-0.806872 -0.467023,-0.33478 -1.280709,0.369182 -1.067858,0.923863 0.245991,0.641058 1.499297,0.540303 1.455134,-0.116991 z m 2.896536,-1.086209 c -0.02053,-0.305817 -0.185509,-0.663155 -0.366585,-0.794074 -0.552783,-0.399695 -1.229937,0.06599 -1.057082,0.726952 0.202024,0.77253 1.475097,0.832561 1.423667,0.06712 z m 2.678153,-1.529287 c 0,-0.190138 -0.208294,-0.553994 -0.462886,-0.808586 -0.375802,-0.375802 -0.545413,-0.374539 -0.901561,0.0072 -0.283165,0.303128 -0.309511,0.549437 -0.07431,0.694797 0.200402,0.123858 0.280015,0.361679 0.17693,0.528479 -0.103095,0.1668 0.138647,0.218003 0.537193,0.113789 0.398545,-0.104234 0.724631,-0.345073 0.724631,-0.535211 z m -5.268329,-0.91981 c 0.09719,-0.253196 -0.06261,-0.460371 -0.35508,-0.460371 -0.292453,0 -0.531733,-0.194069 -0.531733,-0.431265 0,-0.237196 -0.233008,-0.115001 -0.517795,0.271547 -0.284797,0.386558 -0.375412,0.754077 -0.201376,0.816735 0.174025,0.06261 0.220487,0.363907 0.103238,0.669466 -0.184329,0.480324 -0.108965,0.490474 0.556447,0.07492 0.423301,-0.264353 0.849136,-0.687818 0.946299,-0.941024 z m 2.733853,-0.890528 c 0,-0.190128 -0.208295,-0.553994 -0.462876,-0.808586 -0.375802,-0.375802 -0.545414,-0.374539 -0.901562,0.0072 -0.283175,0.303127 -0.309511,0.549437 -0.07431,0.694796 0.200391,0.123858 0.280014,0.361669 0.176919,0.528479 -0.103085,0.1668 0.138647,0.218004 0.537203,0.11379 0.398545,-0.104224 0.724632,-0.345064 0.724632,-0.535202 z m 5.287336,0.08098 c -0.02053,-0.305816 -0.194818,-0.668902 -0.387276,-0.806862 -0.467022,-0.334779 -1.280709,0.369182 -1.067858,0.923854 0.245992,0.641067 1.499298,0.540302 1.455134,-0.116992 z M 42.866789,36.14406 c -0.02053,-0.305817 -0.1855,-0.663155 -0.366586,-0.794084 -0.552783,-0.399685 -1.229936,0.06599 -1.057081,0.726951 0.202023,0.772541 1.475096,0.832572 1.423667,0.06712 z m 5.049094,0.06497 c -0.105733,-0.105733 -0.0072,-0.414628 0.21789,-0.686432 0.324137,-0.390571 0.285516,-0.446373 -0.184185,-0.266128 -0.338044,0.129718 -0.594309,0.04906 -0.594309,-0.187018 0,-0.291756 -0.145092,-0.279543 -0.488329,0.04105 -0.711104,0.664273 -0.335282,1.703004 0.533919,1.475702 0.389001,-0.10171 0.620757,-0.271465 0.515014,-0.377208 z M 37.448717,35.497561 c -0.074,-0.932577 -0.976216,-1.546684 -1.526392,-1.038967 -0.538496,0.49693 -0.323798,0.900463 0.698501,1.312946 0.427683,0.172557 0.800232,0.324075 0.827891,0.336688 0.02771,0.01262 0.02771,-0.262176 0,-0.610667 z m 7.952548,-1.163779 c -0.04916,-0.732196 -0.917613,-1.268876 -1.351351,-0.835137 -0.186474,0.186474 -0.248208,0.575772 -0.13718,0.865106 0.2701,0.703869 1.536122,0.678375 1.488531,-0.02997 z M 40.21884,33.95878 c 0.194973,-0.745579 -0.258779,-0.92024 -1.326401,-0.510559 -0.440328,0.168975 -0.465421,0.317352 -0.120132,0.710366 0.62988,0.716944 1.228417,0.634263 1.446533,-0.199807 z m 10.525985,0.181035 c 0.126943,-0.330828 7.18e-4,-0.543104 -0.323336,-0.543104 -0.292453,0 -0.543187,-0.203666 -0.557186,-0.452582 -0.01396,-0.248927 -0.156536,-0.126721 -0.316757,0.271547 -0.16022,0.398278 -0.22062,0.846334 -0.134223,0.995686 0.270767,0.468049 1.113652,0.296148 1.331502,-0.271547 z m 2.403533,-1.33533 c 0,-0.450088 -1.071902,-1.523961 -1.132414,-1.134488 -0.249368,1.604999 -0.188117,1.825517 0.459982,1.656029 0.369838,-0.09668 0.672432,-0.331403 0.672432,-0.521541 z m -5.574685,-0.281041 c -0.02053,-0.305816 -0.194829,-0.668912 -0.387287,-0.806872 -0.467012,-0.334779 -1.280709,0.369182 -1.067858,0.923853 0.246002,0.641068 1.499298,0.540313 1.455145,-0.116981 z m -4.925268,-0.149639 c 0,-0.817505 -0.840966,-1.308728 -1.330157,-0.776975 -0.31454,0.341902 -0.319241,0.567726 -0.01806,0.868862 0.563364,0.563354 1.348263,0.509872 1.348263,-0.09186 z m -5.30773,-0.31881 c -0.10212,-0.165188 -0.01632,-0.50433 0.19059,-0.753646 0.286871,-0.345669 0.14382,-0.438963 -0.602447,-0.392901 -1.52396,0.09411 -1.552502,0.114395 -1.124121,0.800344 0.222078,0.355594 0.700287,0.646549 1.062685,0.646549 0.362408,0 0.575383,-0.135158 0.473293,-0.300346 z M 50.08829,31.140091 c -0.105743,-0.105743 -0.0072,-0.414638 0.21788,-0.686442 0.324147,-0.39056 0.285526,-0.446372 -0.184175,-0.266128 -0.338054,0.129718 -0.594308,0.04906 -0.594308,-0.187018 0,-0.291756 -0.145093,-0.279542 -0.488329,0.04105 -0.711115,0.664273 -0.335293,1.703014 0.533918,1.475713 0.388991,-0.10171 0.620747,-0.271476 0.515014,-0.377208 z m 5.812918,-0.06486 c -0.02053,-0.305826 -0.194819,-0.668912 -0.387277,-0.806872 -0.467012,-0.334779 -1.280709,0.369182 -1.067857,0.923853 0.246001,0.641068 1.499297,0.540303 1.455134,-0.116981 z m -10.588156,-0.55407 c 0.244811,-0.637958 -0.753143,-1.00366 -1.519044,-0.556662 -0.353684,0.206426 -0.415593,0.356189 -0.149916,0.362645 0.248916,0.0062 0.452582,0.250291 0.452582,0.542755 0,0.632477 0.943671,0.361926 1.216378,-0.348738 z m -4.98073,-0.170073 c -0.05029,-0.748494 -0.522188,-1.046582 -1.324636,-0.836728 -0.522311,0.136584 -0.582783,0.303733 -0.28335,0.783205 0.476259,0.762606 1.658266,0.801955 1.607986,0.05357 z m 12.67235,-1.086199 c -0.02053,-0.305816 -0.194819,-0.668912 -0.387277,-0.806871 -0.467022,-0.33478 -1.280709,0.369182 -1.067858,0.923853 0.246002,0.641068 1.499298,0.540313 1.455135,-0.116982 z m -5.04595,-0.50786 c 0,-0.50671 -0.94165,-1.491559 -1.011718,-1.058138 -0.246617,1.525469 -0.177832,1.811241 0.399644,1.660226 0.336637,-0.08806 0.612074,-0.35897 0.612074,-0.602088 z M 43.11551,28.527326 c 0.104224,-0.398556 0.05306,-0.640288 -0.11379,-0.537203 -0.166799,0.103095 -0.404621,0.0235 -0.528468,-0.17693 -0.145565,-0.235522 -0.390068,-0.210357 -0.691441,0.07113 -0.339685,0.317322 -0.359062,0.558284 -0.07133,0.887798 0.5901,0.675871 1.191716,0.571042 1.40507,-0.244831 z m 12.336842,-1.383804 c -0.271517,-0.06435 -0.50511,-0.308783 -0.519109,-0.543105 -0.01396,-0.234322 -0.160293,-0.10017 -0.325101,0.298098 -0.210583,0.508877 -0.12471,0.861545 0.288871,1.186369 0.49187,0.386312 0.62635,0.356579 0.818767,-0.181035 0.141829,-0.396277 0.04064,-0.688217 -0.263428,-0.760327 z m -17.645876,0.362757 c -0.06322,-0.835743 -0.960175,-1.360034 -1.322829,-0.773229 -0.406469,0.657674 -0.08416,1.271544 0.698655,1.330507 0.421617,0.03182 0.653096,-0.174908 0.624174,-0.557278 z m 12.919936,-0.455846 c 0.104497,-0.399623 -0.07934,-0.696572 -0.4993,-0.806389 -0.675368,-0.176612 -1.071686,0.334553 -0.811542,1.046715 0.226922,0.621239 1.128771,0.455897 1.310842,-0.240326 z m -4.963077,-0.320021 c -0.04916,-0.732195 -0.917613,-1.268875 -1.351362,-0.835126 -0.186464,0.186474 -0.248198,0.575772 -0.137169,0.865106 0.2701,0.703859 1.536122,0.678375 1.488531,-0.02997 z m -5.116278,-0.391145 c -0.100581,-0.162735 0.01262,-0.416712 0.251585,-0.564391 0.302881,-0.187182 0.226255,-0.341543 -0.252991,-0.509656 -0.840105,-0.294691 -1.564706,0.310322 -1.350879,1.12796 0.101196,0.386969 0.403718,0.53785 0.846313,0.42211 0.378861,-0.09904 0.606553,-0.313278 0.505972,-0.476023 z m 12.501301,-0.816602 c 0,-0.258882 -0.183108,-0.653794 -0.406889,-0.877576 -0.593765,-0.593764 -1.446154,0.235072 -0.893146,0.868463 0.521203,0.596956 1.300035,0.602416 1.300035,0.0092 z m -4.850556,-0.60259 c -0.02053,-0.305817 -0.194819,-0.668902 -0.387277,-0.806872 -0.467022,-0.33478 -1.280709,0.369192 -1.067858,0.923863 0.246002,0.641068 1.499298,0.540303 1.455135,-0.116991 z m -4.706874,-0.36206 c -0.05327,-0.792749 -0.961879,-1.291588 -1.314209,-0.721511 -0.156998,0.254037 -0.215027,0.645399 -0.128948,0.869704 0.23738,0.618611 1.486057,0.490381 1.443157,-0.148193 z m 12.31028,-0.362069 c -0.02053,-0.305816 -0.1855,-0.663155 -0.366586,-0.794084 -0.552782,-0.399695 -1.229926,0.06599 -1.057081,0.726951 0.202023,0.772541 1.475096,0.832572 1.423667,0.06712 z M 37.810787,23.911467 c -0.074,-0.932587 -0.976217,-1.54669 -1.526403,-1.038977 -0.538486,0.49693 -0.323797,0.900473 0.698512,1.312946 0.427683,0.172557 0.800231,0.324075 0.827891,0.336699 0.02761,0.01262 0.02761,-0.262187 0,-0.610668 z m 13.021487,-0.80173 c -0.02053,-0.305816 -0.194824,-0.668899 -0.387282,-0.806858 -0.467012,-0.33478 -1.280709,0.369182 -1.067858,0.92385 0.246002,0.641068 1.499293,0.540302 1.45514,-0.116992 z m -4.70688,-0.362059 c -0.02053,-0.305814 -0.194818,-0.668909 -0.387276,-0.806869 -0.467012,-0.334779 -1.280709,0.369182 -1.067858,0.92385 0.246002,0.641068 1.499297,0.540313 1.455134,-0.116981 z m -5.431003,-0.362067 c -0.02053,-0.305816 -0.194828,-0.668912 -0.387276,-0.806872 -0.467022,-0.334779 -1.280709,0.369182 -1.067868,0.923864 0.246002,0.641054 1.499308,0.540299 1.455144,-0.116992 z m 12.712562,-0.852277 c -0.0427,-0.219778 -0.234445,-0.583644 -0.426185,-0.808606 -0.473221,-0.555195 -1.224035,0.15706 -1.013647,0.961581 0.175554,0.671314 1.571069,0.52305 1.439832,-0.152975 z m -9.871735,-0.87269 c 0.09719,-0.253196 -0.06261,-0.460372 -0.35507,-0.460372 -0.292463,0 -0.531743,-0.190077 -0.531743,-0.422408 0,-0.882348 -0.481124,0.104697 -0.540908,1.109702 -0.05552,0.932793 0.01283,1.006771 0.594175,0.643685 0.36129,-0.225629 0.736383,-0.617401 0.833546,-0.870607 z m 5.124653,0.276699 c -0.05327,-0.792749 -0.961879,-1.291578 -1.314208,-0.721501 -0.156998,0.254027 -0.215027,0.645388 -0.128949,0.869703 0.237381,0.618612 1.486058,0.490382 1.443157,-0.148202 z m 7.221488,-0.297154 c -0.105733,-0.105743 0.01026,-0.442185 0.257188,-0.747652 0.365826,-0.452069 0.357708,-0.500163 -0.04362,-0.258482 -0.303322,0.182666 -0.614681,0.104922 -0.809099,-0.202044 -0.228872,-0.361331 -0.317578,-0.374129 -0.321591,-0.04639 -0.0031,0.248926 -0.290678,0.465452 -0.639159,0.481175 -0.378522,0.01704 -0.451412,0.10212 -0.181035,0.211199 0.248917,0.100478 0.452582,0.398186 0.452582,0.661656 0,0.303887 0.270018,0.408419 0.738498,0.285916 0.406171,-0.106216 0.651978,-0.279635 0.546236,-0.385378 z m -4.724373,-1.401026 c 0,-0.429038 -0.110947,-0.711515 -0.246536,-0.627705 -0.135584,0.08385 -0.347861,-0.0116 -0.471719,-0.21201 -0.144774,-0.23425 -0.399335,-0.204034 -0.712849,0.08457 -0.298314,0.274667 -0.362388,0.602488 -0.165024,0.844364 0.177432,0.217459 0.256131,0.46185 0.174887,0.543094 -0.08129,0.08129 0.205297,0.14772 0.636757,0.14772 0.561852,0 0.784484,-0.221369 0.784484,-0.780074 z m -5.124772,-0.20268 c 0.103115,-0.394348 -0.02956,-0.646549 -0.340137,-0.646549 -0.280056,0 -0.509205,-0.194069 -0.509205,-0.431265 0,-0.237195 -0.226265,-0.121825 -0.502821,0.256389 -0.276555,0.378203 -0.435452,0.863217 -0.353099,1.077813 0.244103,0.636121 1.522113,0.443971 1.705262,-0.256388 z m 7.334527,-0.995676 c -0.04896,-0.729199 -0.738785,-1.154594 -1.437461,-0.886485 -0.425435,0.163259 -0.466458,0.359083 -0.173511,0.828158 0.478568,0.766322 1.661416,0.80914 1.610972,0.0583 z m -5.068939,-0.724139 c -0.04896,-0.729199 -0.738775,-1.154594 -1.437461,-0.886475 -0.425436,0.163249 -0.466458,0.359073 -0.173512,0.828158 0.478569,0.766322 1.661417,0.80914 1.610973,0.0583 z M 55.682825,16.782 c 0,-0.680243 -0.517036,-0.983278 -1.218431,-0.714123 -0.442873,0.169941 -0.468583,0.31841 -0.123191,0.711536 0.576717,0.656432 1.341622,0.65791 1.341622,0.0031 z m -4.95514,-1.322573 c 0.09945,-0.380134 0.04424,-0.606809 -0.122544,-0.503725 -0.16681,0.103096 -0.404621,0.0235 -0.528479,-0.176929 -0.339419,-0.549191 -1.193676,0.397088 -1.006073,1.114453 0.208058,0.795624 1.418453,0.478764 1.657096,-0.433799 z m 2.257137,-0.97438 c -0.105743,-0.105743 0.01026,-0.442186 0.257189,-0.747653 0.365826,-0.452069 0.357708,-0.500163 -0.04362,-0.258482 -0.303333,0.182667 -0.614681,0.104912 -0.809109,-0.202044 -0.228862,-0.36133 -0.317568,-0.374129 -0.321591,-0.04639 -0.0031,0.248927 -0.290668,0.465452 -0.639159,0.481166 -0.378522,0.01704 -0.451402,0.10212 -0.181035,0.211209 0.248927,0.100478 0.452592,0.398186 0.452592,0.661656 0,0.303876 0.270018,0.408419 0.738487,0.285905 0.406182,-0.106215 0.651988,-0.279634 0.546246,-0.385367 z m 2.542832,-1.545185 c 0,-0.323428 -0.209485,-0.783728 -0.465514,-1.022895 -0.284592,-0.26584 -0.465514,-0.288584 -0.465514,-0.0585 0,0.206981 -0.285135,0.389206 -0.633616,0.404919 -0.378522,0.01704 -0.451412,0.102121 -0.181035,0.211209 0.248916,0.100478 0.452582,0.378522 0.452582,0.617966 0,0.239443 0.290944,0.435339 0.646548,0.435339 0.355604,0 0.646549,-0.264609 0.646549,-0.588027 z M 8.4670255,58.67373 c -0.7033457,-0.703335 0.014574,-1.919693 2.4164895,-4.094133 4.087965,-3.700852 4.913168,-4.202955 8.59258,-5.228353 1.891798,-0.527207 4.498682,-1.547289 5.793083,-2.266851 7.721479,-4.292389 7.606089,-4.251141 7.598463,-2.716127 -0.0092,1.894794 -0.420622,2.641862 -1.760858,3.198986 -0.721471,0.299915 -2.859609,1.421891 -4.751407,2.49328 -3.095152,1.752894 -5.409799,2.63164 -10.011258,3.800745 -0.861678,0.218927 -2.81637,1.372638 -4.58238,2.704623 -1.693839,1.277568 -3.1764584,2.226084 -3.2947125,2.10783 z M 7.8356257,54.415569 c -0.029866,-0.497843 -0.070612,-1.04961 -0.090523,-1.22616 -0.019911,-0.176549 1.0196511,-1.113396 2.3101413,-2.081885 1.29049,-0.968488 3.670227,-3.006661 5.288301,-4.529277 3.080764,-2.898979 3.316296,-3.006754 8.206843,-3.755135 0.7694,-0.117741 2.339935,-0.903799 3.620675,-1.812165 2.179151,-1.545564 5.427719,-3.431502 5.910814,-3.431502 0.218957,0 -0.03418,1.984281 -0.422613,3.313125 -0.09606,0.328693 -0.57253,0.697475 -1.058775,0.819516 -0.486235,0.122031 -1.766801,0.94088 -2.845692,1.819647 -2.532239,2.062538 -4.214337,2.902992 -7.655989,3.825285 -4.075433,1.092141 -4.864847,1.494946 -7.44164,3.797133 -2.237497,1.99906 -5.1303796,4.166592 -5.5609159,4.166592 -0.1134713,0 -0.2307606,-0.407331 -0.2606264,-0.905174 z M 7.1658103,50.840155 c 0,-0.273816 -0.094423,-0.970141 -0.2099158,-1.547392 -0.1980308,-0.990175 -0.106133,-1.086876 1.62451,-1.709203 2.4332495,-0.874979 3.2684995,-1.579946 5.7005285,-4.811365 2.235927,-2.970842 3.448457,-3.73468 7.084384,-4.462822 1.758754,-0.352206 2.793841,-0.953976 6.879281,-3.999371 2.644962,-1.971626 4.93122,-3.59042 5.080572,-3.597306 0.149352,-0.0072 0.271547,0.827244 0.271547,1.853638 0,1.825877 -0.04824,1.909923 -2.231719,3.892223 -3.251042,2.951424 -4.250731,3.543536 -7.64198,4.52628 -4.708742,1.36454 -5.502549,1.798874 -8.507507,4.654901 -2.734324,2.598818 -6.9050422,5.69826 -7.6677715,5.69826 -0.2100595,0 -0.3819292,-0.224028 -0.3819292,-0.497843 z M 6.6801498,47.074499 C 6.5949642,46.930218 6.4126259,46.131536 6.2750255,45.299663 L 6.0248364,43.787167 7.6659011,43.541073 c 2.1118126,-0.316686 3.6812799,-1.815244 5.8995649,-5.633037 0.917675,-1.579362 2.297579,-3.439907 3.066467,-4.13455 1.271123,-1.148374 1.59608,-1.262984 3.580966,-1.262984 3.282294,0 4.313317,-0.595581 6.53194,-3.773209 1.854336,-2.655882 4.020267,-4.47832 6.043497,-5.085067 0.804522,-0.241271 0.816243,-0.204097 0.586683,1.862095 -0.189543,1.706001 -0.423988,2.262027 -1.228695,2.914097 -0.546963,0.443212 -2.032949,1.88409 -3.302194,3.201963 -2.779596,2.886067 -4.66892,4.057975 -7.043915,4.369169 -0.979563,0.128353 -2.188346,0.441806 -2.68619,0.696562 -1.155671,0.591373 -3.465381,3.022313 -5.376258,5.658469 -0.821138,1.132794 -2.02476,2.452401 -2.674715,2.932447 -1.3998872,1.033948 -4.1625076,2.160625 -4.3829022,1.787471 z"
       id="path854-3" />
    <path
       style="fill:#ffffff;stroke-width:0.352778"
       d="m 65.270219,78.343905 c -0.52662,-2.64927 -1.00674,-6.04519 -2.15714,-15.25763 -1.79898,-14.40626 -5.44039,-42.735957 -5.6001,-43.568057 -0.0745,-0.38805 -0.0633,2.6282 0.0249,6.702777 0.0967,4.46788 0.57,11.42076 1.19249,17.51745 0.5677,5.56001 1.03217,10.27157 1.03217,10.47012 0,0.37225 -1.49636,0.73594 -6.74196,1.63867 -4.095036,0.70472 -6.744736,1.77614 -8.720436,3.52615 -2.57628,2.28198 -3.71776,2.96418 -5.38862,3.22045 -1.91959,0.29441 -3.05745,0.85611 -4.19018,2.06843 -1.37148,1.46786 -2.82171,2.19035 -5.21853,2.59982 -1.41466,0.24168 -2.94294,0.82599 -4.23333,1.61853 -2.60592,1.60052 -4.33473,2.18893 -8.50185,2.89367 -3.52508,0.59616 -6.21203,1.48085 -7.7762605,2.56038 -0.50092,0.34569 -1.82358,1.14288 -2.93924,1.77152 l -2.02847,1.14298 v -2.28162 -2.28162 l 3.43958,-1.95163 c 2.7179505,-1.54218 4.0687005,-2.07187 6.4382005,-2.52471 6.95607,-1.32939 8.00197,-1.63261 9.79388,-2.83935 0.98968,-0.66649 2.53914,-1.37758 3.44325,-1.58019 2.50325,-0.56099 3.72757,-1.16829 5.56995,-2.76286 1.08694,-0.94074 2.39843,-1.66308 3.69766,-2.03657 2.68919,-0.77307 3.68003,-1.29481 6.61352,-3.48248 3.53528,-2.63645 4.11775,-2.87324 8.635936,-3.51085 5.9398,-0.83823 5.63747,-0.72249 5.63747,-2.15797 0,-0.80486 -0.19571,-1.31418 -0.55847,-1.45338 -0.8238,-0.31612 -6.397496,0.9395 -7.303926,1.6454 -1.16808,0.90967 -2.67638,1.6254 -5.20751,2.47112 -1.25176,0.41824 -3.9428,1.84084 -5.98009,3.16133 -4.28067,2.77454 -17.25432,9.24468 -20.10833,10.0283 -1.06716,0.293 -2.73403,0.62939 -3.70417,0.74754 -2.87089,0.34962 -5.1720305,0.92809 -7.1595905,1.7998 -2.25439,0.98875 -2.61997,0.60235 -1.5025,-1.58806 1.06695,-2.0914 4.12552,-3.49082 10.0732005,-4.60892 3.34698,-0.62919 6.04932,-1.71151 8.86864,-3.55198 1.43712,-0.93816 4.15709,-2.28769 6.04437,-2.99895 5.24239,-1.97571 7.45504,-3.12547 11.24335,-5.84235 4.80377,-3.44514 6.37217,-4.1731 10.654986,-4.94544 2.03438,-0.36686 3.76699,-0.73514 3.85025,-0.8184 0.0833,-0.0833 0.0491,-0.61703 -0.0759,-1.18616 -0.22467,-1.02289 -0.24634,-1.03129 -1.88565,-0.73148 -6.138076,1.1226 -9.805506,2.98102 -18.858926,9.55653 -2.0693,1.50293 -3.23069,2.08662 -4.7625,2.39354 -2.34518,0.46988 -4.15881,1.30077 -6.54815,2.99994 -1.73432,1.23336 -3.33096,1.80154 -7.97777,2.839 -1.44227,0.322 -3.89807,1.12351 -5.45735,1.78113 -1.5592705,0.65761 -2.8795505,1.19567 -2.9339505,1.19567 -0.0544,0 -0.0989,-0.24848 -0.0989,-0.55218 0,-0.91839 3.7432405,-4.36288 5.7295005,-5.27222 1.02399,-0.4688 3.03388,-1.09892 4.4664,-1.40026 3.21691,-0.67669 5.04798,-1.47047 7.22456,-3.1319 0.92597,-0.70681 1.91825,-1.28511 2.20507,-1.28511 0.9612,0 5.27242,-2.01622 8.0947,-3.78564 1.53728,-0.96379 4.66128,-2.95415 6.94224,-4.42301 2.28095,-1.46887 4.90033,-2.95311 5.82083,-3.29831 0.9205,-0.34521 1.77077,-0.76842 1.88948,-0.94047 0.11871,-0.17206 0.325586,-0.26844 0.459736,-0.21419 0.13415,0.0542 1.35503,-0.20573 2.71307,-0.57775 2.35025,-0.64382 2.4584,-0.71929 2.24561,-1.56709 -0.12295,-0.48989 -0.28625,-0.95341 -0.3629,-1.03005 -0.19939,-0.19939 -4.46784,1.27904 -7.091846,2.45635 -1.22648,0.55029 -5.01911,2.77097 -8.42805,4.93486 -3.40894,2.16388 -6.25953,3.87287 -6.33464,3.79776 -0.0751,-0.0751 0.0892,-5.52921 0.36524,-12.12021 0.57268,-13.676117 0.2908,-12.700157 3.97166,-13.751367 2.4349,-0.69537 3.92216,-1.63188 6.95169,-4.37736 1.65229,-1.49737 2.9988,-2.35206 4.77451,-3.0306 2.110706,-0.80654 6.693696,-3.6972294 6.693696,-4.2219934 0,-0.09349 -0.25922,-0.817827 -0.57604,-1.60964 -0.75571,-1.8887 -0.27011,-3.160729 1.2066,-3.160729 1.87576,0 2.08895,0.486959 2.31674,5.291667 0.11498,2.4253454 0.61084,7.5053454 1.1019,11.2888854 0.49106,3.783537 2.00629,15.610417 3.36719,26.281947 2.11539,16.58791 2.84011,22.02329 4.12751,30.95625 0.18969,1.3162 0.1843,1.32291 -1.06249,1.32291 -1.08513,0 -1.27899,-0.13007 -1.44598,-0.97014 z m -28.225426,-36.4117 c -0.02,-0.29797 -0.18982,-0.65175 -0.37734,-0.78617 -0.45504,-0.32619 -1.24785,0.35971 -1.04046,0.90016 0.23968,0.62461 1.46083,0.52644 1.4178,-0.11399 z m 2.82222,-1.05834 c -0.02,-0.29797 -0.18075,-0.64614 -0.35718,-0.7737 -0.5386,-0.38944 -1.19838,0.0643 -1.02996,0.7083 0.19684,0.75271 1.43725,0.8112 1.38714,0.0654 z m 2.60944,-1.49005 c 0,-0.18526 -0.20295,-0.53978 -0.45101,-0.78784 -0.36616,-0.36616 -0.53142,-0.36493 -0.87843,0.007 -0.2759,0.29535 -0.30157,0.53534 -0.0724,0.67697 0.19526,0.12068 0.27283,0.3524 0.17239,0.51492 -0.10045,0.16252 0.13509,0.21241 0.52341,0.11087 0.38832,-0.10156 0.70604,-0.33622 0.70604,-0.52148 z m -5.13316,-0.89621 c 0.0947,-0.2467 -0.061,-0.44856 -0.34597,-0.44856 -0.28495,0 -0.51809,-0.18909 -0.51809,-0.4202 0,-0.23111 -0.22703,-0.11205 -0.50451,0.26458 -0.27749,0.37664 -0.36578,0.73473 -0.19621,0.79578 0.16956,0.061 0.21483,0.35457 0.10059,0.65229 -0.1796,0.468 -0.10617,0.47789 0.54217,0.073 0.41244,-0.25757 0.82735,-0.67017 0.92202,-0.91688 z m 2.66371,-0.86768 c 0,-0.18525 -0.20295,-0.53978 -0.451,-0.78784 -0.36616,-0.36616 -0.53142,-0.36493 -0.87843,0.007 -0.27591,0.29535 -0.30157,0.53534 -0.0724,0.67697 0.19525,0.12068 0.27283,0.35239 0.17238,0.51492 -0.10044,0.16252 0.13509,0.21241 0.52342,0.11087 0.38832,-0.10155 0.70604,-0.33621 0.70604,-0.52147 z m 5.15168,0.0789 c -0.02,-0.29797 -0.18982,-0.65174 -0.37734,-0.78616 -0.45504,-0.32619 -1.24785,0.35971 -1.04046,0.90015 0.23968,0.62462 1.46083,0.52644 1.4178,-0.11399 z m -2.46945,-1.41111 c -0.02,-0.29797 -0.18074,-0.64614 -0.35718,-0.77371 -0.5386,-0.38943 -1.19838,0.0643 -1.02996,0.7083 0.19684,0.75272 1.43725,0.81121 1.38714,0.0654 z m 4.91955,0.0633 c -0.10302,-0.10302 -0.007,-0.40399 0.2123,-0.66882 0.31582,-0.38055 0.27819,-0.43492 -0.17946,-0.2593 -0.32937,0.12639 -0.57906,0.0478 -0.57906,-0.18222 0,-0.28427 -0.14137,-0.27237 -0.4758,0.04 -0.69286,0.64723 -0.32668,1.65931 0.52022,1.43784 0.37902,-0.0991 0.60483,-0.2645 0.5018,-0.36753 z m -10.19861,-0.69321 c -0.0721,-0.90865 -0.95117,-1.507 -1.48723,-1.01231 -0.52468,0.48418 -0.31549,0.87736 0.68058,1.27926 0.41671,0.16813 0.7797,0.31576 0.80665,0.32805 0.027,0.0123 0.027,-0.25545 0,-0.595 z m 7.74851,-1.13392 c -0.0479,-0.71341 -0.89407,-1.23632 -1.31668,-0.81371 -0.18169,0.18169 -0.24184,0.561 -0.13366,0.84291 0.26317,0.68581 1.49671,0.66097 1.45034,-0.0292 z m -5.04946,-0.36538 c 0.18997,-0.72645 -0.25214,-0.89663 -1.29237,-0.49746 -0.42903,0.16464 -0.45348,0.30921 -0.11705,0.69214 0.61372,0.69855 1.1969,0.61799 1.40942,-0.19468 z m 10.25592,0.17639 c 0.123686,-0.32234 7e-4,-0.52917 -0.31504,-0.52917 -0.28495,0 -0.52925,-0.19844 -0.54289,-0.44097 -0.0136,-0.24254 -0.15252,-0.12347 -0.30863,0.26458 -0.15611,0.38806 -0.21496,0.82462 -0.13078,0.97014 0.26382,0.45604 1.08508,0.28855 1.29734,-0.26458 z m 2.341866,-1.30107 c 0,-0.43854 -1.0444,-1.48486 -1.10336,-1.10538 -0.24297,1.56382 -0.18329,1.77868 0.44818,1.61354 0.36035,-0.0942 0.65518,-0.3229 0.65518,-0.50816 z m -5.431656,-0.27383 c -0.02,-0.29797 -0.18983,-0.65175 -0.37735,-0.78617 -0.45503,-0.32619 -1.24785,0.35971 -1.04046,0.90015 0.23969,0.62462 1.46083,0.52645 1.41781,-0.11398 z m -4.7989,-0.1458 c 0,-0.79653 -0.81939,-1.27515 -1.29603,-0.75704 -0.30647,0.33313 -0.31105,0.55316 -0.0176,0.84657 0.54891,0.5489 1.31367,0.49679 1.31367,-0.0895 z m -5.17155,-0.31063 c -0.0995,-0.16095 -0.0159,-0.49139 0.1857,-0.73431 0.27951,-0.3368 0.14013,-0.4277 -0.58699,-0.38282 -1.48486,0.0917 -1.51267,0.11146 -1.09528,0.77981 0.21638,0.34647 0.68232,0.62996 1.03542,0.62996 0.35311,0 0.56062,-0.13169 0.46115,-0.29264 z m 12.42055,-0.89143 c -0.10303,-0.10303 -0.007,-0.404 0.21229,-0.66883 0.31583,-0.38054 0.2782,-0.43492 -0.17945,-0.2593 -0.32938,0.12639 -0.57906,0.0478 -0.57906,-0.18222 0,-0.28427 -0.14137,-0.27237 -0.4758,0.04 -0.69287,0.64723 -0.32669,1.65932 0.52022,1.43785 0.37901,-0.0991 0.60482,-0.26451 0.5018,-0.36753 z m 5.663776,-0.0632 c -0.02,-0.29798 -0.18982,-0.65175 -0.37734,-0.78617 -0.45503,-0.32619 -1.24785,0.35971 -1.04046,0.90015 0.23969,0.62462 1.46083,0.52644 1.4178,-0.11398 z m -10.316496,-0.53985 c 0.23853,-0.62159 -0.73382,-0.97791 -1.48007,-0.54238 -0.34461,0.20113 -0.40493,0.34705 -0.14607,0.35334 0.24253,0.006 0.44097,0.24387 0.44097,0.52883 0,0.61625 0.91946,0.35264 1.18517,-0.33979 z m -4.85294,-0.16571 c -0.049,-0.72929 -0.50879,-1.01973 -1.29065,-0.81526 -0.50891,0.13308 -0.56783,0.29594 -0.27608,0.76311 0.46404,0.74304 1.61572,0.78138 1.56673,0.0522 z m 12.347216,-1.05833 c -0.02,-0.29797 -0.18982,-0.65175 -0.37734,-0.78617 -0.45504,-0.32619 -1.24785,0.35971 -1.04046,0.90015 0.23969,0.62462 1.46083,0.52645 1.4178,-0.11398 z m -4.916486,-0.49483 c 0,-0.49371 -0.91749,-1.45329 -0.98576,-1.03099 -0.24029,1.48633 -0.17327,1.76477 0.38939,1.61763 0.328,-0.0858 0.59637,-0.34976 0.59637,-0.58664 z m -4.71895,-0.22381 c 0.10155,-0.38833 0.0517,-0.62386 -0.11087,-0.52342 -0.16252,0.10045 -0.39424,0.0229 -0.51491,-0.17239 -0.14183,-0.22948 -0.38006,-0.20496 -0.6737,0.0693 -0.33097,0.30918 -0.34985,0.54396 -0.0695,0.86502 0.57496,0.65853 1.16114,0.55639 1.36902,-0.23855 z m 12.020316,-1.3483 c -0.26455,-0.0627 -0.49215,-0.30086 -0.50579,-0.52917 -0.0136,-0.22831 -0.15618,-0.0976 -0.31676,0.29045 -0.20518,0.49582 -0.12151,0.83944 0.28146,1.15593 0.47925,0.3764 0.61028,0.34743 0.79776,-0.17639 0.13819,-0.38611 0.0396,-0.67056 -0.25667,-0.74082 z m -17.193136,0.35345 c -0.0616,-0.8143 -0.93554,-1.32514 -1.28889,-0.75339 -0.39604,0.6408 -0.082,1.23892 0.68073,1.29637 0.4108,0.031 0.63634,-0.17042 0.60816,-0.54298 z m 12.58845,-0.44415 c 0.101816,-0.38937 -0.0773,-0.6787 -0.48649,-0.7857 -0.65804,-0.17208 -1.04419,0.32597 -0.79072,1.01986 0.2211,0.6053 1.09981,0.4442 1.27721,-0.23416 z m -4.83574,-0.31181 c -0.0479,-0.71341 -0.89407,-1.23632 -1.31669,-0.8137 -0.18168,0.18169 -0.24183,0.561 -0.13365,0.84291 0.26317,0.6858 1.49671,0.66097 1.45034,-0.0292 z m -4.98501,-0.38111 c -0.098,-0.15856 0.0123,-0.40602 0.24513,-0.54991 0.29511,-0.18238 0.22045,-0.33278 -0.2465,-0.49658 -0.81855,-0.28713 -1.52456,0.30236 -1.31622,1.09902 0.0986,0.37704 0.39336,0.52405 0.8246,0.41128 0.36914,-0.0965 0.59099,-0.30524 0.49299,-0.46381 z m 12.180556,-0.79565 c 0,-0.25224 -0.17841,-0.63702 -0.39645,-0.85506 -0.57853,-0.57853 -1.40905,0.22904 -0.87023,0.84618 0.50783,0.58164 1.26668,0.58696 1.26668,0.009 z m -4.726106,-0.58713 c -0.02,-0.29797 -0.18982,-0.65174 -0.37734,-0.78617 -0.45504,-0.32619 -1.24785,0.35972 -1.04046,0.90016 0.23969,0.62462 1.46083,0.52644 1.4178,-0.11399 z m -4.58611,-0.35277 c -0.0519,-0.77241 -0.9372,-1.25845 -1.28049,-0.703 -0.15297,0.24752 -0.20951,0.62884 -0.12564,0.84739 0.23129,0.60274 1.44793,0.4778 1.40613,-0.14439 z m 11.994436,-0.35278 c -0.02,-0.29797 -0.18074,-0.64614 -0.35718,-0.77371 -0.5386,-0.38944 -1.19837,0.0643 -1.02996,0.7083 0.19684,0.75272 1.43725,0.81121 1.38714,0.0654 z m -17.626276,-0.27718 c -0.0721,-0.90866 -0.95117,-1.507007 -1.48724,-1.01232 -0.52467,0.48418 -0.31549,0.87737 0.68059,1.27926 0.41671,0.16813 0.7797,0.31576 0.80665,0.32806 0.0269,0.0123 0.0269,-0.25546 0,-0.595 z m 12.687396,-0.78116 c -0.02,-0.29797 -0.189826,-0.651737 -0.377346,-0.786157 -0.45503,-0.32619 -1.24785,0.35971 -1.04046,0.900147 0.23969,0.62462 1.460826,0.52644 1.417806,-0.11399 z m -4.586116,-0.35277 c -0.02,-0.297967 -0.18982,-0.651747 -0.37734,-0.786167 -0.45503,-0.32619 -1.24785,0.35971 -1.04046,0.900147 0.23969,0.62462 1.46083,0.52645 1.4178,-0.11398 z m -5.29166,-0.352777 c -0.02,-0.29797 -0.18983,-0.65175 -0.37734,-0.78617 -0.45504,-0.32619 -1.24785,0.35971 -1.04047,0.90016 0.23969,0.624607 1.46084,0.526437 1.41781,-0.11399 z m 12.386396,-0.83041 c -0.0416,-0.21414 -0.22843,-0.56867 -0.41525,-0.78786 -0.46108,-0.54095 -1.19263,0.15303 -0.98764,0.93691 0.17105,0.65409 1.53076,0.50963 1.40289,-0.14905 z m -9.618456,-0.8503 c 0.0947,-0.2467 -0.061,-0.44856 -0.34596,-0.44856 -0.28496,0 -0.5181,-0.1852 -0.5181,-0.41157 0,-0.85971 -0.46878,0.10201 -0.52703,1.08123 -0.0541,0.90886 0.0125,0.98094 0.57893,0.62717 0.35202,-0.21984 0.71749,-0.60156 0.81216,-0.84827 z m 4.99317,0.2696 c -0.0519,-0.77241 -0.9372,-1.25844 -1.28049,-0.70299 -0.15297,0.24751 -0.20951,0.62883 -0.12564,0.84739 0.23129,0.60274 1.44793,0.4778 1.40613,-0.1444 z m 7.036206,-0.28953 c -0.10302,-0.10303 0.01,-0.43084 0.25059,-0.72847 0.35644,-0.44047 0.34853,-0.48733 -0.0425,-0.25185 -0.29554,0.17798 -0.59891,0.10223 -0.78834,-0.19686 -0.223,-0.35206 -0.30943,-0.36453 -0.31334,-0.0452 -0.003,0.24254 -0.28322,0.45351 -0.62276,0.46883 -0.36881,0.0166 -0.43983,0.0995 -0.17639,0.20578 0.24253,0.0979 0.44097,0.38797 0.44097,0.64468 0,0.29609 0.26309,0.39794 0.71955,0.27858 0.39575,-0.10349 0.63525,-0.27246 0.53222,-0.37549 z m -4.60316,-1.36508 c 0,-0.41803 -0.1081,-0.69326 -0.24021,-0.6116 -0.132106,0.0817 -0.338936,-0.0113 -0.459616,-0.20657 -0.14106,-0.22824 -0.38909,-0.1988 -0.69456,0.0824 -0.29066,0.26762 -0.35309,0.58703 -0.16079,0.8227 0.17288,0.21188 0.24956,0.45 0.1704,0.52916 -0.0792,0.0792 0.20003,0.14393 0.62042,0.14393 0.547436,0 0.764356,-0.21569 0.764356,-0.76006 z m -4.993286,-0.19748 c 0.10047,-0.38423 -0.0288,-0.62996 -0.33141,-0.62996 -0.27287,0 -0.49614,-0.18909 -0.49614,-0.4202 0,-0.23111 -0.22046,-0.1187 -0.48992,0.24981 -0.26946,0.3685 -0.42428,0.84107 -0.34404,1.05016 0.23784,0.6198 1.48306,0.43258 1.66151,-0.24981 z m 7.146346,-0.97013 c -0.0477,-0.71049 -0.71983,-1.12497 -1.40058,-0.86374 -0.41452,0.15907 -0.45449,0.34987 -0.16906,0.80691 0.46629,0.74666 1.61879,0.78838 1.56964,0.0568 z m -4.938886,-0.70556 c -0.0477,-0.71049 -0.71982,-1.12497 -1.40058,-0.86373 -0.41452,0.15906 -0.45449,0.34986 -0.16906,0.80691 0.46629,0.74666 1.61879,0.78838 1.56964,0.0568 z m 7.195546,-0.52095 c 0,-0.66279 -0.50377,-0.95805 -1.18717,-0.6958 -0.43151,0.16558 -0.45656,0.31024 -0.12003,0.69328 0.56192,0.63959 1.3072,0.64103 1.3072,0.003 z m -4.828006,-1.28864 c 0.0969,-0.37038 0.0431,-0.59124 -0.1194,-0.4908 -0.16253,0.10045 -0.39424,0.0229 -0.51492,-0.17239 -0.33071,-0.5351 -1.16305,0.3869 -0.98026,1.08586 0.20272,0.77521 1.38206,0.46648 1.61458,-0.42267 z m 2.199226,-0.94938 c -0.10303,-0.10303 0.01,-0.43084 0.25059,-0.72847 0.35644,-0.44047 0.34853,-0.48733 -0.0425,-0.25185 -0.29555,0.17798 -0.59891,0.10222 -0.78835,-0.19686 -0.22299,-0.35206 -0.30942,-0.36453 -0.31334,-0.0452 -0.003,0.24254 -0.28321,0.45351 -0.62276,0.46882 -0.36881,0.0166 -0.43982,0.0995 -0.17639,0.20579 0.24254,0.0979 0.44098,0.38797 0.44098,0.64468 0,0.29608 0.26309,0.39794 0.71954,0.27857 0.39576,-0.10349 0.63526,-0.27246 0.53223,-0.37548 z m 2.47759,-1.50554 c 0,-0.31513 -0.20411,-0.76362 -0.45357,-0.99665 -0.27729,-0.25902 -0.45357,-0.28118 -0.45357,-0.057 0,0.20167 -0.27782,0.37922 -0.61736,0.39453 -0.36881,0.0166 -0.43983,0.0995 -0.17639,0.20579 0.24253,0.0979 0.44097,0.36881 0.44097,0.60211 0,0.2333 0.28348,0.42417 0.62996,0.42417 0.34648,0 0.62996,-0.25782 0.62996,-0.57294 z M 9.1720625,58.239345 c -0.6853,-0.68529 0.0142,-1.87044 2.3544905,-3.98909 3.98308,-3.6059 4.78711,-4.09512 8.37212,-5.09421 1.84326,-0.51368 4.38326,-1.50759 5.64445,-2.20869 7.52337,-4.18226 7.41094,-4.14207 7.40351,-2.64644 -0.009,1.84618 -0.40983,2.57408 -1.71568,3.11691 -0.70296,0.29222 -2.78624,1.38541 -4.6295,2.42931 -3.01574,1.70792 -5.271,2.56412 -9.7544,3.70323 -0.83957,0.21331 -2.74411,1.33742 -4.46481,2.63523 -1.65038,1.24479 -3.0949605,2.16897 -3.2101805,2.05375 z m -0.6152,-4.14891 c -0.0291,-0.48507 -0.0688,-1.02268 -0.0882,-1.1947 -0.0194,-0.17202 0.99349,-1.08483 2.2508705,-2.02847 1.25738,-0.94364 3.57606,-2.92952 5.15262,-4.41307 3.00172,-2.8246 3.23121,-2.92961 7.99628,-3.65879 0.74966,-0.11472 2.2799,-0.88061 3.52778,-1.76567 2.12324,-1.50591 5.28846,-3.34346 5.75916,-3.34346 0.21334,0 -0.0333,1.93337 -0.41177,3.22812 -0.0936,0.32026 -0.55784,0.67958 -1.03161,0.79849 -0.47376,0.1189 -1.72147,0.91674 -2.77268,1.77296 -2.46727,2.00962 -4.10621,2.82851 -7.45956,3.72714 -3.97087,1.06412 -4.74003,1.45659 -7.25071,3.69971 -2.18009,1.94777 -4.9987505,4.05969 -5.4182405,4.05969 -0.11056,0 -0.22484,-0.39688 -0.25394,-0.88195 z m -0.65263,-3.48368 c 0,-0.26679 -0.092,-0.94525 -0.20453,-1.50769 -0.19295,-0.96477 -0.10341,-1.05899 1.58283,-1.66535 2.3708205,-0.85253 3.1846405,-1.53941 5.5542705,-4.68792 2.17856,-2.89462 3.35998,-3.63886 6.90262,-4.34832 1.71363,-0.34317 2.72216,-0.9295 6.70278,-3.89676 2.5771,-1.92104 4.8047,-3.4983 4.95022,-3.50501 0.14552,-0.007 0.26458,0.80602 0.26458,1.80608 0,1.77903 -0.047,1.86092 -2.17446,3.79236 -3.16763,2.8757 -4.14167,3.45262 -7.44591,4.41015 -4.58793,1.32953 -5.36137,1.75272 -8.28923,4.53547 -2.66417,2.53214 -6.7278805,5.55206 -7.4710405,5.55206 -0.20467,0 -0.37213,-0.21828 -0.37213,-0.48507 z m -0.4732,-3.66904 c -0.083,-0.14058 -0.26066,-0.91877 -0.39473,-1.7293 l -0.24377,-1.47369 1.59896,-0.23978 c 2.0576305,-0.30856 3.5868305,-1.76867 5.7482005,-5.48851 0.89413,-1.53884 2.23863,-3.35165 2.98779,-4.02847 1.23851,-1.11891 1.55513,-1.23058 3.48909,-1.23058 3.19808,0 4.20265,-0.5803 6.36435,-3.6764 1.80676,-2.58774 3.91712,-4.36342 5.88844,-4.9546 0.78388,-0.23508 0.7953,-0.19886 0.57163,1.81432 -0.18468,1.66223 -0.41311,2.20399 -1.19717,2.83933 -0.53293,0.43184 -1.98079,1.83575 -3.21747,3.11981 -2.70828,2.81202 -4.54913,3.95386 -6.86319,4.25707 -0.95443,0.12506 -2.1322,0.43047 -2.61727,0.67869 -1.12602,0.5762 -3.37647,2.94477 -5.23832,5.51329 -0.80007,1.10373 -1.97281,2.38948 -2.60609,2.85721 -1.36397,1.00742 -4.0557105,2.10519 -4.2704505,1.74161 z"
       id="path854" />
  </g>
</svg>
