<?xml version="1.0" encoding="UTF-8" standalone="no"?>
<!-- Created with Inkscape (http://www.inkscape.org/) -->

<svg
   width="132.55099mm"
   height="42.616001mm"
   viewBox="0 0 132.55099 42.616001"
   version="1.1"
   id="svg3612"
   inkscape:version="1.1.2 (0a00cf5339, 2022-02-04)"
   sodipodi:docname="gang.svg"
   xmlns:inkscape="http://www.inkscape.org/namespaces/inkscape"
   xmlns:sodipodi="http://sodipodi.sourceforge.net/DTD/sodipodi-0.dtd"
   xmlns="http://www.w3.org/2000/svg"
   xmlns:svg="http://www.w3.org/2000/svg">
  <sodipodi:namedview
     id="namedview3614"
     pagecolor="#ffffff"
     bordercolor="#666666"
     borderopacity="1.0"
     inkscape:pageshadow="2"
     inkscape:pageopacity="0.0"
     inkscape:pagecheckerboard="0"
     inkscape:document-units="mm"
     showgrid="false"
     inkscape:zoom="1.4142136"
     inkscape:cx="143.18912"
     inkscape:cy="23.688077"
     inkscape:window-width="1920"
     inkscape:window-height="990"
     inkscape:window-x="0"
     inkscape:window-y="28"
     inkscape:window-maximized="1"
     inkscape:current-layer="layer1" />
  <defs
     id="defs3609" />
  <g
     inkscape:label="Vrstva 1"
     inkscape:groupmode="layer"
     id="layer1">
    <path
       style="fill:#ececec;stroke-width:0.515566"
       d="m 27.016857,42.035467 c 0.0097,-0.31908 0.32767,-1.13835 0.705807,-1.82072 0.702919,-1.26853 0.561256,-4.50107 -0.240531,-5.48846 -0.242234,-0.29838 -0.307147,-1.05194 -0.144317,-1.6747 0.162829,-0.62275 -0.04811,-1.65752 -0.468698,-2.29946 -0.676156,-1.03196 -0.675992,-1.25021 0.0014,-1.88302 0.631504,-0.59005 0.703328,-1.68601 0.408536,-6.23446 -0.416878,-6.43183 0.07429,-12.6520496 1.078316,-13.6560696 0.386918,-0.38667 0.70348,-0.91651 0.70348,-1.17695 0,-0.64547 1.815097,-2.69356 2.387151,-2.69356 0.253926,0 0.690752,-0.5109 0.970662,-1.13506 0.968226,-2.15947 6.878072,-2.54621 8.438976,-0.5523 0.670665,0.85677 0.69602,0.8575 0.404517,0.0121 -0.171051,-0.49627 -0.181341,-0.90226 -0.02314,-0.90226 0.766115,0 4.298954,2.92588 4.308607,3.56837 0.006,0.40312 0.345571,1.10248 0.754508,1.55431 1.387387,1.53306 1.783743,5.4088796 1.634847,15.9867596 -0.142735,10.13916 0.268418,14.98019 1.27236,14.98019 0.520214,0 0.654508,1.70972 0.172206,2.192 -0.414137,0.41407 -3.27797,-0.63026 -4.42789,-1.61485 -0.517962,-0.4433 -0.94172,-1.17238 -0.94172,-1.61976 0,-0.44757 -0.222932,-1.03635 -0.495309,-1.30879 -0.272438,-0.27219 -0.562412,-2.94756 -0.644461,-5.94468 l -0.149128,-5.44931 -2.377067,1.45926 c -1.307386,0.80258 -2.766659,1.45925 -3.242829,1.45925 -1.045951,0 -5.041016,-1.97192 -5.624102,-2.77601 -0.529653,-0.73042 0.129764,3.78014 0.716139,4.89846 0.584944,1.11557 0.494213,6.56902 -0.115576,6.94589 -0.26574,0.16441 -0.3421,0.74308 -0.169711,1.28638 0.172391,0.54316 0.118621,0.98769 -0.119595,0.98769 -0.238154,0 -0.854751,0.78304 -1.370136,1.74003 -0.665488,1.23578 -1.297155,1.74004 -2.179504,1.74004 -0.683342,0 -1.234216,-0.26123 -1.224169,-0.58032 z m 12.595338,-16.43366 c 1.753589,-1.14779 2.847123,-2.77145 3.211931,-4.76894 0.103579,-0.56692 0.416146,-1.87857 0.694564,-2.91431 0.552183,-2.05388 0.02984,-4.1773 -1.206729,-4.9065 -0.399462,-0.23566 -0.831252,-0.75697 -0.959494,-1.15875 -0.183595,-0.57545 -0.446168,-0.50846 -1.235617,0.31421 -0.551331,0.57423 -1.640473,1.1976 -2.420271,1.38472 -1.228857,0.29473 -1.418857,0.18451 -1.425695,-0.82955 -0.0061,-0.93837 -0.104616,-1.01687 -0.496771,-0.39642 -0.268906,0.42565 -0.671333,0.79278 -0.894344,0.81653 -1.549103,0.16502 -3.259647,1.39793 -3.551187,2.55948 -0.419923,1.67304 0.03593,5.78203 0.829474,7.47493 0.672844,1.43569 3.409275,3.46326 4.772397,3.53621 0.50024,0.0244 1.706994,-0.47314 2.681736,-1.11137 z m 49.245087,9.20431 c -0.9874,-0.67982 -2.14327,-1.76208 -2.56861,-2.40512 -0.42535,-0.64303 -1.12137,-1.53689 -1.5467,-1.98634 -0.42534,-0.44939 -0.7009,-1.32639 -0.61235,-1.94866 0.0886,-0.62233 -0.10267,-2.01436 -0.42498,-3.09339 -1.58129,-5.29415 -1.46755,-14.1943 0.22275,-17.4289096 0.44452,-0.85069 0.80968,-1.82273 0.81143,-2.16002 0.002,-0.33735 0.87319,-0.68535 1.93654,-0.77335 1.36284,-0.11265 1.91736,-0.39581 1.87912,-0.95816 -0.0299,-0.43904 0.3203,-0.82639 0.77805,-0.86085 0.4578,-0.0365 1.1782,-0.13945 1.60096,-0.23322 0.42278,-0.0938 0.72998,0.0615 0.68271,0.34526 -0.0475,0.28377 0.53276,0.54622 1.28892,0.58397 3.68594,0.1839 7.588928,1.36286 9.341248,2.82175 1.12274,0.93472 1.32807,1.69644 1.83695,6.8144796 0.31514,3.16921 0.43473,5.87819 0.26581,6.01994 -0.16892,0.14188 -0.61856,1.53379 -0.99917,3.0934 -0.38059,1.55961 -0.98359,3.18364 -1.33995,3.60898 -0.35635,0.42565 -0.81829,1.35336 -1.02652,2.06222 -0.20826,0.70892 -0.92167,2.0143 -1.585388,2.90092 -0.66373,0.88654 -1.06214,1.7566 -0.88536,1.93337 0.17677,0.17659 0.011,0.32151 -0.36841,0.32151 -0.37937,0 -1.12772,0.39642 -1.66295,0.88071 -0.53587,0.48471 -1.6393,0.82992 -2.45564,0.76775 -0.81537,-0.0621 -1.62742,0.12178 -1.80458,0.40798 -0.50487,0.81689 -1.42213,0.62197 -3.36386,-0.71477 z m 5.89081,-3.66196 c 0.98184,-1.49847 0.17177,-1.74698 -1.04863,-0.32151 -0.89298,1.04292 -2.77071,0.90816 -2.77071,-0.19852 0,-0.36171 -0.348,-0.79162 -0.77334,-0.95481 -0.47942,-0.1839 -0.77335,0.003 -0.77335,0.4908 0,0.46401 0.24449,0.63646 0.59524,0.41956 0.36876,-0.22774 0.45529,-0.14127 0.22737,0.22713 -0.60996,0.98696 0.17013,1.62641 1.98417,1.62641 1.26016,0 1.93865,-0.34161 2.55928,-1.28893 z m 4.64752,-6.70237 c -0.23869,-0.8625 -0.18822,-0.90464 0.30873,-0.25758 0.490928,0.63902 0.549928,0.57179 0.339848,-0.38668 -0.139808,-0.63804 -0.0554,-1.16002 0.18749,-1.16002 0.24297,0 0.36835,-2.0104 0.27866,-4.46758 -0.19285,-5.28258 -0.554138,-5.72163 -4.749468,-5.77175 -1.56717,-0.0183 -3.61426,-0.31055 -4.5491,-0.64869 -2.29116,-0.82846 -3.0275,-0.43905 -4.3028,2.2737 -1.6153,3.43641 -1.83333,8.08923 -0.54092,11.54348 0.95608,2.55535 1.12947,2.74174 1.90409,2.04701 2.07177,-1.85824 7.84102,-1.17373 8.6869,1.03055 0.46115,1.20174 2.81078,-2.85042 2.43668,-4.20226 z m 2.831458,-2.32006 c 0.0249,-0.68742 -0.0274,-0.68742 -0.47144,0 -0.27487,0.42504 -0.48703,1.23736 -0.47144,1.80453 l 0.0286,1.03111 0.44306,-1.03111 c 0.24369,-0.56692 0.45585,-1.37918 0.47144,-1.80453 z m 18.36821,11.47388 c -2.32772,-0.5724 -6.46606,-4.11214 -6.46606,-5.53035 0,-0.4226 -0.55657,-0.90787 -1.2368,-1.07861 -0.99569,-0.24967 -1.30337,-0.75435 -1.57829,-2.58767 -0.1878,-1.25246 -0.552,-2.27725 -0.80929,-2.27725 -0.25727,0 -0.33424,-0.3483 -0.17104,-0.77334 0.16325,-0.42565 0.0979,-0.7728 -0.14505,-0.77219 -0.24303,6.7e-4 -0.36378,-1.64948 -0.26837,-3.6669 0.13939,-2.94694 0.0377,-3.59119 -0.51558,-3.27673 -0.55487,0.31542 -0.56351,0.25635 -0.0445,-0.30265 0.35446,-0.3818 0.64448,-1.41352 0.64448,-2.29258 0,-0.87906 0.29003,-1.9107196 0.64446,-2.2925896 0.5241,-0.56448 0.50005,-0.61356 -0.12892,-0.26184 -0.64075,0.35805 -0.66362,0.29655 -0.13336,-0.35866 0.35203,-0.43478 0.48734,-0.94355 0.30076,-1.13012 -0.18658,-0.18634 -0.0548,-0.33919 0.29265,-0.33919 0.34758,0 0.48824,-0.2326 0.3127,-0.51637 -0.39022,-0.6314 2.18915,-1.68785 2.95912,-1.21197 0.33004,0.204 0.40135,0.0974 0.17738,-0.26488 -0.23949,-0.38729 0.31136,-0.89258 1.52738,-1.40068 2.25733,-0.94318 4.87464,-1.34362 4.87464,-0.74582 0,0.23383 0.81202,0.38667 1.80449,0.34039 0.99246,-0.0487 1.80447,0.0712 1.80447,0.26245 0,0.19121 0.45324,0.22896 1.00724,0.084 1.45866,-0.3818 4.95109,1.41724 5.9295,3.05388 0.462,0.77274 0.83025,1.52678 0.81836,1.67554 -0.0116,0.14858 3.1e-4,0.32883 0.0274,0.39947 0.0267,0.0707 0.13621,3.4250196 0.24314,7.4535496 0.18725,7.05392 0.15005,7.37793 -1.00542,8.7646 -0.65992,0.79199 -1.35139,2.26494 -1.53661,3.27316 -0.67696,3.68503 -5.5527,6.70286 -9.32854,5.77393 z m 5.12509,-2.47337 c 1.95856,-1.14778 2.31677,-1.64486 2.87963,-3.99565 0.35355,-1.47662 0.99204,-2.94122 1.41885,-3.25471 0.44379,-0.32578 0.63673,-0.93288 0.45061,-1.41778 -0.19924,-0.51943 -0.0652,-0.84789 0.34588,-0.84789 0.40208,0 0.67124,-0.62014 0.67124,-1.54669 0,-1.91797 -0.21459,-1.94823 -0.91529,-0.1291 l -0.54603,1.41779 -0.73788,-1.5467 c -0.40585,-0.85068 -0.60461,-1.08268 -0.44178,-0.51577 0.23201,0.808 0.16033,0.89636 -0.33126,0.4086 -0.49275,-0.48898 -0.48575,-0.79333 0.0329,-1.41785 0.36299,-0.43721 0.43174,-0.79521 0.15272,-0.79521 -0.27895,0 -0.39264,-0.59919 -0.25258,-1.33192 0.14006,-0.73256 -0.0432,-2.23486 -0.40763,-3.33844 -0.54785,-1.66001 -1.0463,-2.15319 -2.8866,-2.8560296 -1.22339,-0.46705 -2.75419,-0.7211 -3.40174,-0.56387 -7.06587,1.7123896 -7.20071,1.8646196 -7.41544,8.3709796 -0.0908,2.75325 -0.27341,5.11403 -0.40562,5.24622 -0.13225,0.13215 -0.61148,-0.4774 -1.06501,-1.3542 -0.97784,-1.89087 -1.30169,-2.0171 -1.11529,-0.43478 0.19517,1.65704 1.11372,3.67468 2.01246,4.42057 0.42437,0.35196 1.05513,1.32486 1.40167,2.16148 0.70442,1.70063 5.17671,4.6016 7.12255,4.62011 0.6584,0.006 2.20366,-0.57849 3.4339,-1.29946 z m -113.628017,1.66605 c -1.378656,-0.27219 -2.720525,-1.03763 -3.840858,-2.19119 -0.94706,-0.97515 -1.966772,-1.77298 -2.266028,-1.77298 -0.309035,0 -0.414137,-0.4969 -0.243331,-1.15023 0.296918,-1.13535 0.282973,-1.13852 -1.079393,-0.24601 -1.560271,1.02229 -1.805868,0.65875 -0.517049,-0.76537 0.809167,-0.89416 0.798493,-1.07495 -0.170562,-2.89043 -0.568564,-1.06522 -0.997425,-2.42948 -0.953051,-3.03177 0.05298,-0.7172 -0.155218,-1.00462 -0.602787,-0.8329 -0.403724,0.15528 -0.683458,-0.0993 -0.683458,-0.62136 0,-0.57362 -0.27128,-0.77956 -0.77334802,-0.58702 -0.859556,0.33004 -1.069809,-0.45792 -0.256362,-0.96059 0.31128802,-0.19243 0.33942102,-0.66606 0.0707,-1.19048 -0.871771,-1.70136 -1.03278,-5.03187 -0.366092,-7.5733296 0.430883,-1.64248 0.493359,-2.69472 0.172268,-2.90006 -0.322432,-0.20643 -0.311228,-0.44148 0.03105,-0.65284 0.294238,-0.18208 0.68304902,-0.0913 0.86401902,0.20155 0.487636,0.789 1.407963,0.0244 1.060432,-0.88289 -0.204481,-0.53282 -0.06114,-0.68743 0.454023,-0.48958 0.434658,0.16684 0.880874,-0.0816 1.055828,-0.58702 0.166666,-0.48167 1.121726,-1.39732 2.122348,-2.03458 2.110877,-1.34434 4.670315,-2.12951 4.138933,-1.26974 -0.235841,0.38179 0.106015,0.43355 1.083127,0.16379 2.023262,-0.55778 6.087314,0.55109 5.999609,1.63689 -0.03776,0.46462 0.194494,0.79599 0.515586,0.7362 0.321092,-0.0609 0.584822,0.33614 0.585979,0.88021 0.0012,0.54379 0.292655,1.08574 0.647671,1.20405 0.355009,0.11814 0.530566,0.40129 0.390145,0.62831 -0.140421,0.22713 0.09012,0.69978 0.512359,1.05022 0.532941,0.4421 0.767673,0.46036 0.767673,0.0609 0,-0.31848 0.229387,-0.57848 0.509801,-0.57848 0.280355,0 0.474544,0.52185 0.431492,1.16002 -0.04323,0.63797 0.09731,2.37801 0.311958,3.8667396 0.277615,1.92564 0.21873,2.70672 -0.204176,2.70672 -0.326937,0 -0.44294,0.24479 -0.257884,0.54439 0.31756,0.51394 -0.77646,7.37951 -1.950502,12.24034 -0.294359,1.21867 -1.156448,2.88082 -1.915797,3.69369 -0.75935,0.81292 -1.33047,1.8198 -1.269151,2.23759 0.122944,0.83772 -0.90385,0.88448 -4.375199,0.19974 z m 0.08391,-4.09309 c 0.118256,-0.35439 0.888018,-0.64443 1.710538,-0.64443 1.05788,0 1.550857,-0.28621 1.684689,-0.97746 0.142673,-0.73725 -0.02436,-0.89563 -0.678605,-0.64444 -0.477284,0.18329 -1.486845,0.33674 -2.243448,0.341 -1.858192,0.0121 -2.76871,0.66745 -2.369072,1.70892 0.387222,1.00906 1.585761,1.14602 1.895898,0.21678 z M 8.76758,27.452307 c -0.05115,-0.61491 0.655032,-1.04653 2.506222,-1.53124 3.49497,-0.91505 5.390893,-1.19479 5.336563,-0.78735 -0.282668,2.11995 1.318097,1.69948 2.103113,-0.55231 0.70846,-2.03226 0.704521,-5.3263 -0.0091,-7.61858 -0.308366,-0.99062 -0.620957,-2.68205 -0.694608,-3.75884 -0.202898,-2.96674 -0.891098,-3.3383696 -3.639689,-1.96565 -1.477571,0.73792 -3.134298,1.13335 -4.519025,1.07862 -1.202417,-0.0487 -3.047499,-0.0652 -4.100185,-0.0365 l -1.913977,0.0487 0.268175,3.48006 c 0.447386,5.80566 2.287992,11.4952 3.932655,12.15644 0.362013,0.14554 0.690466,0.28316 0.729853,0.30508 0.03958,0.0244 0.03958,-0.34466 0,-0.81555 z m 55.345442,5.04869 c -1.75554,-0.44149 -3.00208,-1.44532 -5.20967,-4.19551 -1.595886,-1.98812 -2.813184,-4.88556 -2.506335,-5.96557 0.04931,-0.17293 -0.516492,-0.94696 -1.257045,-1.71988 -0.740534,-0.77299 -1.2488,-1.50528 -1.129469,-1.62744 0.119348,-0.12179 0.290523,-1.15004 0.380525,-2.2843 0.136095,-1.71635 0.01461,-2.03683 -0.725304,-1.91078 -0.488853,0.0834 -0.888855,-0.0908 -0.888855,-0.38667 0,-0.29595 0.32134,-0.53831 0.714064,-0.53831 0.797867,0 2.379338,-2.15746 2.379338,-3.24593 0,-0.38728 0.57209,-1.0105296 1.271316,-1.3847896 0.699225,-0.37449 1.167455,-0.84842 1.040515,-1.05382 -0.12697,-0.20521 0.75098,-0.53952 1.95096,-0.74284 1.93179,-0.32699 2.04887,-0.42078 1.02177,-0.82109 -1.73253,-0.67476 -1.41297,-0.95731 1.03112,-0.9117 1.20513,0.0244 2.82421,-0.13031 3.59792,-0.33978 1.07049,-0.28986 2.14385,0.003 4.49008,1.22402 1.69582,0.88259 3.53613,1.60467 4.08958,1.60467 0.68091,0 1.33443,0.70849 2.02126,2.1911996 1.4143,3.05314 1.69272,3.99559 1.18036,3.99559 -0.24316,0 -0.43131,0.28985 -0.41817,0.64449 0.12003,3.23151 -0.20716,5.56075 -0.73528,5.23436 -0.4145,-0.25636 -0.50164,-0.005 -0.28522,0.82249 0.17135,0.65528 0.0402,2.37357 -0.29107,3.81846 -0.47851,2.08603 -1.16312,3.18467 -3.32385,5.33385 -2.46876,2.45565 -2.92449,2.70106 -4.91225,2.64576 -1.20506,-0.0365 -2.77386,-0.20764 -3.48623,-0.38667 z m 6.70864,-2.57307 c 0,-0.22895 0.87001,-1.28656 1.93337,-2.35006 l 1.93337,-1.93368 -0.0857,-6.07943 c -0.11015,-7.81442 -0.89584,-9.6240596 -5.02664,-11.5782496 -1.54829,-0.73243 -3.10296,-1.33175 -3.45484,-1.33175 -1.05644,0 -4.27361,1.2432 -5.00323,1.93337 -0.37468,0.35441 -0.89076,0.6445 -1.14679,0.6445 -1.16922,0 -1.95436,3.0801296 -2.04165,8.0094596 -0.13938,7.87214 -0.17342,7.70651 2.13235,10.37067 2.39416,2.76621 3.7996,3.64363 6.24386,3.89804 1.69495,0.1766 4.51592,-0.81232 4.51592,-1.58287 z"
       id="path4149"
       sodipodi:nodetypes="csssssssssssssssssssssscsssssssssccssssssscsssscsscsssssssscsssssssssssssscccsssssccssssssssccssssssccccscccscssssssssssssscsssscsssccssscccsssssscsssssscscssssssscccssssssscscsssscscsssscscsssssssssssssccsssscssscsssssscccsscccsssscssssssscccsssssssscscsssscssssssssss" />
  </g>
</svg>
