<?xml version="1.0" encoding="UTF-8" standalone="no"?>
<!-- Created with Inkscape (http://www.inkscape.org/) -->

<svg
   width="417.224mm"
   height="26.465mm"
   viewBox="0 0 417.224 26.465001"
   version="1.1"
   id="svg5"
   inkscape:version="1.1.2 (0a00cf5339, 2022-02-04)"
   sodipodi:docname="hr8.svg"
   inkscape:export-filename="/home/jiri/Plocha/iasip/beers.png"
   inkscape:export-xdpi="100"
   inkscape:export-ydpi="100"
   xmlns:inkscape="http://www.inkscape.org/namespaces/inkscape"
   xmlns:sodipodi="http://sodipodi.sourceforge.net/DTD/sodipodi-0.dtd"
   xmlns="http://www.w3.org/2000/svg"
   xmlns:svg="http://www.w3.org/2000/svg">
  <sodipodi:namedview
     id="namedview7"
     pagecolor="#ffffff"
     bordercolor="#666666"
     borderopacity="1.0"
     inkscape:pageshadow="2"
     inkscape:pageopacity="0.0"
     inkscape:pagecheckerboard="0"
     inkscape:document-units="mm"
     showgrid="false"
     inkscape:zoom="0.72604518"
     inkscape:cx="1237.5263"
     inkscape:cy="146.68509"
     inkscape:window-width="1920"
     inkscape:window-height="990"
     inkscape:window-x="0"
     inkscape:window-y="28"
     inkscape:window-maximized="1"
     inkscape:current-layer="layer1"
     inkscape:snap-global="false" />
  <defs
     id="defs2" />
  <g
     inkscape:label="Vrstva 1"
     inkscape:groupmode="layer"
     id="layer1">
    <path
       style="opacity:1;fill:#90e498;fill-opacity:1;stroke:#008000;stroke-width:0.244214"
       d="m 29.632484,21.49992 c -0.994374,0.106223 -3.945032,-0.374641 -6.253731,-1.019192 -1.325288,-0.370003 -2.937367,-1.062346 -4.958528,-2.12958 l -2.994807,-1.581335 0.425951,0.843647 c 0.23432,0.464003 0.398058,1.306765 0.363913,1.872812 -0.05556,0.921491 -0.142013,1.104623 -0.826351,1.750327 -1.018018,0.960525 -2.504004,1.15538 -3.381305,0.443627 -0.578339,-0.469358 -0.657131,-0.466801 -0.92196,0.02994 -0.41718,0.782449 -1.6250086,1.252318 -2.6938768,1.047954 C 6.4973178,22.395884 5.7318705,20.375619 6.609981,18.055349 6.8417229,17.443063 6.9482946,16.897813 6.8468429,16.843718 6.745441,16.789617 6.591345,16.878574 6.5045056,17.041408 6.215722,17.583053 4.0999976,18.487523 3.1879909,18.459198 1.1819401,18.396911 0.08437047,16.331951 1.0723662,14.478876 1.5548224,13.573987 1.5482575,13.510207 0.92047519,13.000717 -0.00294229,12.251325 -0.12975695,11.123089 0.56330134,9.8231744 1.0523973,8.9058398 1.2528341,8.7452311 2.2119292,8.5022042 3.3498104,8.2138217 4.6970729,8.3829511 5.787218,8.950925 6.4209051,9.2814005 6.421067,9.2773943 5.7922009,8.4320836 4.2383725,6.3444678 4.154934,4.3311356 5.5729784,3.1426892 6.4733625,2.3880634 7.7913629,2.3202021 8.7349611,2.9799441 9.2682678,3.3527718 9.4432546,3.3692626 9.6070174,3.0621241 10.23034,1.8929956 11.862412,1.4912942 13.165788,2.1862119 c 1.44479,0.7702998 1.753667,3.1290449 0.678633,5.1827684 -0.383907,0.7338968 -0.369146,0.730922 0.978366,-0.1881342 1.584685,-1.0808159 2.719053,-1.2506267 3.95663,-0.5923253 0.683404,0.3636703 0.950798,0.6928066 1.206707,1.4860585 0.291686,0.9058091 0.261702,1.1244237 -0.273822,1.9664707 -0.441597,0.694295 -0.525895,0.988329 -0.315417,1.100542 0.590659,0.314922 1.304957,1.592314 1.255627,2.245418 -0.138525,1.83361 -1.605651,3.131109 -3.288848,2.908551 -1.605837,-0.212322 -1.197451,0.258116 1.150277,1.324987 3.628107,1.648702 6.668009,2.460565 9.999173,2.670452 1.384149,0.0872 1.540761,0.144721 1.675,0.615083 0.134264,0.470352 0.08234,0.525888 -0.555381,0.594047 z"
       id="path908" />
    <path
       style="fill:#bae4bd;fill-opacity:1;stroke:#008000;stroke-width:0.244214"
       d="M 43.312484,3.3715859 C 42.925812,4.2938386 41.081119,6.6464212 39.402731,8.3577426 38.439276,9.340104 37.055115,10.418158 35.145209,11.673703 l -2.829935,1.860366 0.94447,0.03393 c 0.51948,0.0186 1.336674,0.281745 1.816016,0.584741 0.780359,0.49324 0.899076,0.657296 1.134518,1.568245 0.350235,1.355098 -0.195977,2.750733 -1.242659,3.175814 -0.690143,0.280156 -0.72592,0.350397 -0.418576,0.822014 0.484114,0.742904 0.313001,2.027555 -0.381677,2.865223 -1.231248,1.484683 -3.37013,1.180516 -4.978908,-0.708026 -0.424517,-0.49837 -0.850704,-0.854773 -0.947036,-0.792006 -0.09629,0.06275 -0.09268,0.24062 0.0075,0.395241 0.335125,0.514268 0.106634,2.803841 -0.358108,3.589033 -1.02234,1.727116 -3.360613,1.692301 -4.50714,-0.06712 -0.559878,-0.859142 -0.6189,-0.884167 -1.368053,-0.580056 -1.101905,0.447318 -2.15134,0.01413 -2.955616,-1.220098 -0.567577,-0.870967 -0.611551,-1.124025 -0.361734,-2.08137 0.296346,-1.135831 1.094456,-2.234356 2.11788,-2.915236 0.595194,-0.395632 0.591756,-0.397713 -0.452223,-0.254378 -2.578224,0.353912 -4.382019,-0.544294 -4.738919,-2.359749 -0.226622,-1.15274 0.349787,-2.339958 1.382903,-2.848202 0.583846,-0.287276 0.682719,-0.432601 0.492683,-0.724219 -0.723366,-1.110014 -0.287861,-2.7333947 0.949628,-3.5398101 1.371741,-0.8939188 3.586862,-0.026497 4.867154,1.9058971 0.457629,0.690335 0.462151,0.675973 0.307208,-0.9477427 C 23.44236,7.5267025 23.84088,6.4511485 25.014551,5.6846972 25.6628,5.2615311 26.080105,5.1860938 26.898396,5.3446284 c 0.934143,0.1814969 1.111173,0.3132222 1.59039,1.1885398 0.395119,0.7217647 0.612012,0.9374518 0.811838,0.8072226 0.5608,-0.3654467 2.024314,-0.3748731 2.572594,-0.016543 1.539291,1.0059268 1.968019,2.9169842 0.961038,4.2839882 -0.960689,1.304173 -0.351593,1.173405 1.715536,-0.368357 3.194471,-2.3825803 5.372158,-4.6536638 7.163072,-7.4702871 0.744133,-1.1703462 0.870076,-1.2797795 1.346839,-1.1704484 0.476776,0.1093122 0.50037,0.1815707 0.252409,0.7730701 z"
       id="path908-6" />
    <path
       style="fill:#90e498;fill-opacity:1;stroke:#008000;stroke-width:0.25489"
       d="m 58.100443,7.9034995 c 0.750499,0.7184187 3.539674,2.2393565 5.911519,3.2235305 1.361526,0.564959 3.188803,1.066239 5.620443,1.541919 l 3.603019,0.704809 -0.949416,0.374548 c -0.52222,0.205944 -1.253335,0.747738 -1.624735,1.203951 -0.604637,0.742681 -0.662214,0.938568 -0.550099,1.872348 0.166802,1.389054 1.262827,2.490368 2.493802,2.506144 0.811601,0.01021 0.875195,0.06275 0.744257,0.613493 -0.206254,0.867602 0.46463,2.001749 1.496326,2.529553 1.828572,0.935489 3.890793,-0.124398 4.80042,-2.467241 0.240026,-0.618235 0.536621,-1.104893 0.65905,-1.081401 0.122455,0.02352 0.187494,0.190383 0.144604,0.370959 -0.142785,0.600572 0.974903,2.649721 1.752035,3.212133 1.70937,1.237111 4.078873,0.355649 4.567334,-1.699116 0.238531,-1.003342 0.28902,-1.048074 1.17002,-1.036919 1.295839,0.01646 2.197905,-0.768022 2.540566,-2.209405 0.241808,-1.017156 0.188815,-1.268773 -0.435754,-2.069554 -0.740993,-0.950104 -1.978919,-1.683275 -3.285047,-1.945693 -0.759468,-0.152307 -0.756777,-0.155487 0.362555,-0.40108 2.764285,-0.606642 4.255417,-2.098056 3.917489,-3.9182338 C 90.824268,8.0724931 89.778022,7.1762311 88.528736,7.078093 87.822659,7.023057 87.665773,6.9231462 87.746745,6.5825853 88.054925,5.2862493 86.983702,3.9326673 85.410901,3.6310664 83.667449,3.2967242 81.745248,4.9088474 81.187313,7.1732102 80.987736,7.9822466 80.977583,7.9704957 80.507958,6.4022045 79.955679,4.5578834 79.133875,3.7009913 77.641548,3.413446 76.817365,3.2547806 76.362962,3.335725 75.590277,3.7808347 c -0.881872,0.5082166 -1.011365,0.6951511 -1.16145,1.6842793 -0.1237,0.8155814 -0.26139,1.0952065 -0.515368,1.0464862 -0.712766,-0.1367081 -2.207883,0.3859813 -2.628153,0.9187299 -1.17995,1.4956904 -0.878285,3.4309819 0.676253,4.3383229 1.483084,0.865622 0.811813,0.965025 -1.890684,0.279914 C 65.894537,10.989811 62.797506,9.66568 59.883796,7.6931018 58.673127,6.8734493 58.502488,6.8172734 58.058849,7.0922046 c -0.443627,0.2749312 -0.439741,0.3507683 0.04161,0.8115552 z"
       id="path908-6-7-3"
       inkscape:transform-center-x="22.842199"
       inkscape:transform-center-y="-2.3151385" />
    <path
       style="fill:#74e481;fill-opacity:1;stroke:#008000;stroke-width:0.254712;stroke-miterlimit:4;stroke-dasharray:none"
       d="m 72.444489,7.1757852 c 0.750499,0.7184187 3.539674,2.2393562 5.911519,3.2235298 1.361526,0.56496 3.188803,1.06624 5.620443,1.541919 l 3.603018,0.70481 -0.949415,0.374548 c -0.52222,0.205944 -1.253323,0.747738 -1.624735,1.20395 -0.604637,0.742682 -0.662215,0.938568 -0.550099,1.872349 0.166802,1.389054 1.262827,2.490368 2.493801,2.506144 0.811601,0.01022 0.875196,0.06275 0.744258,0.613493 -0.206255,0.867601 0.46463,2.001749 1.496325,2.529551 1.828573,0.935491 3.890794,-0.124398 4.800421,-2.467239 0.240026,-0.618235 0.53662,-1.104893 0.65905,-1.081401 0.122455,0.02352 0.187494,0.190382 0.144603,0.370959 -0.142784,0.600572 0.974891,2.649721 1.752023,3.212133 1.709382,1.23711 4.078889,0.355649 4.567359,-1.699116 0.23852,-1.003342 0.28901,-1.048075 1.17001,-1.036919 1.29584,0.01646 2.19792,-0.768022 2.54056,-2.209406 0.2418,-1.017155 0.18882,-1.268773 -0.43576,-2.069554 -0.74098,-0.950103 -1.97891,-1.683275 -3.28504,-1.945693 -0.75947,-0.152307 -0.75677,-0.155486 0.36256,-0.401079 2.76428,-0.606643 4.2554,-2.098056 3.91747,-3.9182341 C 105.16831,7.3447788 104.12207,6.4485168 102.87278,6.3503787 102.1667,6.2953427 102.00982,6.1954319 102.09079,5.854871 102.39897,4.558535 101.32775,3.204953 99.754947,2.9033521 98.011494,2.56901 96.089281,4.1811331 95.531359,6.4454959 95.331781,7.2545323 95.321629,7.2427814 94.852003,5.6744902 94.299724,3.8301691 93.477908,2.973277 91.985593,2.6857316 91.16141,2.5270661 90.707008,2.6080106 89.934323,3.0531204 89.05245,3.561337 88.922957,3.7482715 88.772872,4.7373997 c -0.1237,0.8155814 -0.26139,1.0952065 -0.515368,1.0464862 -0.712765,-0.1367082 -2.207883,0.3859812 -2.628153,0.9187299 -1.179949,1.4956891 -0.878285,3.4309812 0.676254,4.3383232 1.483084,0.865622 0.811813,0.965024 -1.890685,0.279914 C 80.238582,10.262096 77.141552,8.9379657 74.227842,6.9653874 73.017173,6.145735 72.846534,6.0895591 72.402894,6.3644903 c -0.443627,0.2749311 -0.43974,0.3507683 0.04148,0.8115552 z"
       id="path908-6-7-3-2"
       inkscape:transform-center-x="22.842213"
       inkscape:transform-center-y="-2.3151387" />
    <path
       style="fill:#7ee487;fill-opacity:1;stroke:#008000;stroke-width:0.244214"
       d="m 36.1819,16.58313 c 0.746102,-0.665895 3.424009,-1.994925 5.675691,-2.816808 1.292563,-0.471784 3.006031,-0.848786 5.270432,-1.159619 L 50.48323,12.146147 49.645406,11.708852 C 49.184551,11.46839 48.560294,10.879011 48.258131,10.399148 47.766195,9.6179626 47.729695,9.4187764 47.909428,8.4952219 c 0.26737,-1.3738462 1.36129,-2.3982919 2.489018,-2.331267 0.74351,0.044348 0.806046,-0.00374 0.731713,-0.5616867 -0.117098,-0.8789614 0.590536,-1.9647415 1.578195,-2.4216704 1.750541,-0.8098543 3.550038,0.3856374 4.188857,2.7828505 0.168572,0.6325971 0.399766,1.1377828 0.513737,1.1226024 0.113984,-0.015148 0.187294,-0.177239 0.162965,-0.3601673 -0.0811,-0.6084463 1.110999,-2.5765425 1.868573,-3.0850929 1.666392,-1.1186141 3.761811,-0.080411 4.039035,2.0012648 0.135385,1.016488 0.177889,1.064492 0.984981,1.1125906 1.187124,0.070745 1.947776,0.91357 2.142246,2.3738333 0.137241,1.0304778 0.06802,1.2778088 -0.56972,2.0342938 -0.756528,0.897544 -1.949868,1.545378 -3.166741,1.719233 -0.707534,0.100804 -0.705341,0.104168 0.298625,0.424309 2.479376,0.790714 3.72064,2.378072 3.261055,4.170288 -0.291811,1.137986 -1.323233,1.96132 -2.474518,1.9752 -0.650654,0.0075 -0.802457,0.09648 -0.756503,0.441506 0.174925,1.313311 -0.917139,2.590981 -2.381263,2.785965 -1.622978,0.216171 -3.248734,-1.52052 -3.572224,-3.815867 -0.115728,-0.820117 -0.126042,-0.809091 -0.685347,0.723104 -0.65773,1.801885 -1.480518,2.601039 -2.869836,2.787434 -0.767291,0.102809 -1.176411,-0.0083 -1.846698,-0.504218 -0.764961,-0.566038 -0.86802,-0.761143 -0.923654,-1.757504 -0.04584,-0.821559 -0.148714,-1.109625 -0.38514,-1.07813 -0.66351,0.08841 -1.988461,-0.533287 -2.32903,-1.092771 -0.956155,-1.570691 -0.520239,-3.48012 0.977208,-4.280325 1.428633,-0.763429 0.822576,-0.907676 -1.706965,-0.406219 -3.909068,0.774928 -6.852426,1.887026 -9.681601,3.658047 -1.175552,0.735885 -1.336338,0.780432 -1.719572,0.47646 -0.383235,-0.303944 -0.373431,-0.379316 0.105014,-0.806415 z"
       id="path908-6-7" />
    <path
       style="opacity:1;fill:#96d490;fill-opacity:1;stroke:#008000;stroke-width:0.321643;stroke-miterlimit:4;stroke-dasharray:none"
       d="m 13.416253,21.395367 c 0.56146,-1.122509 1.147137,-1.953512 2.160907,-3.066017 0.453755,-0.497963 0.80328,-0.904358 0.776696,-0.903114 -0.02666,9.31e-4 -0.22489,0.08181 -0.4407,0.179303 -1.164539,0.525358 -2.039299,0.781855 -2.773204,0.813164 -0.803355,0.03431 -1.438674,-0.236567 -1.823503,-0.777337 -0.538713,-0.756987 -0.574104,-1.763174 -0.08919,-2.536496 0.167563,-0.267196 0.440252,-0.505482 0.882222,-0.770828 0.07798,-0.04677 0.07798,-0.104243 8.09e-4,-0.346028 -0.267693,-0.838551 0.03114,-1.794474 0.727503,-2.325819 0.942901,-0.719617 1.996808,-0.544749 2.847363,0.472436 0.504343,0.603155 1.283805,2.152214 1.620923,3.221355 0.0497,0.157651 0.102024,0.272206 0.115977,0.254655 0.0147,-0.01831 -0.0075,-0.24575 -0.04858,-0.507146 -0.114357,-0.730801 -0.183856,-2.138801 -0.132694,-2.681794 0.180954,-1.917182 1.016523,-2.8379385 2.363349,-2.6040215 0.472466,0.082081 0.892985,0.2891445 1.254244,0.6176025 0.368498,0.33504 0.570517,0.681448 0.689446,1.182189 0.04858,0.204923 0.0938,0.377495 0.100156,0.3835 0.005,0.0056 0.163514,0.0316 0.348828,0.05671 0.343097,0.04658 0.777356,0.221459 1.087928,0.437872 0.491562,0.342532 0.896945,1.110563 0.937357,1.775855 0.09879,1.627574 -1.69847,2.462852 -4.883411,2.269531 -0.385825,-0.02352 -0.715133,-0.03012 -0.731775,-0.01469 -0.01657,0.01469 0.100779,0.05819 0.260605,0.09544 1.078635,0.251264 2.681507,0.911423 3.311033,1.363686 1.087829,0.781502 1.342853,1.817278 0.697755,2.833951 -0.464705,0.7324 -1.391884,1.108333 -2.238939,0.907789 -0.245632,-0.05819 -0.302437,-0.05335 -0.342499,0.02845 -0.228067,0.466318 -0.44121,0.757442 -0.694553,0.948645 -0.53824,0.406246 -1.284416,0.549619 -1.919847,0.368923 -1.209199,-0.343816 -1.700799,-1.324336 -1.458805,-2.909575 0.06465,-0.422804 0.378339,-1.578769 0.591283,-2.178085 0.115105,-0.323941 0.0426,-0.253727 -0.44724,0.432694 -0.720078,1.009237 -1.349492,2.175446 -1.755722,3.253091 l -0.182972,0.485256 -0.462724,-0.18819 C 13.50977,21.864811 13.2896,21.76903 13.275013,21.755448 c -0.0147,-0.01283 0.04883,-0.175444 0.141128,-0.359757 z"
       id="path1503-62-3-6-8-0" />
    <path
       style="fill:#96d490;fill-opacity:1;stroke:#008000;stroke-width:0.321643;stroke-miterlimit:4;stroke-dasharray:none"
       d="m 42.023285,18.02996 c -1.022901,-0.727277 -1.754041,-1.433703 -2.697552,-2.606383 -0.422325,-0.524884 -0.770181,-0.932701 -0.773034,-0.906255 -0.0037,0.0264 0.04622,0.234791 0.109499,0.463018 0.34017,1.23144 0.459199,2.135231 0.377367,2.865224 -0.08957,0.799098 -0.454826,1.385233 -1.048313,1.682401 -0.830786,0.415998 -1.830454,0.296349 -2.520074,-0.301638 -0.238282,-0.206625 -0.43183,-0.512697 -0.626113,-0.99019 -0.03426,-0.08422 -0.09094,-0.09309 -0.341789,-0.05401 -0.869727,0.135657 -1.768367,-0.306575 -2.186407,-1.076261 -0.566182,-1.042283 -0.231443,-2.056799 0.904358,-2.740943 0.6735,-0.405671 2.323934,-0.937843 3.43218,-1.106668 0.163426,-0.02491 0.28466,-0.05903 0.26945,-0.07548 -0.01582,-0.01729 -0.24395,-0.0305 -0.508592,-0.02984 -0.739685,6.82e-4 -2.141648,-0.146986 -2.670333,-0.280989 -1.866604,-0.473411 -2.648022,-1.440546 -2.209926,-2.735412 0.15371,-0.454243 0.422923,-0.8379657 0.802994,-1.1444473 0.387694,-0.3126455 0.761025,-0.4590305 1.274101,-0.4995987 0.209954,-0.016543 0.38742,-0.034668 0.394334,-0.040063 0.0062,-0.00461 0.05643,-0.156722 0.109623,-0.3359691 0.09879,-0.3318695 0.338289,-0.7340912 0.599854,-1.0077306 0.413991,-0.4330757 1.235197,-0.7156295 1.898794,-0.6533359 1.623414,0.1525389 2.172616,2.0567531 1.492177,5.1741596 -0.08259,0.377634 -0.139658,0.702002 -0.126964,0.720827 0.01246,0.01859 0.073,-0.09064 0.134339,-0.242851 0.414028,-1.027205 1.312656,-2.5095924 1.856277,-3.0621505 0.939388,-0.9548172 2.002052,-1.0476473 2.907519,-0.2539968 0.652298,0.5717273 0.881287,1.5456753 0.552964,2.3518483 -0.0953,0.233778 -0.09916,0.290641 -0.02454,0.342801 0.425738,0.297019 0.68065,0.552364 0.830648,0.832072 0.318718,0.594279 0.345726,1.353619 0.06951,1.953745 -0.525533,1.141993 -1.56996,1.477098 -3.099185,0.994381 -0.40785,-0.128806 -1.501882,-0.61645 -2.061349,-0.918953 -0.302412,-0.163481 -0.244174,-0.08106 0.358831,0.508411 0.886594,0.866606 1.942232,1.667751 2.944653,2.234754 l 0.451376,0.255372 -0.257055,0.428307 c -0.141377,0.235562 -0.269861,0.438402 -0.28552,0.450738 -0.01495,0.01254 -0.165868,-0.0752 -0.333804,-0.194734 z"
       id="path1503-62-3-6-8-0-3" />
    <path
       style="fill:#96d490;fill-opacity:1;stroke:#008000;stroke-width:0.361505;stroke-miterlimit:4;stroke-dasharray:none"
       d="m 39.429626,21.261625 c 0.703847,-1.222507 1.41569,-2.116333 2.626372,-3.297834 0.541889,-0.528844 0.960801,-0.961817 0.930904,-0.962171 -0.0299,-6.96e-4 -0.257715,0.07697 -0.506262,0.172173 -1.341208,0.512798 -2.339581,0.742997 -3.165072,0.729824 -0.903636,-0.01441 -1.598625,-0.360138 -1.994802,-0.992206 -0.554621,-0.884808 -0.528087,-2.016083 0.0669,-2.851827 0.205582,-0.288763 0.52724,-0.538168 1.04059,-0.806796 0.09056,-0.04731 0.09443,-0.111816 0.02367,-0.388193 -0.245158,-0.958471 0.153125,-2.011353 0.96936,-2.56168 1.105306,-0.7453388 2.276273,-0.4797693 3.163639,0.717498 0.526169,0.70994 1.298754,2.499293 1.606635,3.721056 0.04547,0.180167 0.09654,0.312144 0.113361,0.293366 0.01769,-0.01952 0.0075,-0.276215 -0.02118,-0.572211 -0.08022,-0.827488 -0.06553,-2.411844 0.02766,-3.017716 0.329232,-2.1391623 1.327355,-3.1172571 2.823071,-2.7661449 0.524711,0.123202 0.982913,0.383202 1.366608,0.7755052 0.391419,0.4001775 0.595269,0.8021487 0.695749,1.3718107 0.04098,0.233127 0.08035,0.42972 0.0872,0.436888 0.0062,0.0065 0.18139,0.0462 0.387657,0.08664 0.381889,0.07483 0.857606,0.29964 1.191846,0.562895 0.528959,0.416687 0.933258,1.305102 0.934816,2.054215 0.0037,1.832635 -2.067814,2.651517 -5.628591,2.224967 -0.431356,-0.05187 -0.800389,-0.08087 -0.820084,-0.0647 -0.01956,0.01533 0.10925,0.07185 0.286118,0.124236 1.193689,0.352915 2.948652,1.199126 3.625217,1.748003 1.169099,0.948449 1.387051,2.127386 0.59634,3.225632 -0.569607,0.79116 -1.634663,1.151922 -2.571858,0.871152 -0.27178,-0.08153 -0.335822,-0.07976 -0.38615,0.0093 -0.286591,0.508198 -0.544904,0.820806 -0.841735,1.018663 -0.630648,0.420387 -1.477291,0.532126 -2.178359,0.287555 -1.334083,-0.465361 -1.821124,-1.597863 -1.445264,-3.360573 0.100281,-0.470139 0.528424,-1.746478 0.806793,-2.404891 0.150434,-0.355882 0.06453,-0.281876 -0.53028,0.456046 -0.874361,1.084962 -1.657323,2.352016 -2.184052,3.5344 L 40.289195,22.16892 39.78241,21.927307 c -0.278718,-0.132879 -0.519455,-0.254852 -0.534939,-0.271046 -0.0157,-0.01534 0.06627,-0.193637 0.182025,-0.394358 z"
       id="path1503-62-3-6-8-0-3-5"
       inkscape:transform-center-x="-0.92552747"
       inkscape:transform-center-y="0.47351247" />
    <path
       style="fill:#7ed475;fill-opacity:1;stroke:#008000;stroke-width:0.3554;stroke-miterlimit:4;stroke-dasharray:none"
       d="m 67.02832,20.478208 c -1.126583,-0.808748 -1.930872,-1.592992 -2.967488,-2.893482 -0.463995,-0.582092 -0.846307,-1.034458 -0.849596,-1.005249 -0.0037,0.02919 0.04995,0.259657 0.118593,0.512158 0.369656,1.362374 0.49662,2.361599 0.402518,3.167781 -0.103021,0.882503 -0.509551,1.52831 -1.166794,1.853672 -0.920067,0.455461 -2.02404,0.318222 -2.783009,-0.346009 -0.262237,-0.229501 -0.474559,-0.568667 -0.686817,-1.097242 -0.03737,-0.09324 -0.100032,-0.10332 -0.377392,-0.06145 -0.961661,0.14551 -1.952385,-0.347654 -2.410401,-1.200225 -0.620333,-1.154505 -0.24537,-2.273788 1.013073,-3.023999 0.7462,-0.444854 2.572518,-1.024548 3.797899,-1.205504 0.180705,-0.02668 0.314832,-0.06377 0.298114,-0.08208 -0.01732,-0.01925 -0.2694,-0.03495 -0.561809,-0.0356 -0.817319,-0.0027 -2.365653,-0.173204 -2.949138,-0.323931 -2.060078,-0.532497 -2.918643,-1.605058 -2.42804,-3.033593 0.172134,-0.501141 0.471532,-0.923769 0.893022,-1.260491 0.429949,-0.343508 0.843206,-0.5033628 1.410321,-0.545604 0.232079,-0.017191 0.428243,-0.03635 0.435929,-0.042292 0.0075,-0.00561 0.06303,-0.1728878 0.122828,-0.3706713 0.110745,-0.3661904 0.377479,-0.8094176 0.66787,-1.1104517 0.459622,-0.4764319 1.368427,-0.7845043 2.101349,-0.7123196 1.792994,0.176737 2.390219,2.2835308 1.622679,5.7246266 -0.09318,0.416845 -0.157858,0.774966 -0.143968,0.795827 0.01308,0.02054 0.08097,-0.09978 0.149661,-0.267661 0.462649,-1.132902 1.46304,-2.766323 2.066506,-3.374119 1.042758,-1.0502779 2.217413,-1.1475053 3.213892,-0.266007 0.71786,0.635014 0.965971,1.712317 0.599131,2.601439 -0.10651,0.257817 -0.111119,0.320639 -0.02878,0.378647 0.468903,0.330326 0.749278,0.613763 0.913614,0.923574 0.349176,0.658244 0.375187,1.497399 0.06702,2.159111 -0.586449,1.25918 -1.742157,1.62418 -3.429415,1.083103 -0.450005,-0.144368 -1.656376,-0.688698 -2.273034,-1.025765 -0.333318,-0.182156 -0.269388,-0.09083 0.393923,0.563574 0.975264,0.962013 2.137636,1.852538 3.242406,2.484094 l 0.497455,0.284441 -0.286205,0.471961 c -0.157397,0.259565 -0.300394,0.483042 -0.317759,0.496595 -0.01657,0.01376 -0.182885,-0.08385 -0.367837,-0.216849 z"
       id="path1503-62-3-6-8-0-3-5-5"
       inkscape:transform-center-x="-0.67846204"
       inkscape:transform-center-y="-0.98817751" />
    <path
       style="fill:#96d490;fill-opacity:1;stroke:#008000;stroke-width:0.3554;stroke-miterlimit:4;stroke-dasharray:none"
       d="m 69.982939,23.93719 c -0.243726,-1.36523 -0.273511,-2.488194 -0.109873,-4.14321 0.07325,-0.740774 0.114607,-1.331613 0.09181,-1.312966 -0.02292,0.01841 -0.145239,0.220959 -0.272066,0.449837 -0.684874,1.234369 -1.290532,2.039193 -1.920071,2.551508 -0.689122,0.560823 -1.430838,0.74032 -2.128842,0.515319 -0.977108,-0.314979 -1.67282,-1.183073 -1.753779,-2.188405 -0.02803,-0.347356 0.05631,-0.738516 0.272651,-1.265426 0.03824,-0.09287 2.87e-4,-0.143847 -0.22768,-0.307171 -0.790848,-0.566185 -1.157215,-1.610458 -0.891116,-2.540967 0.36025,-1.260127 1.409424,-1.801065 2.834606,-1.461461 0.845099,0.201371 2.55848,1.059146 3.563068,1.783784 0.148142,0.10687 0.270161,0.173791 0.270945,0.149007 9.22e-4,-0.02594 -0.168758,-0.212889 -0.377915,-0.417227 -0.583958,-0.571846 -1.57508,-1.77353 -1.88828,-2.288392 -1.10553,-1.818059 -0.973184,-3.185529 0.374502,-3.8675435 0.472802,-0.2392337 0.982091,-0.333449 1.51901,-0.2809642 0.54772,0.053541 0.95542,0.2270568 1.391411,0.5921784 0.17835,0.1494803 0.332334,0.2725233 0.341989,0.2736103 0.0087,8.65e-4 0.165731,-0.07995 0.346523,-0.1800366 0.334725,-0.1852802 0.834933,-0.3170603 1.252998,-0.3304007 0.661666,-0.021103 1.527942,0.3917173 2.003011,0.9544643 1.162111,1.376803 0.121334,3.303476 -2.828066,5.235115 -0.357423,0.233861 -0.653482,0.445485 -0.658066,0.47012 -0.005,0.02389 0.127662,-0.01506 0.293904,-0.08747 1.121537,-0.489568 2.977528,-0.963017 3.833888,-0.977974 1.479783,-0.02585 2.389634,0.72341 2.489379,2.050088 0.07188,0.95572 -0.501391,1.900981 -1.384273,2.282593 -0.256095,0.110583 -0.303171,0.152428 -0.284647,0.251356 0.105761,0.563722 0.10925,0.962394 0.01121,1.299061 -0.208634,0.715321 -0.775064,1.335007 -1.457359,1.594487 -1.298318,0.49377 -2.381276,-0.05039 -3.213569,-1.614615 -0.221938,-0.417243 -0.707209,-1.648553 -0.914261,-2.320129 -0.11199,-0.362973 -0.129792,-0.252918 -0.110496,0.678659 0.0284,1.369599 0.240774,2.818409 0.592404,4.041408 l 0.158282,0.550735 -0.534216,0.13879 c -0.293817,0.07633 -0.55213,0.136829 -0.57403,0.13444 -0.02143,-0.0019 -0.07263,-0.187613 -0.112488,-0.411917 z"
       id="path1503-62-3-6-8-0-3-5-5-6"
       inkscape:transform-center-x="1.2149115"
       inkscape:transform-center-y="-6.8519421" />
    <path
       style="fill:#90e498;fill-opacity:1;stroke:#008000;stroke-width:0.244214"
       d="m 131.56091,21.582282 c -0.99437,0.106223 -3.94502,-0.37464 -6.25373,-1.019192 -1.32528,-0.370001 -2.93736,-1.062344 -4.95853,-2.129578 l -2.99481,-1.581335 0.42595,0.843645 c 0.23434,0.464005 0.39806,1.306766 0.36392,1.872813 -0.0556,0.921491 -0.142,1.104623 -0.82635,1.750328 -1.01801,0.960525 -2.50401,1.15538 -3.3813,0.443627 -0.57835,-0.469359 -0.65714,-0.466803 -0.92197,0.02993 -0.41717,0.782448 -1.62499,1.252318 -2.69388,1.047953 -1.89447,-0.36223 -2.65991,-2.382497 -1.78179,-4.702766 0.23174,-0.612285 0.3383,-1.157536 0.23686,-1.21163 -0.1014,-0.0541 -0.25551,0.03486 -0.34235,0.19769 -0.28878,0.541644 -2.40451,1.446114 -3.31651,1.417789 -2.00605,-0.06229 -3.10361,-2.127246 -2.11563,-3.980323 0.48246,-0.904888 0.47591,-0.968669 -0.15189,-1.478157 -0.9234,-0.749393 -1.05022,-1.877628 -0.35716,-3.1775431 0.48908,-0.9173359 0.68953,-1.0779433 1.64863,-1.3209702 1.13787,-0.2883825 2.48514,-0.1192531 3.57527,0.4487208 0.63369,0.3304755 0.63386,0.326468 0.005,-0.5188414 -1.55382,-2.0876171 -1.63726,-4.100948 -0.21921,-5.2893944 0.90038,-0.7546263 2.21838,-0.8224875 3.16198,-0.1627463 0.53329,0.3728276 0.70829,0.3893197 0.87204,0.08218 0.62334,-1.169129 2.25541,-1.5708304 3.55879,-0.8759126 1.44477,0.7703001 1.75365,3.1290453 0.67863,5.1827687 -0.38392,0.7338956 -0.36916,0.7309208 0.97837,-0.1881341 1.58468,-1.0808159 2.71905,-1.2506267 3.95662,-0.5923266 0.6834,0.3636715 0.95079,0.6928079 1.20671,1.4860597 0.29169,0.905808 0.2617,1.1244237 -0.27383,1.9664705 -0.4416,0.694295 -0.52588,0.98833 -0.31541,1.100542 0.59065,0.314923 1.30496,1.592314 1.25563,2.245418 -0.13852,1.833611 -1.60566,3.131109 -3.28886,2.908552 -1.60584,-0.212323 -1.19744,0.258114 1.15029,1.324986 3.62811,1.648703 6.668,2.460566 9.99917,2.670451 1.38414,0.0872 1.54075,0.144722 1.675,0.615084 0.13426,0.470353 0.0824,0.525887 -0.55539,0.594047 z"
       id="path908-1" />
    <path
       style="fill:#96d490;fill-opacity:1;stroke:#008000;stroke-width:0.3554;stroke-miterlimit:4;stroke-dasharray:none"
       d="m 103.64934,21.038621 c -0.24373,-1.365229 -0.2735,-2.488193 -0.10987,-4.143208 0.0733,-0.740775 0.1146,-1.331615 0.0918,-1.312966 -0.0229,0.0184 -0.14523,0.220958 -0.27206,0.449836 -0.68487,1.234368 -1.29053,2.039193 -1.92007,2.551508 -0.68913,0.560822 -1.43085,0.74032 -2.128852,0.515319 -0.977108,-0.314979 -1.672807,-1.183073 -1.753779,-2.188405 -0.02803,-0.347357 0.05631,-0.738516 0.272664,-1.265426 0.03824,-0.09287 2.86e-4,-0.143848 -0.227693,-0.307171 -0.790836,-0.566185 -1.157203,-1.610459 -0.891104,-2.540967 0.360238,-1.260126 1.409424,-1.801064 2.834607,-1.461461 0.845087,0.201371 2.558467,1.059147 3.563067,1.783785 0.14814,0.10687 0.27015,0.173789 0.27093,0.149006 9.4e-4,-0.02594 -0.16874,-0.212889 -0.37791,-0.417225 -0.58396,-0.571849 -1.57508,-1.773532 -1.88827,-2.288395 -1.10553,-1.8180584 -0.97318,-3.1855277 0.3745,-3.8675427 0.4728,-0.2392337 0.98209,-0.333449 1.519,-0.2809642 0.54772,0.053541 0.95542,0.2270568 1.39141,0.5921784 0.17836,0.1494806 0.33235,0.2725232 0.34199,0.2736107 0.009,8.645e-4 0.16573,-0.079951 0.34653,-0.180037 0.33473,-0.1852789 0.83494,-0.3170603 1.25299,-0.3304007 0.66167,-0.021103 1.52794,0.3917177 2.00301,0.9544646 1.16211,1.3768023 0.12134,3.3034759 -2.82806,5.2351149 -0.35743,0.233861 -0.65347,0.445485 -0.65807,0.47012 -0.005,0.02389 0.12766,-0.01506 0.29392,-0.08747 1.12152,-0.489567 2.97751,-0.963016 3.83387,-0.977973 1.47978,-0.02585 2.38965,0.72341 2.48939,2.050088 0.0719,0.955718 -0.50139,1.90098 -1.38428,2.282592 -0.25609,0.110583 -0.30316,0.152428 -0.28465,0.251356 0.10589,0.563723 0.10925,0.962394 0.0112,1.29906 -0.20862,0.715322 -0.77505,1.335007 -1.45734,1.594489 -1.29834,0.493769 -2.38128,-0.05039 -3.21357,-1.614615 -0.22194,-0.417245 -0.70723,-1.648554 -0.91426,-2.32013 -0.112,-0.362974 -0.1298,-0.252918 -0.11062,0.678659 0.0284,1.369599 0.24077,2.818409 0.5924,4.041408 l 0.15828,0.550735 -0.53422,0.13879 c -0.2938,0.07633 -0.55211,0.136829 -0.57401,0.13444 -0.0214,-0.0019 -0.0726,-0.187612 -0.11249,-0.411917 z"
       id="path1503-62-3-6-8-0-3-5-5-6-9"
       inkscape:transform-center-x="1.2149184"
       inkscape:transform-center-y="-6.8519446" />
    <path
       style="fill:#bae4bd;fill-opacity:1;stroke:#008000;stroke-width:0.244214"
       d="m 145.62892,3.113406 c -0.38666,0.9222527 -2.23137,3.2748352 -3.90974,4.9861567 -0.96346,0.9823613 -2.34762,2.0604163 -4.25752,3.3159613 l -2.82995,1.860365 0.94448,0.03393 c 0.51947,0.01859 1.33667,0.281745 1.81602,0.58474 0.78035,0.493241 0.89906,0.657298 1.1345,1.568246 0.35024,1.355096 -0.19596,2.750732 -1.24266,3.175814 -0.69014,0.280154 -0.72591,0.350396 -0.41856,0.822022 0.48411,0.742904 0.31299,2.027555 -0.38168,2.865224 -1.23125,1.484673 -3.37014,1.180516 -4.97891,-0.708026 -0.42453,-0.498379 -0.85071,-0.854772 -0.94704,-0.792006 -0.0963,0.06275 -0.0928,0.240611 0.009,0.39524 0.33512,0.514269 0.10663,2.803841 -0.35811,3.589025 -1.02234,1.727124 -3.3606,1.692301 -4.50714,-0.06712 -0.55987,-0.859141 -0.6189,-0.884167 -1.36806,-0.580045 -1.10189,0.447307 -2.15133,0.01413 -2.95561,-1.2201 -0.56757,-0.870966 -0.61156,-1.124023 -0.36174,-2.081369 0.29636,-1.13583 1.09446,-2.234355 2.11789,-2.915235 0.59519,-0.395632 0.59176,-0.397713 -0.45222,-0.254378 -2.57824,0.35391 -4.38203,-0.544294 -4.73892,-2.359749 -0.22662,-1.15274 0.34978,-2.339959 1.38289,-2.848211 0.58386,-0.287277 0.68272,-0.432603 0.49269,-0.724211 -0.72336,-1.110024 -0.28787,-2.7333947 0.94964,-3.5398101 1.37172,-0.8939275 3.58685,-0.026497 4.86714,1.9058881 0.45764,0.690344 0.46215,0.675972 0.30721,-0.9477336 -0.18223,-1.9095036 0.21629,-2.9850588 1.38998,-3.7515089 0.64823,-0.4231661 1.06554,-0.4986046 1.88383,-0.3400688 0.93415,0.1814957 1.11118,0.313221 1.5904,1.1885386 0.39511,0.7217647 0.612,0.9374518 0.81184,0.8072238 0.56079,-0.3654467 2.0243,-0.3748731 2.57258,-0.016543 1.53929,1.0059268 1.96802,2.9169825 0.96104,4.2839869 -0.96068,1.304173 -0.35158,1.173406 1.71555,-0.368355 3.19447,-2.3825822 5.37214,-4.6536658 7.16306,-7.470289 0.74414,-1.1703458 0.87009,-1.2797791 1.34685,-1.1704481 0.47676,0.1093122 0.50037,0.1815707 0.25241,0.7730697 z"
       id="path908-6-2" />
    <path
       style="fill:#90e498;fill-opacity:1;stroke:#008000;stroke-width:0.25489"
       d="m 160.41689,7.6453195 c 0.7505,0.7184188 3.53966,2.2393563 5.91151,3.2235405 1.36153,0.564959 3.1888,1.066239 5.62045,1.541919 l 3.60302,0.704809 -0.94942,0.374547 c -0.52223,0.205945 -1.25333,0.747738 -1.62473,1.203952 -0.60464,0.742681 -0.66223,0.938558 -0.5501,1.872348 0.16679,1.389046 1.26281,2.490359 2.4938,2.506143 0.8116,0.01022 0.8752,0.06275 0.74425,0.613494 -0.20625,0.867602 0.46464,2.001749 1.49632,2.529551 1.82859,0.935491 3.8908,-0.124398 4.80042,-2.46724 0.24004,-0.618234 0.53662,-1.104892 0.65905,-1.081401 0.12246,0.02352 0.1875,0.190384 0.14461,0.37096 -0.14278,0.600572 0.9749,2.649721 1.75203,3.212133 1.70937,1.237111 4.07887,0.355649 4.56735,-1.699116 0.23853,-1.003343 0.28902,-1.048076 1.17001,-1.03692 1.29585,0.01646 2.19791,-0.768022 2.54056,-2.209404 0.24182,-1.017157 0.18883,-1.268773 -0.43575,-2.069554 -0.741,-0.950105 -1.97891,-1.683275 -3.28505,-1.945695 -0.75946,-0.152305 -0.75678,-0.155484 0.36256,-0.401078 2.76428,-0.606642 4.25542,-2.098065 3.91748,-3.9182437 -0.21455,-1.1557512 -1.26079,-2.0520131 -2.51009,-2.1501512 -0.70606,-0.055036 -0.86295,-0.1549468 -0.78199,-0.4955077 0.30819,-1.2963361 -0.76304,-2.6499168 -2.33585,-2.951519 -1.74344,-0.3343322 -3.66564,1.277781 -4.22358,3.5421539 -0.19957,0.8090264 -0.20972,0.7972855 -0.67936,-0.771007 -0.55228,-1.8443198 -1.37408,-2.7012119 -2.8664,-2.9887573 -0.82419,-0.1586653 -1.27858,-0.077721 -2.05128,0.3673888 -0.88186,0.5082066 -1.01136,0.6951511 -1.16145,1.6842792 -0.1237,0.8155814 -0.26139,1.0952065 -0.51537,1.0464863 -0.71276,-0.1367082 -2.20788,0.3859812 -2.62815,0.9187298 -1.17994,1.4956892 -0.87829,3.4309809 0.67627,4.3383229 1.48308,0.865621 0.8118,0.965025 -1.89069,0.279914 -4.17635,-1.058756 -7.27337,-2.3828882 -10.18709,-4.3554652 -1.21066,-0.8196525 -1.3813,-0.8758284 -1.82494,-0.6008984 -0.44363,0.2749311 -0.43975,0.3507683 0.0416,0.8115565 z"
       id="path908-6-7-3-7"
       inkscape:transform-center-x="22.842208"
       inkscape:transform-center-y="-2.3151383" />
    <path
       style="fill:#74e481;fill-opacity:1;stroke:#008000;stroke-width:0.254712;stroke-miterlimit:4;stroke-dasharray:none"
       d="m 175.6654,7.0884114 c 0.7505,0.7184187 3.53967,2.2393562 5.91152,3.2235296 1.36153,0.56496 3.18881,1.06625 5.62045,1.54192 l 3.60303,0.704819 -0.94943,0.374538 c -0.52222,0.205944 -1.25332,0.747738 -1.62474,1.203952 -0.60463,0.742689 -0.66221,0.938567 -0.55009,1.872347 0.1668,1.389054 1.26282,2.490368 2.49381,2.506144 0.81159,0.01022 0.8752,0.06275 0.74424,0.613493 -0.20625,0.867601 0.46465,2.001759 1.49633,2.529561 1.82859,0.935481 3.89079,-0.124398 4.80042,-2.46724 0.24003,-0.618234 0.53662,-1.104892 0.65905,-1.081401 0.12246,0.02352 0.18749,0.190383 0.1446,0.370959 -0.14277,0.600572 0.9749,2.649722 1.75203,3.212134 1.70938,1.23711 4.07888,0.355639 4.56736,-1.699116 0.23853,-1.003343 0.289,-1.048076 1.17,-1.03692 1.29584,0.01646 2.19792,-0.768023 2.54057,-2.209404 0.24181,-1.017157 0.18881,-1.268774 -0.43575,-2.069554 -0.741,-0.950114 -1.97892,-1.683286 -3.28505,-1.945695 -0.75946,-0.152306 -0.75678,-0.155486 0.36255,-0.401088 2.76429,-0.606642 4.25542,-2.098056 3.91748,-3.9182339 -0.21455,-1.1557511 -1.2608,-2.0520131 -2.51008,-2.1501512 -0.70608,-0.055036 -0.86297,-0.1549468 -0.78199,-0.4955077 0.30818,-1.296336 -0.76305,-2.6499168 -2.33585,-2.9515189 -1.74345,-0.334342 -3.66565,1.277781 -4.22359,3.5421438 -0.19957,0.8090364 -0.20973,0.7972955 -0.67935,-0.770997 -0.55228,-1.8443298 -1.3741,-2.7012119 -2.86641,-2.9887582 -0.82418,-0.1586745 -1.27857,-0.077716 -2.05127,0.367381 -0.88186,0.5082153 -1.01137,0.6951586 -1.16145,1.6842879 -0.1237,0.8155802 -0.26139,1.0952065 -0.51537,1.046485 -0.71277,-0.1367169 -2.20788,0.3859825 -2.62815,0.9187299 -1.17994,1.4956904 -0.87829,3.4309813 0.67626,4.3383243 1.48309,0.865621 0.8118,0.965023 -1.89068,0.279913 -4.17635,-1.058756 -7.27337,-2.3828873 -10.18709,-4.3554656 -1.21067,-0.8196525 -1.3813,-0.8758284 -1.82494,-0.6008972 -0.44364,0.2749312 -0.43975,0.3507683 0.0416,0.8115552 z"
       id="path908-6-7-3-2-0"
       inkscape:transform-center-x="22.842206"
       inkscape:transform-center-y="-2.315138" />
    <path
       style="fill:#7ee487;fill-opacity:1;stroke:#008000;stroke-width:0.244214"
       d="m 138.49835,16.32495 c 0.74609,-0.665895 3.424,-1.994925 5.67569,-2.816808 1.29256,-0.471784 3.00603,-0.848786 5.27043,-1.159619 l 3.35519,-0.460554 -0.83782,-0.437297 c -0.46086,-0.240461 -1.0851,-0.829841 -1.38728,-1.309704 -0.49192,-0.7811841 -0.52843,-0.9803715 -0.34869,-1.9039261 0.26737,-1.3738461 1.36129,-2.3982906 2.48901,-2.3312657 0.74351,0.044348 0.80605,-0.00374 0.73173,-0.5616867 -0.1171,-0.8789614 0.59053,-1.9647415 1.57819,-2.4216716 1.75054,-0.8098539 3.55004,0.3856386 4.18886,2.7828504 0.16857,0.6325971 0.39976,1.1377829 0.51372,1.1226025 0.11399,-0.015148 0.18731,-0.1772391 0.16298,-0.3601674 -0.0811,-0.608445 1.11099,-2.5765424 1.86857,-3.0850928 1.66638,-1.1186138 3.7618,-0.080412 4.03904,2.001266 0.13537,1.0164868 0.17787,1.064492 0.98497,1.1125894 1.18712,0.070745 1.94777,0.91357 2.14225,2.3738333 0.13723,1.0304774 0.0679,1.2778087 -0.56972,2.0342937 -0.75654,0.897545 -1.94986,1.545378 -3.16675,1.719233 -0.70753,0.100804 -0.70533,0.104168 0.29864,0.42431 2.47937,0.790713 3.72064,2.378071 3.26104,4.170287 -0.2918,1.137987 -1.32322,1.961321 -2.4745,1.9752 -0.65066,0.0075 -0.80246,0.09648 -0.75652,0.441506 0.17492,1.313311 -0.91713,2.590981 -2.38126,2.785965 -1.62297,0.216171 -3.24874,-1.520519 -3.57221,-3.815865 -0.11586,-0.820117 -0.12606,-0.809093 -0.68535,0.723102 -0.65773,1.801885 -1.48052,2.601039 -2.86985,2.787434 -0.76728,0.102809 -1.1764,-0.0083 -1.84669,-0.504218 -0.76497,-0.566037 -0.86803,-0.761143 -0.92366,-1.757504 -0.0458,-0.821559 -0.1487,-1.109625 -0.38514,-1.07813 -0.66351,0.08841 -1.98846,-0.533287 -2.32902,-1.09277 -0.95617,-1.570691 -0.52025,-3.48012 0.97721,-4.280326 1.42862,-0.763429 0.82257,-0.907676 -1.70697,-0.406219 -3.90907,0.77493 -6.85242,1.887027 -9.68161,3.658047 -1.17554,0.735885 -1.33633,0.780432 -1.71956,0.476461 -0.38325,-0.303945 -0.37343,-0.379317 0.10501,-0.806416 z"
       id="path908-6-7-9" />
    <path
       style="fill:#96d490;fill-opacity:1;stroke:#008000;stroke-width:0.321643;stroke-miterlimit:4;stroke-dasharray:none"
       d="m 115.73268,21.137188 c 0.56146,-1.122509 1.14714,-1.953513 2.16092,-3.066018 0.45375,-0.497962 0.80327,-0.904358 0.7767,-0.903113 -0.0265,9.3e-4 -0.22489,0.08181 -0.4407,0.179302 -1.16454,0.525358 -2.03931,0.781855 -2.7732,0.813164 -0.80337,0.03431 -1.43868,-0.236566 -1.82351,-0.777337 -0.53872,-0.756987 -0.5741,-1.763174 -0.0892,-2.536494 0.16756,-0.267198 0.44026,-0.505484 0.88222,-0.77082 0.078,-0.04677 0.078,-0.104243 8.1e-4,-0.346029 -0.26769,-0.838551 0.0313,-1.794483 0.72751,-2.325818 0.94289,-0.719617 1.9968,-0.54475 2.84734,0.472434 0.50436,0.603157 1.28382,2.152216 1.62094,3.221356 0.0497,0.157652 0.10202,0.272207 0.11597,0.254656 0.0147,-0.01831 -0.007,-0.245751 -0.0486,-0.507146 -0.11436,-0.730801 -0.18385,-2.138801 -0.13269,-2.681794 0.18096,-1.917182 1.01653,-2.8379385 2.36335,-2.6040215 0.47246,0.082081 0.89299,0.2891449 1.25424,0.6176025 0.3685,0.33504 0.57052,0.681448 0.68945,1.182189 0.0486,0.204923 0.0938,0.377495 0.10015,0.3835 0.005,0.0056 0.16353,0.0316 0.34883,0.0567 0.3431,0.04658 0.77736,0.221459 1.08794,0.437872 0.49155,0.342533 0.89694,1.110563 0.93735,1.775855 0.0988,1.627572 -1.69846,2.462852 -4.88342,2.269531 -0.38582,-0.02352 -0.71512,-0.03012 -0.73177,-0.01469 -0.0166,0.01469 0.10078,0.0582 0.26062,0.09544 1.07862,0.251264 2.68149,0.911424 3.31102,1.363686 1.08783,0.781501 1.34285,1.817278 0.69776,2.833951 -0.4647,0.7324 -1.39189,1.108332 -2.23895,0.907789 -0.24563,-0.0582 -0.30243,-0.05335 -0.3425,0.02844 -0.22806,0.466319 -0.44121,0.757443 -0.69454,0.948644 -0.53824,0.406248 -1.28441,0.549621 -1.91986,0.368924 -1.20918,-0.343815 -1.70079,-1.324335 -1.4588,-2.909574 0.0647,-0.422804 0.37834,-1.578769 0.59128,-2.178086 0.11511,-0.32394 0.0426,-0.253727 -0.44724,0.432695 -0.72006,1.009235 -1.34948,2.175446 -1.75572,3.253091 l -0.18297,0.485254 -0.46273,-0.188189 c -0.25448,-0.103507 -0.47467,-0.199289 -0.48925,-0.21287 -0.0147,-0.01283 0.0488,-0.175445 0.14112,-0.359758 z"
       id="path1503-62-3-6-8-0-36" />
    <path
       style="fill:#96d490;fill-opacity:1;stroke:#008000;stroke-width:0.321643;stroke-miterlimit:4;stroke-dasharray:none"
       d="m 144.33972,17.771781 c -1.0229,-0.727278 -1.75403,-1.433704 -2.69754,-2.606383 -0.42234,-0.524884 -0.77019,-0.932702 -0.77305,-0.906256 -0.002,0.0264 0.0463,0.234792 0.1095,0.46302 0.34016,1.23144 0.4592,2.135231 0.37736,2.865222 -0.0896,0.799098 -0.45483,1.385234 -1.0483,1.682401 -0.83079,0.415999 -1.83046,0.29635 -2.52009,-0.301638 -0.23827,-0.206624 -0.43183,-0.512697 -0.6261,-0.990189 -0.0343,-0.08422 -0.0911,-0.09309 -0.3418,-0.05401 -0.86973,0.135658 -1.76837,-0.306575 -2.1864,-1.076261 -0.56619,-1.042284 -0.23144,-2.0568 0.90436,-2.740944 0.67349,-0.405671 2.32393,-0.937841 3.43218,-1.106668 0.16341,-0.02492 0.28465,-0.05904 0.26945,-0.07548 -0.0158,-0.01729 -0.24396,-0.0305 -0.50859,-0.02985 -0.7397,6.89e-4 -2.14166,-0.146979 -2.67033,-0.280982 -1.86662,-0.473412 -2.64804,-1.440546 -2.20994,-2.7354131 0.15371,-0.4542431 0.42293,-0.8379659 0.80299,-1.1444475 0.38769,-0.3126454 0.76104,-0.4590304 1.2741,-0.4995987 0.20997,-0.016543 0.38742,-0.034668 0.39435,-0.040062 0.006,-0.00461 0.0563,-0.156722 0.10962,-0.3359692 0.0988,-0.3318694 0.33828,-0.7340911 0.59984,-1.0077293 0.41401,-0.4330757 1.23521,-0.7156295 1.89881,-0.6533371 1.62341,0.1525388 2.1726,2.0567543 1.49216,5.1741599 -0.0826,0.377635 -0.13964,0.702003 -0.12696,0.720827 0.0125,0.0186 0.073,-0.09064 0.13435,-0.24285 0.41403,-1.027206 1.31265,-2.5095938 1.85628,-3.0621519 0.93937,-0.9548172 2.00204,-1.0476472 2.90752,-0.2539955 0.65228,0.571726 0.88128,1.5456754 0.55295,2.3518474 -0.0953,0.233778 -0.0992,0.290641 -0.0245,0.342802 0.42574,0.297018 0.68065,0.552363 0.83065,0.832071 0.31872,0.594279 0.34572,1.353618 0.0695,1.953744 -0.52555,1.141994 -1.56996,1.477098 -3.09919,0.994382 -0.40785,-0.128807 -1.50188,-0.61645 -2.06136,-0.918953 -0.3024,-0.16348 -0.24416,-0.08106 0.35883,0.508411 0.88661,0.866607 1.94225,1.66775 2.94467,2.234754 l 0.45137,0.255372 -0.25705,0.428307 c -0.14139,0.235563 -0.26986,0.438403 -0.28553,0.450738 -0.0149,0.01256 -0.16586,-0.0752 -0.3338,-0.194734 z"
       id="path1503-62-3-6-8-0-3-0" />
    <path
       style="fill:#96d490;fill-opacity:1;stroke:#008000;stroke-width:0.361505;stroke-miterlimit:4;stroke-dasharray:none"
       d="m 141.74607,21.003445 c 0.70384,-1.222506 1.41569,-2.116333 2.62636,-3.297834 0.54189,-0.528843 0.9608,-0.961817 0.93092,-0.96217 -0.0298,-6.97e-4 -0.25772,0.07697 -0.50628,0.172172 -1.34119,0.512799 -2.33957,0.742998 -3.16507,0.729824 -0.90363,-0.01441 -1.59861,-0.360138 -1.9948,-0.992205 -0.55461,-0.884808 -0.52808,-2.016084 0.0669,-2.851827 0.20559,-0.288764 0.52724,-0.538167 1.04059,-0.806797 0.0906,-0.04731 0.0944,-0.111816 0.0237,-0.388193 -0.24514,-0.958471 0.15314,-2.011352 0.96938,-2.561679 1.1053,-0.7453398 2.27627,-0.4797702 3.16364,0.717498 0.52616,0.709939 1.29875,2.499293 1.60663,3.721055 0.0455,0.180168 0.0967,0.312144 0.11336,0.293366 0.0177,-0.01952 0.007,-0.276215 -0.0212,-0.57221 -0.0802,-0.827489 -0.0655,-2.411845 0.0277,-3.017715 0.32923,-2.1391643 1.32734,-3.117259 2.82307,-2.7661469 0.52471,0.1232021 0.98293,0.3832033 1.36662,0.7755065 0.39141,0.4001762 0.59526,0.8021476 0.69574,1.3718094 0.0411,0.233127 0.0803,0.42972 0.0872,0.436888 0.005,0.0065 0.18139,0.0462 0.38764,0.08664 0.3819,0.07483 0.85762,0.29964 1.19185,0.562895 0.52897,0.416687 0.93326,1.305102 0.93481,2.054217 0.004,1.832635 -2.0678,2.651515 -5.62859,2.224965 -0.43135,-0.05187 -0.80037,-0.08087 -0.82007,-0.0647 -0.0196,0.01534 0.10925,0.07185 0.28611,0.124236 1.19369,0.352916 2.94865,1.199128 3.62521,1.748005 1.1691,0.948449 1.38707,2.127384 0.59634,3.22563 -0.5696,0.79116 -1.63466,1.151922 -2.57185,0.871153 -0.27177,-0.08152 -0.33581,-0.07976 -0.38615,0.0093 -0.28659,0.508197 -0.5449,0.820805 -0.84173,1.018662 -0.63066,0.420387 -1.47729,0.532126 -2.17837,0.287555 -1.33407,-0.465361 -1.82112,-1.597863 -1.44525,-3.360573 0.10028,-0.470139 0.52842,-1.746478 0.80679,-2.404891 0.15044,-0.35588 0.0645,-0.281874 -0.53028,0.456046 -0.87436,1.084963 -1.65732,2.352016 -2.18406,3.534401 l -0.23724,0.532413 -0.50678,-0.241614 c -0.27873,-0.132878 -0.51946,-0.254852 -0.53495,-0.271046 -0.0156,-0.01534 0.0664,-0.193637 0.18204,-0.394357 z"
       id="path1503-62-3-6-8-0-3-5-6"
       inkscape:transform-center-x="-0.92548897"
       inkscape:transform-center-y="0.47351208" />
    <path
       style="fill:#7ed475;fill-opacity:1;stroke:#008000;stroke-width:0.3554;stroke-miterlimit:4;stroke-dasharray:none"
       d="m 169.34475,20.220029 c -1.12657,-0.808749 -1.93087,-1.592993 -2.96748,-2.893483 -0.46399,-0.582092 -0.8463,-1.034456 -0.84959,-1.005248 -0.004,0.02919 0.05,0.259657 0.11859,0.512157 0.36967,1.362375 0.49662,2.361599 0.40252,3.167781 -0.10302,0.882503 -0.50954,1.52831 -1.16679,1.853673 -0.92006,0.45546 -2.02403,0.318223 -2.78301,-0.34601 -0.26222,-0.2295 -0.47455,-0.568667 -0.6868,-1.097242 -0.0374,-0.09324 -0.10004,-0.10332 -0.3774,-0.06145 -0.96167,0.145512 -1.95238,-0.347654 -2.4104,-1.200224 -0.62034,-1.154506 -0.24537,-2.273789 1.01306,-3.024 0.74622,-0.444854 2.57252,-1.024546 3.79791,-1.205504 0.18071,-0.02668 0.31484,-0.06377 0.29812,-0.08208 -0.0174,-0.01925 -0.26941,-0.03496 -0.56181,-0.0356 -0.81732,-0.0027 -2.36565,-0.173204 -2.94914,-0.32393 -2.06009,-0.532497 -2.91864,-1.605049 -2.42805,-3.033584 0.17213,-0.501142 0.47154,-0.923769 0.89303,-1.2605 0.42995,-0.3434983 0.84321,-0.503362 1.41031,-0.5455945 0.23209,-0.017203 0.42826,-0.03635 0.43593,-0.042292 0.007,-0.00561 0.063,-0.1728878 0.12295,-0.37068 0.11075,-0.3661904 0.37747,-0.8094176 0.66786,-1.1104429 0.45964,-0.4764332 1.36843,-0.7845044 2.10135,-0.7123197 1.79299,0.1767358 2.39022,2.2835308 1.62269,5.7246271 -0.0932,0.416844 -0.15786,0.774965 -0.14397,0.795826 0.0131,0.02054 0.0811,-0.09978 0.14966,-0.267662 0.46265,-1.132901 1.46304,-2.766322 2.0665,-3.374117 1.04277,-1.0502783 2.21741,-1.1475058 3.2139,-0.266007 0.71786,0.635014 0.96597,1.712316 0.59913,2.601438 -0.10651,0.257817 -0.11112,0.32064 -0.0288,0.378647 0.46891,0.330327 0.74929,0.613764 0.91362,0.923573 0.34917,0.658245 0.37518,1.497401 0.067,2.159113 -0.58643,1.25918 -1.74214,1.624181 -3.42941,1.083103 -0.45001,-0.144368 -1.65638,-0.6887 -2.27304,-1.025765 -0.33331,-0.182156 -0.26937,-0.09083 0.39394,0.563574 0.97525,0.962013 2.13764,1.852538 3.24241,2.484094 l 0.49744,0.284441 -0.28619,0.471961 c -0.15741,0.259564 -0.3004,0.483042 -0.31776,0.496595 -0.0166,0.01375 -0.18289,-0.08385 -0.36785,-0.216849 z"
       id="path1503-62-3-6-8-0-3-5-5-2"
       inkscape:transform-center-x="-0.67852352"
       inkscape:transform-center-y="-0.988177" />
    <path
       style="fill:#96d490;fill-opacity:1;stroke:#008000;stroke-width:0.3554;stroke-miterlimit:4;stroke-dasharray:none"
       d="m 172.29939,23.67901 c -0.24374,-1.365229 -0.27352,-2.488194 -0.10988,-4.143208 0.0732,-0.740776 0.11461,-1.331615 0.0918,-1.312967 -0.0229,0.01841 -0.14524,0.220958 -0.27205,0.449836 -0.68489,1.234377 -1.29055,2.039203 -1.92007,2.55151 -0.68914,0.560821 -1.43085,0.740319 -2.12886,0.515317 -0.9771,-0.314979 -1.67282,-1.183073 -1.75378,-2.188405 -0.028,-0.347356 0.0563,-0.738516 0.27267,-1.265426 0.0382,-0.09287 2.8e-4,-0.143847 -0.22771,-0.307169 -0.79083,-0.566187 -1.1572,-1.61046 -0.8911,-2.540967 0.36025,-1.260128 1.40942,-1.801066 2.83462,-1.461463 0.84508,0.201372 2.55846,1.059148 3.56305,1.783785 0.14814,0.106871 0.27016,0.17379 0.27095,0.149006 9.3e-4,-0.02594 -0.16876,-0.212889 -0.37792,-0.417225 -0.58395,-0.571848 -1.57508,-1.773532 -1.88826,-2.288393 -1.10553,-1.818059 -0.97319,-3.185528 0.3745,-3.8675431 0.4728,-0.239235 0.98209,-0.3334503 1.519,-0.2809643 0.54771,0.053541 0.95542,0.2270556 1.39141,0.5921771 0.17835,0.1494806 0.33233,0.2725232 0.34198,0.2736107 0.009,8.646e-4 0.16574,-0.079951 0.34654,-0.1800369 0.33471,-0.185279 0.83492,-0.3170603 1.25299,-0.3303995 0.66166,-0.021103 1.52794,0.3917165 2.00301,0.954463 1.1621,1.376803 0.12133,3.303477 -2.82807,5.235115 -0.35742,0.233861 -0.65347,0.445486 -0.65807,0.47012 -0.005,0.02389 0.12767,-0.01506 0.29392,-0.08747 1.12153,-0.489567 2.97752,-0.963015 3.83388,-0.977973 1.47978,-0.02585 2.38963,0.723411 2.48938,2.050089 0.0719,0.955718 -0.50138,1.900979 -1.38428,2.282591 -0.25609,0.110571 -0.30317,0.152428 -0.28464,0.251357 0.10588,0.563723 0.10925,0.962393 0.0112,1.29906 -0.20862,0.715323 -0.77505,1.335007 -1.45735,1.594488 -1.29833,0.493769 -2.38129,-0.05039 -3.21358,-1.614614 -0.22193,-0.417245 -0.70721,-1.648555 -0.91426,-2.32013 -0.11199,-0.362974 -0.12978,-0.252918 -0.1105,0.678658 0.0284,1.369599 0.24078,2.818409 0.59241,4.041408 l 0.15828,0.550736 -0.53422,0.138791 c -0.2938,0.07633 -0.55213,0.136827 -0.57402,0.134438 -0.0214,-0.0019 -0.0726,-0.187612 -0.11248,-0.411917 z"
       id="path1503-62-3-6-8-0-3-5-5-6-6"
       inkscape:transform-center-x="1.2149172"
       inkscape:transform-center-y="-6.8519421" />
    <path
       style="fill:#90e498;fill-opacity:1;stroke:#008000;stroke-width:0.244214"
       d="m 236.23734,22.442345 c -0.99437,0.106223 -3.94502,-0.37464 -6.25374,-1.019192 -1.32528,-0.370002 -2.93734,-1.062345 -4.95852,-2.129579 l -2.9948,-1.581335 0.42595,0.843645 c 0.23433,0.464005 0.39805,1.306767 0.36391,1.872814 -0.0556,0.92149 -0.142,1.104623 -0.82635,1.750327 -1.01802,0.960525 -2.50401,1.15538 -3.38129,0.443627 -0.57836,-0.469358 -0.65715,-0.466802 -0.92198,0.02993 -0.41718,0.78245 -1.62501,1.25232 -2.69387,1.047955 -1.89449,-0.36223 -2.65992,-2.382497 -1.7818,-4.702766 0.23173,-0.612285 0.3383,-1.157536 0.23685,-1.21163 -0.1014,-0.0541 -0.2555,0.03486 -0.34234,0.19769 -0.28878,0.541644 -2.40451,1.446114 -3.31651,1.417789 -2.00605,-0.06229 -3.10362,-2.127246 -2.11563,-3.980324 0.48246,-0.904887 0.47591,-0.968668 -0.15189,-1.478156 -0.92342,-0.749394 -1.05022,-1.877628 -0.35716,-3.177543 0.48908,-0.9173363 0.68952,-1.0779437 1.64863,-1.3209706 1.13787,-0.2883825 2.48514,-0.1192531 3.57528,0.4487208 0.63368,0.3304738 0.63386,0.3264678 0.005,-0.5188413 -1.55383,-2.0876172 -1.63726,-4.1009481 -0.21921,-5.2893945 0.90038,-0.7546269 2.21838,-0.8224877 3.16198,-0.1627463 0.5333,0.3728276 0.70829,0.3893198 0.87204,0.08218 0.62333,-1.169129 2.2554,-1.5708305 3.55879,-0.8759131 1.44478,0.7703007 1.75365,3.1290458 0.67863,5.1827693 -0.38392,0.7338956 -0.36916,0.7309208 0.97837,-0.1881342 1.58468,-1.0808159 2.71905,-1.2506267 3.95663,-0.5923266 0.68339,0.3636716 0.95078,0.6928079 1.2067,1.4860597 0.29169,0.905808 0.26171,1.1244238 -0.27383,1.9664708 -0.4416,0.694294 -0.52588,0.988329 -0.31542,1.100542 0.59066,0.314922 1.30497,1.592312 1.25563,2.245416 -0.13853,1.833612 -1.60565,3.131111 -3.28885,2.908553 -1.60584,-0.212322 -1.19744,0.258114 1.15029,1.324987 3.62811,1.648702 6.668,2.460565 9.99916,2.670451 1.38415,0.0872 1.54076,0.144722 1.67501,0.615084 0.13426,0.470352 0.0823,0.525887 -0.55539,0.594045 z"
       id="path908-8" />
    <path
       style="fill:#96d490;fill-opacity:1;stroke:#008000;stroke-width:0.3554;stroke-miterlimit:4;stroke-dasharray:none"
       d="m 205.96577,20.780441 c -0.24372,-1.365228 -0.27349,-2.488193 -0.10987,-4.143208 0.0733,-0.740775 0.11461,-1.331614 0.0918,-1.312966 -0.0229,0.01841 -0.14524,0.220958 -0.27207,0.449836 -0.68486,1.234369 -1.29053,2.039194 -1.92007,2.551509 -0.68912,0.560823 -1.43083,0.74032 -2.12884,0.515318 -0.97711,-0.314978 -1.67282,-1.183073 -1.75379,-2.188404 -0.028,-0.347358 0.0563,-0.738517 0.27266,-1.265427 0.0383,-0.09287 2.9e-4,-0.143848 -0.22768,-0.307169 -0.79083,-0.566187 -1.1572,-1.610459 -0.89111,-2.540967 0.36024,-1.260128 1.40943,-1.801066 2.8346,-1.461462 0.84509,0.201371 2.55848,1.059146 3.56307,1.783784 0.14816,0.10687 0.27016,0.17379 0.27095,0.149006 9.2e-4,-0.02594 -0.16876,-0.212889 -0.37792,-0.417225 -0.58396,-0.571847 -1.57508,-1.773531 -1.88828,-2.288393 -1.10552,-1.8180591 -0.97318,-3.1855284 0.3745,-3.8675433 0.47281,-0.239235 0.98209,-0.3334503 1.51901,-0.2809643 0.54772,0.053541 0.95541,0.2270556 1.39141,0.5921771 0.17837,0.1494806 0.33234,0.2725232 0.34199,0.2736107 0.009,8.646e-4 0.16573,-0.079951 0.34653,-0.1800357 0.33472,-0.1852802 0.83494,-0.3170615 1.25299,-0.3304007 0.66167,-0.021103 1.52795,0.3917165 2.00302,0.9544634 1.16211,1.3768023 0.12133,3.3034768 -2.82807,5.2351148 -0.35742,0.233861 -0.65348,0.445485 -0.65807,0.470121 -0.005,0.02389 0.12767,-0.01506 0.29391,-0.08747 1.12153,-0.489568 2.97753,-0.963017 3.83389,-0.977974 1.47978,-0.02585 2.38963,0.72341 2.48937,2.050089 0.0719,0.955719 -0.50139,1.900979 -1.38427,2.282591 -0.25608,0.110571 -0.30316,0.152428 -0.28466,0.251357 0.10589,0.563723 0.10925,0.962394 0.0112,1.299059 -0.20863,0.715324 -0.77506,1.335007 -1.45736,1.594489 -1.29831,0.49377 -2.38127,-0.05039 -3.21355,-1.614614 -0.22195,-0.417244 -0.70724,-1.648555 -0.91428,-2.320131 -0.11199,-0.362974 -0.12979,-0.252918 -0.11049,0.678659 0.0284,1.369599 0.24076,2.818409 0.5924,4.041408 l 0.15828,0.550735 -0.53421,0.138791 c -0.29382,0.07633 -0.55213,0.136829 -0.57403,0.13444 -0.0214,-0.0019 -0.0726,-0.187613 -0.11249,-0.411918 z"
       id="path1503-62-3-6-8-0-3-5-5-6-9-1"
       inkscape:transform-center-x="1.2149341"
       inkscape:transform-center-y="-6.8519443" />
    <path
       style="fill:#bae4bd;fill-opacity:1;stroke:#008000;stroke-width:0.244214"
       d="m 249.45647,0.9279575 c -0.38667,0.922253 -2.23137,3.2748349 -3.90975,4.9861564 -0.96345,0.9823614 -2.34762,2.0604167 -4.25752,3.3159615 l -2.82994,1.8603646 0.94447,0.03393 c 0.51948,0.0186 1.33668,0.281745 1.81602,0.584742 0.78036,0.493239 0.89908,0.657296 1.13452,1.568245 0.35023,1.355097 -0.19598,2.750733 -1.24266,3.175814 -0.69014,0.280156 -0.72592,0.350396 -0.41858,0.822013 0.48412,0.742905 0.313,2.027555 -0.38167,2.865223 -1.23125,1.484683 -3.37014,1.180516 -4.9789,-0.708025 -0.42454,-0.498371 -0.85073,-0.854773 -0.94705,-0.792006 -0.0963,0.06275 -0.0928,0.240619 0.009,0.395241 0.33513,0.514267 0.10664,2.80384 -0.35809,3.589033 -1.02234,1.727115 -3.36062,1.692302 -4.50714,-0.06712 -0.55988,-0.859143 -0.6189,-0.884168 -1.36806,-0.580056 -1.1019,0.447317 -2.15134,0.01413 -2.95561,-1.220099 -0.56758,-0.870966 -0.61155,-1.124024 -0.36174,-2.08137 0.29635,-1.135829 1.09446,-2.234354 2.11788,-2.915236 0.59518,-0.39563 0.59176,-0.397713 -0.45222,-0.254376 -2.57824,0.35391 -4.38202,-0.544295 -4.73892,-2.35975 -0.22662,-1.15274 0.34979,-2.339958 1.38289,-2.848202 0.58386,-0.287277 0.68273,-0.4326016 0.4927,-0.7242192 -0.72338,-1.1100157 -0.28786,-2.7333965 0.94962,-3.5398107 1.37175,-0.8939187 3.58687,-0.026497 4.86716,1.9058972 0.45763,0.6903352 0.46215,0.675972 0.30721,-0.9477427 -0.18223,-1.9094948 0.21628,-2.9850488 1.38996,-3.7515001 0.64825,-0.4231661 1.06554,-0.4986034 1.88385,-0.3400689 0.93414,0.181497 1.11117,0.313221 1.59039,1.1885386 0.39512,0.7217648 0.612,0.9374518 0.81182,0.8072239 0.56082,-0.3654467 2.02433,-0.3748731 2.5726,-0.016543 1.5393,1.0059267 1.96803,2.9169837 0.96105,4.2839884 -0.96069,1.3041717 -0.3516,1.1734047 1.71553,-0.3683567 3.19446,-2.3825808 5.37215,-4.6536643 7.16306,-7.470288 0.74415,-1.1703464 0.87009,-1.2797796 1.34685,-1.1704486 0.47678,0.1093123 0.50037,0.1815707 0.25241,0.7730699 z"
       id="path908-6-79" />
    <path
       style="fill:#90e498;fill-opacity:1;stroke:#008000;stroke-width:0.25489"
       d="m 264.24443,7.9194547 c 0.7505,0.7184187 3.53966,2.2393573 5.91152,3.2235313 1.36153,0.564959 3.1888,1.06624 5.62044,1.541919 l 3.60302,0.70481 -0.94941,0.374548 c -0.52222,0.205944 -1.25333,0.747738 -1.62474,1.203951 -0.60463,0.742681 -0.66222,0.938567 -0.55008,1.872348 0.16679,1.389055 1.2628,2.490368 2.49378,2.506144 0.81161,0.01022 0.8752,0.06275 0.74426,0.613494 -0.20625,0.8676 0.46463,2.001748 1.49633,2.529551 1.82857,0.93549 3.89079,-0.124398 4.80042,-2.46724 0.24002,-0.618235 0.53662,-1.104893 0.65905,-1.081402 0.12245,0.02352 0.18749,0.190383 0.1446,0.370959 -0.14278,0.600572 0.97491,2.649722 1.75204,3.212133 1.70937,1.237111 4.07887,0.35565 4.56734,-1.699115 0.23852,-1.003342 0.28901,-1.048075 1.17001,-1.036919 1.29584,0.01646 2.19792,-0.768023 2.54057,-2.209406 0.24181,-1.017155 0.18881,-1.268772 -0.43577,-2.069554 -0.74098,-0.950103 -1.97891,-1.683275 -3.28503,-1.945693 -0.75947,-0.152307 -0.75678,-0.155486 0.36255,-0.401079 2.76429,-0.606643 4.25542,-2.098057 3.91749,-3.9182355 -0.21455,-1.1557512 -1.26081,-2.0520131 -2.5101,-2.1501512 -0.70607,-0.055036 -0.86295,-0.1549469 -0.78199,-0.4955078 0.3082,-1.296336 -0.76304,-2.6499168 -2.33584,-2.9515189 -1.74345,-0.3343422 -3.66567,1.277781 -4.22359,3.5421439 -0.19957,0.8090364 -0.20973,0.7972855 -0.67935,-0.7710057 -0.55228,-1.8443211 -1.37409,-2.7012132 -2.86641,-2.9887586 -0.82419,-0.1586653 -1.27859,-0.077721 -2.05129,0.3673888 -0.88186,0.5082166 -1.01136,0.6951511 -1.16145,1.6842792 -0.1237,0.8155815 -0.26137,1.0952065 -0.51535,1.0464863 -0.71277,-0.1367082 -2.2079,0.3859812 -2.62815,0.9187298 -1.17995,1.4956892 -0.87829,3.4309817 0.67625,4.3383247 1.48308,0.865622 0.81181,0.965024 -1.89067,0.279914 -4.17635,-1.058758 -7.27337,-2.3828887 -10.18709,-4.355467 -1.21067,-0.8196525 -1.38131,-0.8758284 -1.82495,-0.6008972 -0.44363,0.2749312 -0.43974,0.3507683 0.0416,0.8115553 z"
       id="path908-6-7-3-20"
       inkscape:transform-center-x="22.842202"
       inkscape:transform-center-y="-2.3151388" />
    <path
       style="fill:#74e481;fill-opacity:1;stroke:#008000;stroke-width:0.254712;stroke-miterlimit:4;stroke-dasharray:none"
       d="m 278.58848,7.1917404 c 0.7505,0.7184187 3.53966,2.2393575 5.91152,3.2235316 1.36152,0.564958 3.1888,1.066239 5.62044,1.541919 l 3.60302,0.704809 -0.94942,0.374548 c -0.52222,0.205944 -1.25332,0.747738 -1.62473,1.203952 -0.60464,0.742681 -0.66222,0.938567 -0.5501,1.872347 0.1668,1.389056 1.26283,2.490369 2.4938,2.506144 0.8116,0.01022 0.8752,0.06275 0.74426,0.613494 -0.20626,0.867601 0.46463,2.001749 1.49632,2.529552 1.82858,0.935489 3.8908,-0.124398 4.80042,-2.467241 0.24003,-0.618235 0.53662,-1.104893 0.65905,-1.081401 0.12246,0.02352 0.1875,0.190383 0.14461,0.370959 -0.14279,0.600572 0.97489,2.649721 1.75202,3.212133 1.70938,1.237111 4.07889,0.355649 4.56736,-1.699116 0.23852,-1.003342 0.28901,-1.048074 1.17001,-1.036919 1.29584,0.01646 2.19791,-0.768022 2.54056,-2.209405 0.2418,-1.017156 0.18882,-1.268772 -0.43576,-2.069554 -0.74098,-0.950103 -1.97891,-1.683275 -3.28504,-1.945693 -0.75947,-0.152307 -0.75678,-0.155486 0.36256,-0.40108 2.76428,-0.606642 4.2554,-2.098056 3.91747,-3.9182349 -0.21455,-1.1557511 -1.26079,-2.0520131 -2.51008,-2.1501512 -0.70608,-0.055036 -0.86296,-0.1549468 -0.78199,-0.4955077 0.30818,-1.296336 -0.76304,-2.6499168 -2.33584,-2.9515189 -1.74346,-0.3343421 -3.66567,1.277781 -4.22359,3.5421439 -0.19958,0.8090364 -0.20973,0.7972854 -0.67936,-0.7710057 -0.55228,-1.8443211 -1.37409,-2.7012132 -2.86641,-2.9887586 -0.82418,-0.1586656 -1.27857,-0.077721 -2.05127,0.3673888 -0.88187,0.5082165 -1.01136,0.6951511 -1.16145,1.6842792 -0.1237,0.8155814 -0.26139,1.0952065 -0.51537,1.0464863 -0.71276,-0.1367082 -2.20789,0.3859812 -2.62815,0.9187298 -1.17995,1.4956892 -0.87828,3.430982 0.67625,4.338324 1.48309,0.865622 0.81182,0.965025 -1.89067,0.279914 -4.17635,-1.058757 -7.27337,-2.3828893 -10.18709,-4.3554663 -1.21067,-0.8196525 -1.38131,-0.8758284 -1.82493,-0.6008972 -0.44364,0.2749312 -0.43976,0.3507683 0.0415,0.8115552 z"
       id="path908-6-7-3-2-2"
       inkscape:transform-center-x="22.842211"
       inkscape:transform-center-y="-2.3151387" />
    <path
       style="fill:#7ee487;fill-opacity:1;stroke:#008000;stroke-width:0.244214"
       d="m 242.32589,16.599087 c 0.74609,-0.665895 3.42401,-1.994925 5.67569,-2.816809 1.29256,-0.471784 3.00603,-0.848786 5.27043,-1.159619 l 3.35521,-0.460554 -0.83784,-0.437296 c -0.46084,-0.240462 -1.0851,-0.829843 -1.38726,-1.309705 -0.49194,-0.7811849 -0.52844,-0.9803724 -0.3487,-1.9039269 0.26737,-1.3738462 1.36129,-2.3982918 2.48902,-2.3312669 0.74351,0.044348 0.80604,-0.00374 0.73171,-0.5616868 -0.1171,-0.8789614 0.59053,-1.9647415 1.57819,-2.4216704 1.75054,-0.8098543 3.55003,0.3856374 4.18887,2.7828505 0.16856,0.6325971 0.39976,1.1377828 0.51373,1.1226024 0.11398,-0.015148 0.18729,-0.177239 0.16296,-0.3601673 -0.0811,-0.6084462 1.111,-2.5765424 1.86858,-3.0850929 1.66639,-1.1186141 3.76179,-0.080411 4.03903,2.0012648 0.13539,1.016488 0.17789,1.064492 0.98498,1.1125906 1.18713,0.070745 1.94778,0.9135701 2.14225,2.3738321 0.13724,1.0304788 0.068,1.2778098 -0.56972,2.0342968 -0.75653,0.897545 -1.94987,1.545377 -3.16674,1.719233 -0.70754,0.100804 -0.70534,0.104167 0.29862,0.424309 2.47938,0.790713 3.72064,2.378071 3.26106,4.170288 -0.2918,1.137987 -1.32325,1.96132 -2.47451,1.975199 -0.65067,0.0075 -0.80247,0.09648 -0.75651,0.441507 0.17492,1.31331 -0.91714,2.59098 -2.38127,2.785965 -1.62296,0.21617 -3.24874,-1.520519 -3.57221,-3.815866 -0.11585,-0.820118 -0.12605,-0.809092 -0.68536,0.723103 -0.65772,1.801884 -1.48052,2.601038 -2.86983,2.787433 -0.76728,0.10281 -1.1764,-0.0083 -1.8467,-0.504218 -0.76498,-0.566038 -0.86803,-0.761143 -0.92366,-1.757504 -0.0458,-0.821558 -0.14871,-1.109624 -0.38514,-1.07813 -0.66351,0.08841 -1.98847,-0.533287 -2.32901,-1.09277 -0.95617,-1.57069 -0.52027,-3.48012 0.97719,-4.280326 1.42863,-0.763429 0.82259,-0.907676 -1.70696,-0.406219 -3.90907,0.77493 -6.85242,1.887027 -9.68161,3.658047 -1.17555,0.735885 -1.33633,0.780432 -1.71957,0.476461 -0.38323,-0.303944 -0.37343,-0.379317 0.10502,-0.806415 z"
       id="path908-6-7-37" />
    <path
       style="fill:#96d490;fill-opacity:1;stroke:#008000;stroke-width:0.321643;stroke-miterlimit:4;stroke-dasharray:none"
       d="m 219.56023,18.951739 c 0.56147,-1.122509 1.14715,-1.953511 2.16092,-3.066018 0.45375,-0.497962 0.80328,-0.904358 0.7767,-0.903112 -0.0265,9.29e-4 -0.2249,0.08181 -0.4407,0.179302 -1.16454,0.525357 -2.0393,0.781854 -2.77321,0.813164 -0.80335,0.03431 -1.43867,-0.236566 -1.8235,-0.777337 -0.53871,-0.756988 -0.57411,-1.763175 -0.0892,-2.536495 0.16757,-0.267197 0.44026,-0.505482 0.88224,-0.77083 0.078,-0.04676 0.078,-0.10423 8e-4,-0.346027 -0.26769,-0.838552 0.0313,-1.7944751 0.72751,-2.3258185 0.94289,-0.7196184 1.99681,-0.54475 2.84735,0.4724344 0.50434,0.6031571 1.28381,2.1522151 1.62092,3.2213551 0.0497,0.157653 0.10203,0.272208 0.11598,0.254657 0.0147,-0.01831 -0.007,-0.245751 -0.0486,-0.507146 -0.11436,-0.730802 -0.18386,-2.138802 -0.1327,-2.6817941 0.18096,-1.9171835 1.01653,-2.8379389 2.36334,-2.6040219 0.47248,0.082081 0.893,0.2891437 1.25426,0.6176023 0.36849,0.3350386 0.57051,0.6814482 0.68943,1.1821892 0.0486,0.2049228 0.0938,0.3774941 0.10016,0.3834997 0.005,0.00561 0.16351,0.031604 0.34882,0.056705 0.3431,0.046578 0.77736,0.2214598 1.08793,0.4378718 0.49155,0.342532 0.89695,1.110564 0.93736,1.775855 0.0988,1.627573 -1.69848,2.462852 -4.88342,2.269531 -0.38583,-0.02352 -0.71511,-0.03012 -0.73177,-0.01469 -0.0166,0.01469 0.10078,0.05819 0.26061,0.09544 1.07863,0.251264 2.68149,0.911424 3.31102,1.363686 1.08783,0.781501 1.34285,1.817278 0.69777,2.833952 -0.46471,0.732399 -1.3919,1.108331 -2.23896,0.907787 -0.24563,-0.05819 -0.30242,-0.05335 -0.34248,0.02845 -0.22808,0.46632 -0.44121,0.757444 -0.69456,0.948645 -0.53823,0.406248 -1.28441,0.549621 -1.91985,0.368924 -1.20919,-0.343815 -1.7008,-1.324335 -1.45881,-2.909575 0.0647,-0.422803 0.37834,-1.578769 0.59128,-2.178086 0.11511,-0.323939 0.0426,-0.253727 -0.44722,0.432694 -0.72008,1.009237 -1.34951,2.175447 -1.75573,3.253093 l -0.18298,0.485254 -0.46271,-0.188189 c -0.2545,-0.103507 -0.47467,-0.19929 -0.48927,-0.21287 -0.0147,-0.01283 0.0488,-0.175446 0.14114,-0.359758 z"
       id="path1503-62-3-6-8-0-5" />
    <path
       style="fill:#96d490;fill-opacity:1;stroke:#008000;stroke-width:0.321643;stroke-miterlimit:4;stroke-dasharray:none"
       d="m 248.16726,18.045916 c -1.0229,-0.727277 -1.75403,-1.433703 -2.69754,-2.606382 -0.42232,-0.524884 -0.77018,-0.932702 -0.77303,-0.906255 -0.002,0.0264 0.0463,0.234791 0.1095,0.463018 0.34017,1.23144 0.45921,2.135231 0.37736,2.865224 -0.0896,0.799098 -0.45483,1.385233 -1.04831,1.6824 -0.83077,0.416 -1.83045,0.296349 -2.52007,-0.301638 -0.23828,-0.206623 -0.43183,-0.512696 -0.62612,-0.990188 -0.0342,-0.08422 -0.0911,-0.09309 -0.3418,-0.05401 -0.86971,0.135658 -1.76835,-0.306575 -2.18639,-1.07626 -0.56618,-1.042285 -0.23144,-2.0568 0.90436,-2.740944 0.67348,-0.405671 2.32393,-0.937843 3.43218,-1.106669 0.16341,-0.02491 0.28466,-0.05903 0.26945,-0.07548 -0.0158,-0.01729 -0.24395,-0.0305 -0.5086,-0.02985 -0.73969,6.89e-4 -2.14164,-0.146979 -2.67033,-0.280983 -1.8666,-0.473411 -2.64802,-1.440544 -2.20992,-2.735413 0.15371,-0.4542431 0.42292,-0.8379658 0.80299,-1.1444487 0.38769,-0.3126442 0.76102,-0.4590292 1.2741,-0.4995974 0.20995,-0.016543 0.38741,-0.034668 0.39433,-0.040062 0.006,-0.00461 0.0563,-0.1567219 0.10963,-0.3359691 0.0988,-0.3318695 0.33827,-0.7340912 0.59985,-1.0077305 0.414,-0.4330758 1.2352,-0.7156296 1.89881,-0.6533359 1.6234,0.1525388 2.17259,2.056753 1.49216,5.1741616 -0.0826,0.377634 -0.13966,0.702001 -0.12696,0.720826 0.0125,0.01859 0.073,-0.09064 0.13434,-0.242851 0.41403,-1.027206 1.31265,-2.5095935 1.85627,-3.0621516 0.93939,-0.9548172 2.00206,-1.0476473 2.90752,-0.2539968 0.6523,0.5717273 0.88129,1.5456764 0.55297,2.3518504 -0.0953,0.233777 -0.0992,0.290641 -0.0245,0.342802 0.42572,0.297017 0.68064,0.552362 0.83065,0.832071 0.3187,0.594278 0.34571,1.353618 0.0695,1.953744 -0.52555,1.141993 -1.56998,1.477097 -3.0992,0.994381 -0.40785,-0.128806 -1.50187,-0.61645 -2.06135,-0.918953 -0.30241,-0.16348 -0.24417,-0.08106 0.35883,0.508411 0.88659,0.866606 1.94223,1.667751 2.94467,2.234754 l 0.45136,0.255372 -0.25706,0.428308 c -0.14137,0.235562 -0.26986,0.438402 -0.28552,0.450737 -0.0149,0.01254 -0.16586,-0.0752 -0.33379,-0.194734 z"
       id="path1503-62-3-6-8-0-3-9" />
    <path
       style="fill:#96d490;fill-opacity:1;stroke:#008000;stroke-width:0.361505;stroke-miterlimit:4;stroke-dasharray:none"
       d="m 245.57362,21.277581 c 0.70384,-1.222506 1.41569,-2.116332 2.62635,-3.297834 0.54191,-0.528843 0.96082,-0.961817 0.93092,-0.962169 -0.0299,-6.98e-4 -0.25771,0.07697 -0.50626,0.172171 -1.34121,0.5128 -2.33958,0.742997 -3.16507,0.729825 -0.90365,-0.01441 -1.59861,-0.360139 -1.9948,-0.992205 -0.55463,-0.884809 -0.5281,-2.016084 0.0669,-2.851828 0.20558,-0.288763 0.52723,-0.538167 1.04058,-0.806796 0.0906,-0.04731 0.0944,-0.111816 0.0237,-0.388194 -0.24515,-0.958471 0.15313,-2.011353 0.96936,-2.56168 1.1053,-0.7453396 2.27628,-0.47977 3.16364,0.717499 0.52618,0.70994 1.29876,2.499294 1.60663,3.721056 0.0455,0.180167 0.0967,0.312143 0.11336,0.293365 0.0177,-0.01952 0.007,-0.276214 -0.0212,-0.572209 -0.0802,-0.82749 -0.0655,-2.411846 0.0277,-3.017716 0.32922,-2.1391651 1.32734,-3.1172599 2.82307,-2.7661477 0.52471,0.123202 0.98291,0.383202 1.36661,0.7755065 0.39141,0.4001762 0.59527,0.8021472 0.69574,1.3718102 0.0411,0.233126 0.0803,0.42972 0.0872,0.436888 0.005,0.0065 0.18139,0.0462 0.38765,0.08664 0.38189,0.07483 0.85761,0.29964 1.19184,0.562895 0.52897,0.416687 0.93326,1.305103 0.93482,2.054216 0.004,1.832635 -2.06781,2.651516 -5.62859,2.224967 -0.43135,-0.05187 -0.80038,-0.08087 -0.82009,-0.0647 -0.0196,0.01533 0.10925,0.07185 0.28613,0.124236 1.19369,0.352916 2.94864,1.199127 3.62522,1.748003 1.16909,0.94845 1.38703,2.127385 0.59634,3.225631 -0.56961,0.791161 -1.63467,1.151922 -2.57186,0.871154 -0.27177,-0.08153 -0.33581,-0.07976 -0.38615,0.0093 -0.28661,0.508196 -0.54491,0.820804 -0.84174,1.018661 -0.63065,0.420387 -1.47729,0.532126 -2.17836,0.287556 -1.33408,-0.465362 -1.82112,-1.597864 -1.44526,-3.360574 0.10028,-0.470138 0.52842,-1.746478 0.80679,-2.40489 0.15044,-0.355882 0.0645,-0.281876 -0.53028,0.456045 -0.87436,1.084962 -1.65733,2.352016 -2.18405,3.534401 l -0.23725,0.532413 -0.50678,-0.241614 c -0.27872,-0.132877 -0.51946,-0.254851 -0.53494,-0.271046 -0.0156,-0.01533 0.0664,-0.193636 0.18202,-0.394357 z"
       id="path1503-62-3-6-8-0-3-5-2"
       inkscape:transform-center-x="-0.92548023"
       inkscape:transform-center-y="0.47351235" />
    <path
       style="fill:#7ed475;fill-opacity:1;stroke:#008000;stroke-width:0.3554;stroke-miterlimit:4;stroke-dasharray:none"
       d="m 273.17231,20.494165 c -1.1266,-0.808748 -1.93087,-1.592992 -2.96749,-2.893483 -0.46398,-0.582091 -0.84631,-1.034456 -0.84958,-1.005249 -0.004,0.02919 0.05,0.259659 0.11859,0.512158 0.36966,1.362375 0.49661,2.361599 0.40252,3.167782 -0.10302,0.882503 -0.50955,1.528309 -1.1668,1.853671 -0.92006,0.455462 -2.02403,0.318224 -2.783,-0.346008 -0.26224,-0.229501 -0.47456,-0.568668 -0.68682,-1.097242 -0.0374,-0.09324 -0.10003,-0.10332 -0.37739,-0.06145 -0.96166,0.145511 -1.95239,-0.347654 -2.4104,-1.200224 -0.62034,-1.154506 -0.24537,-2.273788 1.01307,-3.023999 0.74621,-0.444854 2.5725,-1.024547 3.7979,-1.205504 0.1807,-0.02668 0.31484,-0.06377 0.29811,-0.08208 -0.0173,-0.01925 -0.26941,-0.03496 -0.56181,-0.0356 -0.81732,-0.0027 -2.36565,-0.173204 -2.94913,-0.323931 -2.0601,-0.532497 -2.91864,-1.605057 -2.42804,-3.033593 0.17213,-0.501141 0.47153,-0.923769 0.89302,-1.260491 0.42995,-0.343508 0.8432,-0.5033628 1.41032,-0.5456041 0.23208,-0.017203 0.42824,-0.03635 0.43593,-0.042292 0.006,-0.00561 0.063,-0.172889 0.12282,-0.3706712 0.11075,-0.3661917 0.37748,-0.8094189 0.66787,-1.1104529 0.45963,-0.476432 1.36843,-0.7845044 2.10135,-0.7123197 1.793,0.176737 2.39022,2.2835321 1.62268,5.7246279 -0.0932,0.416845 -0.15786,0.774966 -0.14397,0.795827 0.0131,0.02054 0.0811,-0.09978 0.14967,-0.267661 0.46265,-1.132902 1.46305,-2.766323 2.0665,-3.374119 1.04276,-1.0502779 2.2174,-1.1475054 3.21389,-0.266007 0.71786,0.635014 0.96598,1.712317 0.59913,2.601439 -0.1065,0.257817 -0.11111,0.32064 -0.0288,0.378647 0.46891,0.330326 0.74928,0.613763 0.91361,0.923574 0.34918,0.658244 0.37519,1.497399 0.0669,2.159111 -0.58645,1.25918 -1.74215,1.624181 -3.4294,1.083103 -0.45002,-0.144368 -1.65639,-0.688698 -2.27305,-1.025764 -0.33332,-0.182156 -0.26938,-0.09083 0.39392,0.563574 0.97528,0.962012 2.13765,1.852537 3.24241,2.484093 l 0.49745,0.284441 -0.28619,0.471961 c -0.1574,0.259565 -0.30039,0.483042 -0.31776,0.496597 -0.0166,0.01375 -0.18288,-0.08385 -0.36785,-0.21685 z"
       id="path1503-62-3-6-8-0-3-5-5-28"
       inkscape:transform-center-x="-0.67846467"
       inkscape:transform-center-y="-0.98817663" />
    <path
       style="fill:#96d490;fill-opacity:1;stroke:#008000;stroke-width:0.3554;stroke-miterlimit:4;stroke-dasharray:none"
       d="m 276.12693,23.953146 c -0.24373,-1.36523 -0.27351,-2.488193 -0.10987,-4.143208 0.0732,-0.740776 0.1146,-1.331615 0.0918,-1.312966 -0.0229,0.01841 -0.14526,0.220957 -0.27207,0.449835 -0.68487,1.234369 -1.29055,2.039194 -1.92008,2.551509 -0.68913,0.560822 -1.43083,0.74032 -2.12883,0.515318 -0.97711,-0.314979 -1.67284,-1.183072 -1.7538,-2.188405 -0.028,-0.347356 0.0563,-0.738516 0.27267,-1.265426 0.0382,-0.09287 2.9e-4,-0.143847 -0.22769,-0.30717 -0.79084,-0.566185 -1.15721,-1.610459 -0.89112,-2.540967 0.36025,-1.260127 1.40944,-1.801065 2.83462,-1.461462 0.84508,0.201372 2.55847,1.059148 3.56307,1.783785 0.14814,0.106871 0.27016,0.17379 0.27094,0.149006 9.2e-4,-0.02594 -0.16877,-0.212889 -0.37793,-0.417226 -0.58394,-0.571847 -1.57508,-1.77353 -1.88826,-2.288393 -1.10553,-1.818059 -0.97319,-3.185528 0.3745,-3.867543 0.47279,-0.239235 0.98209,-0.3334503 1.51901,-0.2809642 0.54771,0.053541 0.95541,0.2270555 1.39141,0.5921771 0.17835,0.1494801 0.33233,0.2725231 0.34198,0.2736111 0.009,8.64e-4 0.16573,-0.07995 0.34653,-0.180036 0.33471,-0.1852803 0.83493,-0.3170616 1.253,-0.3304008 0.66167,-0.021103 1.52793,0.3917168 2.00301,0.9544638 1.1621,1.376803 0.12133,3.303477 -2.82807,5.235115 -0.35742,0.233861 -0.65348,0.445486 -0.65806,0.47012 -0.005,0.02389 0.12766,-0.01506 0.2939,-0.08747 1.12153,-0.489568 2.97752,-0.963016 3.83388,-0.977972 1.47979,-0.02585 2.38963,0.723409 2.48938,2.050088 0.0719,0.955718 -0.50139,1.900979 -1.38428,2.282592 -0.25608,0.110583 -0.30315,0.152428 -0.28464,0.251356 0.10588,0.563723 0.10925,0.962393 0.0112,1.29906 -0.20864,0.715322 -0.77507,1.335007 -1.45736,1.594488 -1.29832,0.493769 -2.38129,-0.05039 -3.21357,-1.614614 -0.22194,-0.417245 -0.70722,-1.648554 -0.91427,-2.32013 -0.11199,-0.362974 -0.12978,-0.252918 -0.1105,0.678659 0.0284,1.369598 0.24076,2.818408 0.5924,4.041407 l 0.15829,0.550736 -0.53422,0.13879 c -0.29382,0.07633 -0.55213,0.136829 -0.57403,0.134439 -0.0214,-0.0019 -0.0726,-0.187612 -0.11249,-0.411917 z"
       id="path1503-62-3-6-8-0-3-5-5-6-97"
       inkscape:transform-center-x="1.2149342"
       inkscape:transform-center-y="-6.8519423" />
    <path
       style="fill:#90e498;fill-opacity:1;stroke:#008000;stroke-width:0.244214"
       d="m 337.7049,21.59824 c -0.99437,0.106223 -3.94502,-0.374641 -6.25373,-1.019192 -1.32528,-0.370003 -2.93736,-1.062346 -4.95853,-2.12958 l -2.99481,-1.581335 0.42595,0.843647 c 0.23434,0.464003 0.39806,1.306765 0.36392,1.872812 -0.0556,0.92149 -0.142,1.104623 -0.82635,1.750327 -1.01801,0.960525 -2.50401,1.15538 -3.3813,0.443627 -0.57835,-0.469358 -0.65714,-0.466802 -0.92197,0.02993 -0.41717,0.782449 -1.625,1.252318 -2.69388,1.047954 -1.89447,-0.362231 -2.65991,-2.382498 -1.78179,-4.702766 0.23174,-0.612286 0.3383,-1.157536 0.23686,-1.211631 -0.1014,-0.0541 -0.25551,0.03486 -0.34235,0.19769 -0.28878,0.541645 -2.40451,1.446115 -3.31651,1.41779 -2.00606,-0.06229 -3.10361,-2.127247 -2.11563,-3.980322 0.48246,-0.904889 0.4759,-0.968669 -0.15189,-1.478159 -0.92341,-0.749392 -1.05022,-1.877628 -0.35716,-3.1775439 0.48908,-0.9173358 0.68953,-1.0779432 1.64863,-1.3209702 1.13787,-0.2883825 2.48514,-0.1192531 3.57527,0.4487208 0.63369,0.3304755 0.63386,0.3264693 0.005,-0.5188413 -1.55382,-2.0876172 -1.63726,-4.1009481 -0.21921,-5.2893945 0.90038,-0.7546263 2.21838,-0.8224876 3.16198,-0.1627463 0.53329,0.3728289 0.70829,0.3893198 0.87204,0.08218 0.62334,-1.169129 2.25541,-1.5708303 3.55879,-0.8759126 1.44477,0.7703002 1.75366,3.1290453 0.67863,5.1827688 -0.38392,0.7338956 -0.36916,0.7309208 0.97836,-0.1881342 1.58469,-1.0808159 2.71906,-1.2506267 3.95663,-0.5923266 0.6834,0.3636716 0.95079,0.6928079 1.20671,1.4860598 0.29169,0.9058079 0.2617,1.1244236 -0.27383,1.9664702 -0.4416,0.694296 -0.52589,0.988331 -0.31541,1.100543 0.59065,0.314923 1.30496,1.592314 1.25563,2.245418 -0.13853,1.833611 -1.60566,3.131109 -3.28886,2.908552 -1.60584,-0.212322 -1.19744,0.258115 1.15029,1.324987 3.62811,1.648702 6.66799,2.460565 9.99917,2.670451 1.38414,0.0872 1.54075,0.144722 1.675,0.615083 0.13425,0.470353 0.0823,0.525889 -0.55539,0.594047 z"
       id="path908-1-3" />
    <path
       style="fill:#96d490;fill-opacity:1;stroke:#008000;stroke-width:0.3554;stroke-miterlimit:4;stroke-dasharray:none"
       d="m 309.79333,21.054578 c -0.24373,-1.365228 -0.2735,-2.488193 -0.10987,-4.143208 0.0732,-0.740776 0.1146,-1.331615 0.0918,-1.312967 -0.0229,0.01841 -0.14523,0.220958 -0.27206,0.449836 -0.68487,1.234369 -1.29053,2.039194 -1.92007,2.55151 -0.68913,0.560822 -1.43085,0.74032 -2.12885,0.515317 -0.97711,-0.314979 -1.67281,-1.183072 -1.75378,-2.188405 -0.028,-0.347356 0.0563,-0.738516 0.27266,-1.265426 0.0383,-0.09287 2.9e-4,-0.143847 -0.22769,-0.307169 -0.79084,-0.566186 -1.1572,-1.61046 -0.8911,-2.540967 0.36023,-1.260128 1.40942,-1.801067 2.8346,-1.461462 0.84509,0.201371 2.55847,1.059147 3.56307,1.783784 0.14814,0.106871 0.27015,0.17379 0.27093,0.149006 9.4e-4,-0.02594 -0.16874,-0.212889 -0.37791,-0.417225 -0.58396,-0.571848 -1.57508,-1.773532 -1.88827,-2.288394 -1.10553,-1.8180601 -0.97318,-3.1855295 0.3745,-3.8675444 0.4728,-0.2392338 0.98209,-0.3334491 1.519,-0.2809643 0.54772,0.053541 0.95542,0.2270568 1.39141,0.5921784 0.17836,0.1494806 0.33235,0.2725232 0.34199,0.2736107 0.009,8.645e-4 0.16573,-0.079951 0.34653,-0.1800369 0.33473,-0.185279 0.83494,-0.3170603 1.25299,-0.3304008 0.66167,-0.021103 1.52796,0.3917178 2.00301,0.9544647 1.16211,1.3768023 0.12134,3.3034766 -2.82806,5.2351156 -0.35743,0.233861 -0.65347,0.445486 -0.65807,0.47012 -0.005,0.02389 0.12766,-0.01506 0.29392,-0.08748 1.12153,-0.489567 2.97751,-0.963015 3.83387,-0.977973 1.47978,-0.02585 2.38965,0.723411 2.48939,2.050089 0.0719,0.955719 -0.50139,1.900979 -1.38428,2.282592 -0.25609,0.110582 -0.30316,0.152428 -0.28465,0.251357 0.10589,0.563722 0.10925,0.962392 0.0112,1.299059 -0.20862,0.715323 -0.77505,1.335007 -1.45735,1.594489 -1.29833,0.493768 -2.38127,-0.05039 -3.21356,-1.614615 -0.22194,-0.417245 -0.70723,-1.648554 -0.91427,-2.32013 -0.11199,-0.362974 -0.12979,-0.252918 -0.11062,0.678659 0.0284,1.369598 0.24078,2.818408 0.59241,4.041407 l 0.15828,0.550736 -0.53422,0.138791 c -0.2938,0.07633 -0.55211,0.136828 -0.57401,0.13444 -0.0214,-0.0019 -0.0726,-0.187614 -0.11249,-0.411919 z"
       id="path1503-62-3-6-8-0-3-5-5-6-9-6"
       inkscape:transform-center-x="1.214917"
       inkscape:transform-center-y="-6.8519441" />
    <path
       style="fill:#bae4bd;fill-opacity:1;stroke:#008000;stroke-width:0.244214"
       d="m 351.7729,3.1293612 c -0.38666,0.9222527 -2.23136,3.2748353 -3.90974,4.9861567 -0.96345,0.9823614 -2.34761,2.0604171 -4.25752,3.3159631 l -2.82995,1.860365 0.94449,0.03393 c 0.51946,0.0186 1.33667,0.281745 1.81601,0.584741 0.78036,0.493239 0.89907,0.657296 1.13451,1.568245 0.35023,1.355097 -0.19597,2.750734 -1.24266,3.175814 -0.69014,0.280155 -0.72591,0.350396 -0.41856,0.822023 0.48411,0.742904 0.31298,2.027555 -0.38168,2.865222 -1.23125,1.484675 -3.37014,1.180516 -4.97891,-0.708026 -0.42453,-0.498379 -0.85072,-0.854773 -0.94705,-0.792006 -0.0963,0.06275 -0.0928,0.240611 0.009,0.395241 0.33513,0.514268 0.10664,2.803841 -0.35811,3.589024 -1.02234,1.727125 -3.3606,1.692302 -4.50714,-0.06712 -0.55986,-0.859144 -0.6189,-0.884168 -1.36805,-0.580048 -1.10189,0.447308 -2.15133,0.01413 -2.95562,-1.220098 -0.56756,-0.870967 -0.61155,-1.124025 -0.36172,-2.08137 0.29635,-1.13583 1.09445,-2.234355 2.11788,-2.915236 0.59519,-0.395631 0.59176,-0.397713 -0.45222,-0.254378 -2.57824,0.353912 -4.38203,-0.544292 -4.73892,-2.359749 -0.22662,-1.152739 0.34978,-2.339957 1.38289,-2.84821 0.58386,-0.287277 0.68272,-0.432601 0.49269,-0.72421 -0.72336,-1.110025 -0.28787,-2.733398 0.94964,-3.5398121 1.37172,-0.8939275 3.58684,-0.026497 4.86714,1.9058881 0.45764,0.690344 0.46215,0.675973 0.3072,-0.9477324 -0.18222,-1.9095048 0.2163,-2.98506 1.38998,-3.7515101 0.64824,-0.4231661 1.06555,-0.4986046 1.88384,-0.3400688 0.93415,0.1814956 1.11118,0.3132209 1.5904,1.1885385 0.39511,0.7217648 0.612,0.9374519 0.81184,0.8072239 0.56078,-0.3654467 2.0243,-0.3748731 2.57258,-0.016543 1.53929,1.0059267 1.96802,2.9169837 0.96104,4.2839879 -0.96068,1.304173 -0.35158,1.173406 1.71554,-0.368356 3.19448,-2.382581 5.37215,-4.6536658 7.16306,-7.470289 0.74415,-1.1703458 0.87009,-1.2797792 1.34686,-1.1704481 0.47676,0.1093122 0.50037,0.1815707 0.2524,0.7730697 z"
       id="path908-6-2-1" />
    <path
       style="fill:#90e498;fill-opacity:1;stroke:#008000;stroke-width:0.25489"
       d="m 366.56088,7.6612748 c 0.75049,0.7184187 3.53966,2.2393574 5.9115,3.2235402 1.36154,0.56496 3.18881,1.066241 5.62046,1.54192 l 3.60302,0.70481 -0.94942,0.374548 c -0.52222,0.205944 -1.25333,0.747738 -1.62473,1.20395 -0.60464,0.742682 -0.66223,0.938559 -0.5501,1.872349 0.16679,1.389045 1.26281,2.490358 2.4938,2.506144 0.8116,0.01022 0.87519,0.06275 0.74424,0.613493 -0.20624,0.867601 0.46465,2.001749 1.49633,2.529551 1.82858,0.935491 3.89079,-0.124398 4.80042,-2.467239 0.24004,-0.618235 0.53663,-1.104893 0.65905,-1.081403 0.12245,0.02352 0.18749,0.190384 0.1446,0.37096 -0.14277,0.600573 0.97491,2.649722 1.75204,3.212133 1.70937,1.237111 4.07887,0.35565 4.56734,-1.699115 0.23854,-1.003342 0.28902,-1.048075 1.17001,-1.036919 1.29585,0.01646 2.19792,-0.768023 2.54057,-2.209406 0.24182,-1.017155 0.18883,-1.268773 -0.43576,-2.069554 -0.74099,-0.950103 -1.9789,-1.683275 -3.28504,-1.945693 -0.75946,-0.152307 -0.75678,-0.155486 0.36255,-0.401079 2.76429,-0.606643 4.25543,-2.098067 3.91749,-3.9182455 -0.21455,-1.1557511 -1.2608,-2.0520131 -2.51009,-2.1501512 -0.70607,-0.055036 -0.86295,-0.1549468 -0.78199,-0.4955077 0.30819,-1.296336 -0.76305,-2.6499168 -2.33585,-2.9515189 -1.74344,-0.3343323 -3.66564,1.277781 -4.22359,3.5421538 -0.19956,0.8090264 -0.20971,0.7972855 -0.67935,-0.771007 -0.55228,-1.8443198 -1.37408,-2.7012119 -2.8664,-2.9887573 -0.82419,-0.1586653 -1.27858,-0.077721 -2.05128,0.3673888 -0.88186,0.5082066 -1.01137,0.6951511 -1.16145,1.6842793 -0.1237,0.8155814 -0.26139,1.0952065 -0.51537,1.0464862 -0.71277,-0.1367082 -2.20788,0.3859812 -2.62815,0.9187298 -1.17994,1.4956892 -0.87829,3.4309817 0.67626,4.3383247 1.48309,0.865622 0.8118,0.965024 -1.89068,0.279914 -4.17635,-1.058758 -7.27337,-2.3828887 -10.18709,-4.355467 -1.21066,-0.8196524 -1.3813,-0.8758283 -1.82494,-0.6008984 -0.44364,0.2749312 -0.43975,0.3507683 0.0416,0.8115565 z"
       id="path908-6-7-3-7-2"
       inkscape:transform-center-x="22.842207"
       inkscape:transform-center-y="-2.3151385" />
    <path
       style="fill:#74e481;fill-opacity:1;stroke:#008000;stroke-width:0.254712;stroke-miterlimit:4;stroke-dasharray:none"
       d="m 380.90492,6.9335604 c 0.7505,0.7184188 3.53966,2.2393575 5.91151,3.2235316 1.36154,0.564959 3.1888,1.066249 5.62045,1.54192 l 3.60302,0.704818 -0.94943,0.374538 c -0.5222,0.205946 -1.25332,0.747738 -1.62472,1.203952 -0.60465,0.742691 -0.66223,0.938568 -0.55011,1.872347 0.1668,1.389056 1.26283,2.490369 2.49381,2.506145 0.81159,0.01021 0.8752,0.06275 0.74426,0.613493 -0.20625,0.867602 0.46463,2.001759 1.49631,2.52956 1.82859,0.935483 3.8908,-0.124398 4.80043,-2.467238 0.24002,-0.618236 0.53663,-1.104894 0.65906,-1.081403 0.12245,0.02352 0.18748,0.190384 0.14459,0.37096 -0.14277,0.600572 0.9749,2.649721 1.75203,3.212133 1.70937,1.237111 4.07888,0.355639 4.56735,-1.699116 0.23853,-1.003342 0.28902,-1.048074 1.17001,-1.036919 1.29585,0.01646 2.19792,-0.768022 2.54058,-2.209405 0.24179,-1.017156 0.1888,-1.268773 -0.43577,-2.069554 -0.74099,-0.950113 -1.97891,-1.683284 -3.28505,-1.945693 -0.75945,-0.152307 -0.75676,-0.155486 0.36256,-0.401088 2.76428,-0.606643 4.25541,-2.098058 3.91749,-3.9182368 -0.21455,-1.1557511 -1.2608,-2.0520131 -2.51009,-2.1501512 -0.70607,-0.055036 -0.86297,-0.1549468 -0.782,-0.4955077 0.30819,-1.2963361 -0.76303,-2.6499168 -2.33583,-2.9515189 -1.74345,-0.3343418 -3.66567,1.2777809 -4.2236,3.5421438 -0.19958,0.8090364 -0.20973,0.7972955 -0.67936,-0.770997 -0.55228,-1.8443285 -1.37408,-2.7012119 -2.86639,-2.9887579 -0.8242,-0.1586746 -1.27859,-0.077716 -2.05129,0.3673807 -0.88186,0.5082153 -1.01136,0.6951598 -1.16145,1.6842879 -0.1237,0.8155815 -0.26139,1.0952065 -0.51537,1.0464863 -0.71276,-0.1367182 -2.20788,0.3859812 -2.62815,0.9187298 -1.17994,1.4956892 -0.87828,3.4309817 0.67627,4.338323 1.48308,0.865623 0.8118,0.965026 -1.89069,0.279914 -4.17635,-1.058756 -7.27337,-2.3828883 -10.18709,-4.3554653 -1.21065,-0.8196525 -1.38129,-0.8758284 -1.82493,-0.6008984 -0.44364,0.2749312 -0.43976,0.3507683 0.0416,0.8115565 z"
       id="path908-6-7-3-2-0-9"
       inkscape:transform-center-x="22.842203"
       inkscape:transform-center-y="-2.3151384" />
    <path
       style="fill:#7ee487;fill-opacity:1;stroke:#008000;stroke-width:0.244214"
       d="m 344.64233,16.340907 c 0.74609,-0.665895 3.42401,-1.994925 5.67569,-2.816809 1.29257,-0.471784 3.00603,-0.848786 5.27044,-1.159618 l 3.35519,-0.460555 -0.83782,-0.437296 c -0.46086,-0.240461 -1.0851,-0.829841 -1.38728,-1.309704 -0.49192,-0.7811859 -0.52843,-0.9803721 -0.34869,-1.9039278 0.26737,-1.3738462 1.36129,-2.3982906 2.48901,-2.3312657 0.74351,0.044335 0.80604,-0.00374 0.73172,-0.5616868 -0.1171,-0.8789614 0.59054,-1.9647415 1.5782,-2.4216716 1.75054,-0.809854 3.55003,0.3856386 4.18885,2.7828504 0.16858,0.6325971 0.39977,1.1377829 0.51373,1.1226025 0.11398,-0.015148 0.18731,-0.1772391 0.16298,-0.3601673 -0.0811,-0.608445 1.11098,-2.5765425 1.86857,-3.0850929 1.66638,-1.1186138 3.7618,-0.080411 4.03903,2.0012661 0.13538,1.0164867 0.17788,1.0644919 0.98497,1.1125893 1.18713,0.070745 1.94778,0.91357 2.14226,2.3738333 0.13723,1.0304787 0.0679,1.2778095 -0.56972,2.0342955 -0.75654,0.897545 -1.94987,1.545378 -3.16675,1.719233 -0.70754,0.100804 -0.70533,0.104167 0.29863,0.424309 2.47938,0.790713 3.72064,2.378073 3.26105,4.170288 -0.2918,1.137987 -1.32322,1.96132 -2.47451,1.975199 -0.65065,0.0075 -0.80246,0.09648 -0.75651,0.441507 0.17492,1.313311 -0.91713,2.59098 -2.38127,2.785965 -1.62296,0.216171 -3.24873,-1.520519 -3.57221,-3.815866 -0.11585,-0.820117 -0.12605,-0.809092 -0.68535,0.723104 -0.65772,1.801883 -1.48051,2.601037 -2.86984,2.787434 -0.76728,0.102809 -1.1764,-0.0083 -1.84669,-0.504219 -0.76497,-0.566037 -0.86803,-0.761144 -0.92365,-1.757505 -0.0459,-0.821558 -0.14872,-1.109624 -0.38516,-1.078128 -0.66351,0.08841 -1.98846,-0.533289 -2.32901,-1.092772 -0.95617,-1.57069 -0.52025,-3.48012 0.9772,-4.280324 1.42863,-0.763431 0.82258,-0.907678 -1.70696,-0.406221 -3.90907,0.77493 -6.85243,1.887027 -9.6816,3.658047 -1.17555,0.735887 -1.33634,0.780432 -1.71957,0.476461 -0.38324,-0.303944 -0.37343,-0.379317 0.10501,-0.806414 z"
       id="path908-6-7-9-3" />
    <path
       style="fill:#96d490;fill-opacity:1;stroke:#008000;stroke-width:0.321643;stroke-miterlimit:4;stroke-dasharray:none"
       d="m 321.87667,21.153144 c 0.56146,-1.122509 1.14714,-1.953512 2.16092,-3.066018 0.45375,-0.497962 0.80327,-0.904358 0.7767,-0.903112 -0.0265,9.29e-4 -0.22489,0.08181 -0.4407,0.179302 -1.16454,0.525358 -2.03931,0.781855 -2.77321,0.813165 -0.80336,0.03431 -1.43867,-0.236567 -1.8235,-0.777338 -0.53872,-0.756988 -0.5741,-1.763175 -0.0892,-2.536495 0.16756,-0.267196 0.44026,-0.505483 0.88222,-0.77082 0.078,-0.04676 0.078,-0.104242 8.1e-4,-0.346027 -0.26769,-0.838551 0.0313,-1.794485 0.72751,-2.32582 0.94289,-0.719618 1.9968,-0.54475 2.84734,0.472436 0.50436,0.603156 1.28382,2.152214 1.62094,3.221355 0.0497,0.157651 0.10202,0.272207 0.11597,0.254656 0.0147,-0.01831 -0.007,-0.24575 -0.0486,-0.507146 -0.11436,-0.730802 -0.18386,-2.138802 -0.13269,-2.681794 0.18096,-1.917184 1.01653,-2.8379402 2.36335,-2.6040232 0.47246,0.082081 0.89299,0.2891448 1.25424,0.6176022 0.3685,0.33504 0.57052,0.681448 0.68945,1.18219 0.0486,0.204923 0.0938,0.377496 0.10015,0.3835 0.005,0.0056 0.16353,0.0316 0.34883,0.05671 0.3431,0.04658 0.77736,0.22146 1.08794,0.437872 0.49155,0.342533 0.89693,1.110564 0.93734,1.775855 0.0988,1.627574 -1.69845,2.462853 -4.88341,2.269532 -0.38582,-0.02352 -0.71512,-0.03012 -0.73176,-0.01469 -0.0166,0.01469 0.10078,0.05819 0.26061,0.09543 1.07862,0.251264 2.68149,0.911424 3.31102,1.363686 1.08783,0.781503 1.34285,1.817278 0.69775,2.833952 -0.46469,0.732399 -1.39188,1.108332 -2.23894,0.907788 -0.24563,-0.05819 -0.30243,-0.05335 -0.3425,0.02845 -0.22806,0.466318 -0.44121,0.757442 -0.69454,0.948644 -0.53824,0.406247 -1.28441,0.54962 -1.91986,0.368924 -1.20918,-0.343816 -1.70079,-1.324336 -1.4588,-2.909576 0.0647,-0.422803 0.37834,-1.578769 0.59128,-2.178085 0.11511,-0.32394 0.0426,-0.253726 -0.44723,0.432695 -0.72007,1.009235 -1.34949,2.175445 -1.75573,3.253091 l -0.18297,0.485255 -0.46273,-0.18819 c -0.25449,-0.103507 -0.47467,-0.199288 -0.48925,-0.21287 -0.0147,-0.01283 0.0488,-0.175444 0.14112,-0.359758 z"
       id="path1503-62-3-6-8-0-36-1" />
    <path
       style="fill:#96d490;fill-opacity:1;stroke:#008000;stroke-width:0.321643;stroke-miterlimit:4;stroke-dasharray:none"
       d="m 350.48371,17.787738 c -1.02291,-0.727279 -1.75403,-1.433705 -2.69754,-2.606384 -0.42233,-0.524883 -0.7702,-0.932702 -0.77305,-0.906254 -0.002,0.0264 0.0463,0.23479 0.1095,0.463018 0.34017,1.23144 0.4592,2.135231 0.37735,2.865223 -0.0896,0.799099 -0.45482,1.385234 -1.0483,1.6824 -0.83078,0.416 -1.83045,0.29635 -2.52008,-0.301638 -0.23827,-0.206623 -0.43183,-0.512696 -0.6261,-0.990188 -0.0343,-0.08422 -0.0911,-0.09309 -0.34181,-0.05401 -0.86972,0.135658 -1.76836,-0.306574 -2.18639,-1.07626 -0.56619,-1.042283 -0.23144,-2.0568 0.90436,-2.740944 0.67349,-0.40567 2.32393,-0.937842 3.43218,-1.106669 0.16341,-0.02492 0.28465,-0.05903 0.26945,-0.07548 -0.0158,-0.01729 -0.24397,-0.0305 -0.50859,-0.02984 -0.7397,6.88e-4 -2.14166,-0.14698 -2.67034,-0.280982 -1.86661,-0.473412 -2.64803,-1.440547 -2.20994,-2.7354151 0.15371,-0.4542419 0.42294,-0.8379658 0.803,-1.1444474 0.38769,-0.3126455 0.76104,-0.4590305 1.2741,-0.4995987 0.20997,-0.016543 0.38743,-0.034668 0.39435,-0.040063 0.006,-0.00461 0.0563,-0.156722 0.10962,-0.3359691 0.0988,-0.3318683 0.33827,-0.7340912 0.59984,-1.0077293 0.414,-0.4330758 1.23521,-0.7156296 1.89881,-0.6533372 1.62341,0.1525389 2.1726,2.0567544 1.49216,5.1741628 -0.0826,0.377633 -0.13964,0.702001 -0.12696,0.720825 0.0125,0.01859 0.073,-0.09064 0.13435,-0.24285 0.41403,-1.027206 1.31264,-2.5095934 1.85628,-3.0621527 0.93937,-0.9548172 2.00204,-1.0476473 2.90751,-0.2539956 0.65229,0.5717261 0.88129,1.5456753 0.55296,2.3518473 -0.0953,0.233779 -0.0992,0.290644 -0.0245,0.342803 0.42573,0.297018 0.68065,0.552363 0.83064,0.832073 0.31872,0.594278 0.34573,1.353618 0.0695,1.953744 -0.52555,1.141992 -1.56997,1.477097 -3.09919,0.99438 -0.40785,-0.128805 -1.50188,-0.616449 -2.06136,-0.918953 -0.3024,-0.16348 -0.24416,-0.08106 0.35883,0.508411 0.88661,0.866608 1.94224,1.667751 2.94467,2.234755 l 0.45137,0.255372 -0.25705,0.428307 c -0.14139,0.235562 -0.26987,0.438402 -0.28554,0.450739 -0.015,0.01254 -0.16585,-0.07521 -0.33379,-0.194734 z"
       id="path1503-62-3-6-8-0-3-0-9" />
    <path
       style="fill:#96d490;fill-opacity:1;stroke:#008000;stroke-width:0.361505;stroke-miterlimit:4;stroke-dasharray:none"
       d="m 347.89006,21.019402 c 0.70383,-1.222507 1.41569,-2.116332 2.62636,-3.297833 0.54189,-0.528845 0.9608,-0.961819 0.93091,-0.962171 -0.0299,-6.98e-4 -0.25771,0.07697 -0.50627,0.172173 -1.3412,0.512798 -2.33957,0.742996 -3.16507,0.729824 -0.90364,-0.01441 -1.59861,-0.360139 -1.9948,-0.992206 -0.55461,-0.884809 -0.52808,-2.016084 0.0669,-2.851828 0.20558,-0.288763 0.52724,-0.538167 1.04059,-0.806795 0.0906,-0.04731 0.0944,-0.111816 0.0237,-0.388195 -0.24515,-0.958471 0.15314,-2.011353 0.96937,-2.56168 1.10531,-0.7453396 2.27628,-0.4797687 3.16364,0.717499 0.52617,0.709941 1.29876,2.499294 1.60664,3.721056 0.0455,0.180167 0.0965,0.312143 0.11336,0.293365 0.0177,-0.01952 0.007,-0.276213 -0.0212,-0.572209 -0.0802,-0.82749 -0.0655,-2.411846 0.0277,-3.017716 0.32923,-2.139165 1.32735,-3.1172598 2.82307,-2.7661477 0.52471,0.1232021 0.98292,0.383202 1.36662,0.7755065 0.3914,0.4001775 0.59527,0.8021472 0.69573,1.3718102 0.0411,0.233126 0.0804,0.42972 0.0872,0.436887 0.005,0.0065 0.18139,0.0462 0.38765,0.08664 0.3819,0.07483 0.85762,0.29964 1.19185,0.562896 0.52897,0.416686 0.93325,1.305101 0.93481,2.054216 0.004,1.832635 -2.0678,2.651515 -5.62859,2.224966 -0.43136,-0.05187 -0.80038,-0.08087 -0.82007,-0.0647 -0.0196,0.01533 0.10925,0.07185 0.2861,0.124236 1.19369,0.352916 2.94866,1.199127 3.62522,1.748004 1.1691,0.948449 1.38706,2.127384 0.59634,3.22563 -0.56961,0.791161 -1.63466,1.151922 -2.57186,0.871153 -0.27176,-0.08153 -0.33581,-0.07976 -0.38615,0.0093 -0.28659,0.508197 -0.54489,0.820805 -0.84172,1.018662 -0.63066,0.420387 -1.47729,0.532126 -2.17837,0.287556 -1.33407,-0.46536 -1.82112,-1.597863 -1.44525,-3.360573 0.10028,-0.470139 0.52842,-1.746479 0.80679,-2.404891 0.15043,-0.355881 0.0645,-0.281875 -0.53028,0.456045 -0.87436,1.084963 -1.65732,2.352016 -2.18406,3.534401 l -0.23724,0.532413 -0.50678,-0.241614 c -0.27874,-0.132878 -0.51946,-0.254851 -0.53494,-0.271045 -0.0156,-0.01533 0.0664,-0.193637 0.18202,-0.394357 z"
       id="path1503-62-3-6-8-0-3-5-6-4"
       inkscape:transform-center-x="-0.92549157"
       inkscape:transform-center-y="0.47351133" />
    <path
       style="fill:#7ed475;fill-opacity:1;stroke:#008000;stroke-width:0.3554;stroke-miterlimit:4;stroke-dasharray:none"
       d="m 375.48874,20.235985 c -1.12657,-0.808748 -1.93087,-1.592991 -2.96749,-2.893483 -0.46398,-0.582091 -0.84629,-1.034456 -0.84958,-1.005247 -0.004,0.02919 0.0499,0.259657 0.11859,0.512156 0.36967,1.362376 0.49662,2.361599 0.40252,3.167782 -0.10302,0.882503 -0.50954,1.52831 -1.16679,1.853673 -0.92006,0.45546 -2.02403,0.318222 -2.78301,-0.346009 -0.26223,-0.229502 -0.47455,-0.568669 -0.68681,-1.097243 -0.0374,-0.09324 -0.10003,-0.10332 -0.37739,-0.06145 -0.96167,0.145512 -1.95239,-0.347654 -2.4104,-1.200223 -0.62035,-1.154507 -0.24537,-2.273789 1.01306,-3.024 0.74621,-0.444854 2.57252,-1.024547 3.79791,-1.205504 0.18071,-0.02668 0.31483,-0.06377 0.29812,-0.08208 -0.0174,-0.01925 -0.26942,-0.03496 -0.56181,-0.0356 -0.81732,-0.0027 -2.36566,-0.173204 -2.94914,-0.323931 -2.06008,-0.532497 -2.91864,-1.605048 -2.42805,-3.033583 0.17213,-0.501142 0.47154,-0.923769 0.89303,-1.2605 0.42995,-0.3435 0.84321,-0.5033637 1.41031,-0.5455962 0.23209,-0.017203 0.42825,-0.03635 0.43593,-0.042292 0.007,-0.00561 0.063,-0.172889 0.12295,-0.3706812 0.11075,-0.3661917 0.37747,-0.8094176 0.66786,-1.110443 0.45963,-0.4764319 1.36843,-0.7845043 2.10135,-0.7123196 1.79299,0.1767358 2.39022,2.2835308 1.62269,5.724628 -0.0932,0.416844 -0.15786,0.774966 -0.14397,0.795827 0.0131,0.02054 0.0811,-0.09978 0.14966,-0.267663 0.46265,-1.132901 1.46304,-2.766322 2.06649,-3.374118 1.04278,-1.0502783 2.21742,-1.1475057 3.21391,-0.266007 0.71786,0.635015 0.96597,1.712318 0.59913,2.60144 -0.10651,0.257817 -0.11112,0.320639 -0.0288,0.378647 0.46891,0.330326 0.74928,0.613763 0.91362,0.923572 0.34916,0.658246 0.37517,1.497401 0.067,2.159113 -0.58644,1.25918 -1.74215,1.624181 -3.4294,1.083103 -0.45002,-0.144368 -1.65639,-0.688698 -2.27305,-1.025765 -0.33332,-0.182156 -0.26938,-0.09083 0.39393,0.563574 0.97527,0.962013 2.13764,1.852538 3.24241,2.484094 l 0.49744,0.284441 -0.28619,0.471961 c -0.1574,0.259565 -0.30039,0.483042 -0.31776,0.496595 -0.0166,0.01375 -0.18288,-0.08385 -0.36785,-0.216849 z"
       id="path1503-62-3-6-8-0-3-5-5-2-7"
       inkscape:transform-center-x="-0.67852281"
       inkscape:transform-center-y="-0.98817709" />
    <path
       style="fill:#96d490;fill-opacity:1;stroke:#008000;stroke-width:0.3554;stroke-miterlimit:4;stroke-dasharray:none"
       d="m 378.44337,23.694966 c -0.24374,-1.365228 -0.27351,-2.488193 -0.10987,-4.143208 0.0732,-0.740776 0.11461,-1.331615 0.0918,-1.312966 -0.0229,0.01841 -0.14524,0.220957 -0.27205,0.449835 -0.68488,1.234379 -1.29055,2.039204 -1.92008,2.55151 -0.68913,0.560822 -1.43085,0.74032 -2.12885,0.515317 -0.97711,-0.314978 -1.67282,-1.183072 -1.75378,-2.188403 -0.028,-0.347358 0.0563,-0.738518 0.27266,-1.265428 0.0383,-0.09287 2.9e-4,-0.143847 -0.2277,-0.307169 -0.79084,-0.566186 -1.15719,-1.610459 -0.8911,-2.540967 0.36025,-1.260128 1.40942,-1.801066 2.83461,-1.461461 0.84509,0.201371 2.55847,1.059146 3.56306,1.783783 0.14814,0.106871 0.27016,0.17379 0.27095,0.149006 9.3e-4,-0.02594 -0.16876,-0.212889 -0.37792,-0.417225 -0.58396,-0.571847 -1.57508,-1.77353 -1.88827,-2.288393 -1.10553,-1.818058 -0.97318,-3.185529 0.3745,-3.8675439 0.47281,-0.239235 0.9821,-0.3334503 1.519,-0.2809655 0.54772,0.053541 0.95542,0.227058 1.39141,0.5921796 0.17835,0.1494806 0.33234,0.2725232 0.34199,0.2736107 0.009,8.646e-4 0.16573,-0.07995 0.34654,-0.1800369 0.33471,-0.1852802 0.83492,-0.3170603 1.25298,-0.3304008 0.66167,-0.021103 1.52795,0.3917178 2.00301,0.9544638 1.1621,1.376803 0.12134,3.303478 -2.82806,5.235115 -0.35743,0.233861 -0.65347,0.445486 -0.65807,0.470121 -0.005,0.02389 0.12766,-0.01506 0.29392,-0.08747 1.12152,-0.489568 2.97751,-0.963017 3.83387,-0.977974 1.47979,-0.02585 2.38964,0.72341 2.48938,2.050088 0.0719,0.955719 -0.50138,1.900979 -1.38427,2.282592 -0.2561,0.11057 -0.30317,0.152428 -0.28465,0.251357 0.10589,0.563722 0.10925,0.962392 0.0112,1.299059 -0.20862,0.715323 -0.77505,1.335007 -1.45734,1.594489 -1.29833,0.49377 -2.38129,-0.05039 -3.21358,-1.614615 -0.22193,-0.417244 -0.70721,-1.648554 -0.91427,-2.32013 -0.11199,-0.362974 -0.12977,-0.252918 -0.11049,0.678659 0.0284,1.369598 0.24077,2.818408 0.5924,4.041407 l 0.15828,0.550736 -0.53421,0.138791 c -0.29381,0.07633 -0.55213,0.136829 -0.57402,0.13444 -0.0214,-0.0019 -0.0726,-0.187614 -0.11249,-0.411919 z"
       id="path1503-62-3-6-8-0-3-5-5-6-6-8"
       inkscape:transform-center-x="1.2149181"
       inkscape:transform-center-y="-6.8519421" />
    <path
       style="fill:#96d490;fill-opacity:1;stroke:#008000;stroke-width:0.3554;stroke-miterlimit:4;stroke-dasharray:none"
       d="m 406.94272,18.544254 c 0.37216,-1.335946 0.83211,-2.360826 1.69699,-3.781339 0.38712,-0.635807 0.6805,-1.150322 0.65188,-1.143399 -0.0287,0.0067 -0.22668,0.136157 -0.44018,0.287442 -1.15225,0.815495 -2.04692,1.278229 -2.83633,1.467017 -0.86412,0.206677 -1.61032,0.04691 -2.14181,-0.458421 -0.74401,-0.707403 -0.99464,-1.791276 -0.63183,-2.732343 0.12532,-0.325176 0.37088,-0.641118 0.79425,-1.022163 0.0747,-0.06711 0.0627,-0.129512 -0.072,-0.3755 -0.46724,-0.8530378 -0.34467,-1.9529169 0.29842,-2.6761079 0.87086,-0.9794252 2.05085,-1.0120947 3.18795,-0.088274 0.67428,0.5477952 1.8465,2.0635119 2.43769,3.1520019 0.0872,0.160519 0.16812,0.273716 0.17956,0.251724 0.0125,-0.02297 -0.0598,-0.264997 -0.15965,-0.539814 -0.27837,-0.768461 -0.65063,-2.2810051 -0.70969,-2.8807466 -0.20814,-2.1175902 0.50387,-3.2925377 2.01399,-3.3229515 0.52978,-0.010638 1.02956,0.1252236 1.49067,0.4052638 0.47038,0.2856741 0.76255,0.6187638 0.99718,1.1367969 0.0959,0.2120255 0.18137,0.3896468 0.18959,0.3948134 0.007,0.00465 0.18401,-2.078e-4 0.39031,-0.012034 0.38197,-0.021871 0.88987,0.076206 1.27238,0.2454031 0.60543,0.2678009 1.20713,1.0153307 1.3913,1.7283909 0.45044,1.744473 -1.32264,3.029569 -4.81786,3.49179 -0.42347,0.05581 -0.782,0.118189 -0.79681,0.138395 -0.0148,0.01936 0.12158,0.04175 0.30278,0.04857 1.2229,0.04498 3.10068,0.42286 3.87889,0.780595 1.34472,0.618172 1.83987,1.687767 1.35467,2.926558 -0.34951,0.892416 -1.27587,1.495751 -2.23692,1.456937 -0.27871,-0.01134 -0.33927,0.006 -0.36548,0.103121 -0.14894,0.553906 -0.31872,0.914633 -0.553,1.175525 -0.49811,0.554185 -1.27717,0.867087 -2.00451,0.805162 -1.38404,-0.117821 -2.12407,-1.077642 -2.19604,-2.84804 -0.0192,-0.472217 0.0772,-1.79219 0.18182,-2.487134 0.0564,-0.375652 -0.007,-0.284182 -0.39375,0.563683 -0.5681,1.246544 -1.00476,2.644212 -1.21802,3.898764 l -0.096,0.564916 -0.54157,-0.106497 c -0.29787,-0.05857 -0.55687,-0.116026 -0.57558,-0.127678 -0.0186,-0.01096 0.016,-0.200559 0.0772,-0.419968 z"
       id="path1503-62-3-6-8-0-3-5-5-6-9-1-4"
       inkscape:transform-center-x="-1.5487388"
       inkscape:transform-center-y="-6.9124722" />
  </g>
</svg>
