<?xml version="1.0" encoding="UTF-8" standalone="no"?>
<!-- Created with Inkscape (http://www.inkscape.org/) -->

<svg
   width="22.079mm"
   height="33.973999mm"
   viewBox="0 0 22.079 33.973999"
   version="1.1"
   id="svg5"
   inkscape:version="1.1.2 (0a00cf5339, 2022-02-04)"
   sodipodi:docname="leaf.svg"
   xmlns:inkscape="http://www.inkscape.org/namespaces/inkscape"
   xmlns:sodipodi="http://sodipodi.sourceforge.net/DTD/sodipodi-0.dtd"
   xmlns="http://www.w3.org/2000/svg"
   xmlns:svg="http://www.w3.org/2000/svg">
  <sodipodi:namedview
     id="namedview7"
     pagecolor="#ffffff"
     bordercolor="#666666"
     borderopacity="1.0"
     inkscape:pageshadow="2"
     inkscape:pageopacity="0.0"
     inkscape:pagecheckerboard="0"
     inkscape:document-units="mm"
     showgrid="false"
     inkscape:zoom="2.0535659"
     inkscape:cx="45.530558"
     inkscape:cy="57.704504"
     inkscape:window-width="1920"
     inkscape:window-height="990"
     inkscape:window-x="0"
     inkscape:window-y="28"
     inkscape:window-maximized="1"
     inkscape:current-layer="layer1" />
  <defs
     id="defs2" />
  <g
     inkscape:label="Vrstva 1"
     inkscape:groupmode="layer"
     id="layer1">
    <path
       style="fill:#008000;stroke-width:0.262707"
       d="m 12.079291,33.5032 c -0.60409,-0.89012 -1.64093,-3.93437 -2.1975105,-6.45209 -0.3195,-1.44525 -0.47816,-3.32589 -0.48801,-5.78457 l -0.0146,-3.6431 -0.58524,0.8313 c -0.32189,0.45722 -1.03899,1.03918 -1.59357,1.29326 -0.90284,0.41362 -1.12042,0.42424 -2.07969,0.10143 -1.426971,-0.48022 -2.36399,-1.79216 -2.132153,-2.98529 0.152829,-0.78652 0.110526,-0.86002 -0.495001,-0.86002 -0.953866,0 -2.01115699,-0.90873 -2.35811499,-2.02677 -0.614942,-1.98163 0.91538399,-3.73066 3.56228499,-4.0714 0.698485,-0.0899 1.269984,-0.26468 1.269984,-0.38836 0,-0.12368 -0.162422,-0.22488 -0.360934,-0.22488 -0.660313,0 -2.589614,-1.55058 -3.024287,-2.43062 -0.95611399,-1.93575 0.448538,-4.02265 2.707566,-4.02265 1.103125,0 1.160345,-0.0385 1.326245,-0.89227 C 5.8602805,0.69137 6.8670605,0 8.4517505,0 c 1.11829,0 1.37218,0.10899 2.0882705,0.8964 0.84959,0.9342 1.37092,2.29864 1.38349,3.62089 0.007,0.76877 0.0109,0.7669 0.49488,-0.25813 1.19525,-2.53147 3.06416,-3.62961 4.90995,-2.88502 1.17199,0.47278 1.90342,1.68955 1.75474,2.91911 -0.084,0.69491 -0.0111,0.86937 0.36334,0.86937 1.42524,0 2.63253,1.34592 2.63253,2.93482 0,1.76129 -2.08269,3.24824 -4.5762,3.2672 -0.89094,0.007 -0.88064,0.0195 0.67374,0.83349 1.82794,0.95724 2.56323,1.94809 2.56464,3.45603 6.6e-4,0.83275 -0.17644,1.25315 -0.79991,1.89753 -0.71182,0.73568 -0.9349,0.81749 -2.00523,0.7353 -0.88254,-0.0678 -1.20431,0.001 -1.20431,0.25757 0,0.72005 -0.85104,2.04458 -1.49597,2.32828 -1.81063,0.79649 -3.78477,0.0605 -4.42537,-1.6499 -0.61116,-1.63177 -0.8510205,-1.00602 -0.67557,1.76247 0.27114,4.27833 1.03897,7.57479 2.52562,10.84308 0.61774,1.35802 0.64241,1.53579 0.26386,1.90127 -0.37855,0.36547 -0.45755,0.34429 -0.84497,-0.22656 z"
       id="path908" />
  </g>
</svg>
