<?xml version="1.0" encoding="UTF-8" standalone="no"?>
<!-- Created with Inkscape (http://www.inkscape.org/) -->

<svg
   width="600"
   height="320"
   viewBox="0 0 158.75 84.666669"
   version="1.1"
   id="svg5"
   inkscape:version="1.1.2 (0a00cf5339, 2022-02-04)"
   sodipodi:docname="sprites.svg"
   xmlns:inkscape="http://www.inkscape.org/namespaces/inkscape"
   xmlns:sodipodi="http://sodipodi.sourceforge.net/DTD/sodipodi-0.dtd"
   xmlns="http://www.w3.org/2000/svg"
   xmlns:svg="http://www.w3.org/2000/svg">
  <sodipodi:namedview
     id="namedview7"
     pagecolor="#ffffff"
     bordercolor="#666666"
     borderopacity="1.0"
     inkscape:pageshadow="2"
     inkscape:pageopacity="0.0"
     inkscape:pagecheckerboard="0"
     inkscape:document-units="mm"
     showgrid="false"
     inkscape:snap-bbox="true"
     inkscape:snap-global="true"
     units="px"
     inkscape:zoom="1.0267829"
     inkscape:cx="324.80088"
     inkscape:cy="187.47877"
     inkscape:window-width="1920"
     inkscape:window-height="990"
     inkscape:window-x="0"
     inkscape:window-y="28"
     inkscape:window-maximized="1"
     inkscape:current-layer="layer1" />
  <defs
     id="defs2" />
  <g
     inkscape:label="Vrstva 1"
     inkscape:groupmode="layer"
     id="layer1">
    <path
       style="fill:#e6e6e6;stroke-width:0.279717"
       d="m 140.56648,71.992469 c -0.35959,-0.54442 -0.42284,-1.916267 -0.42284,-9.172641 0,-7.900311 0.0367,-8.567793 0.49674,-9.009171 0.65169,-0.625392 1.48262,-0.605021 2.04168,0.05005 0.39729,0.465523 0.44955,1.531764 0.44955,9.172648 0,8.010195 -0.0366,8.680944 -0.49675,9.122592 -0.69173,0.663816 -1.56765,0.594585 -2.06838,-0.163474 z"
       id="path926" />
    <path
       style="fill:#ececec;stroke-width:0.279717"
       d="m 123.89441,82.229627 c -0.49605,-0.259207 -1.22947,-0.926556 -1.62979,-1.483001 L 121.53674,79.734942 121.40087,62.285849 121.265,44.836764 120.62453,43.56321 c -0.80072,-1.592298 -0.73431,-4.051572 0.14498,-5.370207 0.31002,-0.464903 0.65335,-1.284113 0.76295,-1.820458 0.11665,-0.570932 0.67498,-1.479622 1.3469,-2.192117 1.70987,-1.813154 3.90209,-2.223049 6.39877,-1.196423 0.26918,0.110681 0.66414,-0.226202 1.16387,-0.992708 1.48384,-2.276048 4.98912,-3.223454 7.39258,-1.998079 1.27923,0.652197 1.69841,1.009355 2.53848,2.162871 0.55115,0.756814 0.79739,0.860201 2.10238,0.882752 1.63872,0.02833 2.59013,0.587131 3.50816,2.060508 0.29879,0.479558 0.98898,1.145366 1.53374,1.479565 0.64218,0.393965 1.21278,1.091764 1.62266,1.984401 0.59594,1.297848 0.62782,1.650947 0.55599,6.159819 l -0.0763,4.78305 2.31622,0.153236 c 2.90231,0.192004 4.39713,1.014106 5.51692,3.034098 0.7376,1.330564 0.75628,1.475655 0.84754,6.585865 0.10877,6.090566 -0.14636,7.869309 -1.35054,9.418471 -1.29288,1.663243 -2.55243,2.206554 -5.11538,2.206554 h -2.18389 l -0.005,3.384472 c -0.0106,4.992453 -0.42786,6.328189 -2.43547,7.777089 -0.89434,0.645432 -0.94186,0.648064 -11.65526,0.641519 -9.40318,-0.0055 -10.8708,-0.06583 -11.65919,-0.477861 z"
       id="path916" />
    <path
       style="fill:#ffffff;stroke-width:0.279717"
       d="m 154.35842,67.434819 c 1.03468,-0.863039 1.26521,-2.197581 1.26641,-7.331926 7.7e-4,-3.812812 -0.081,-4.782723 -0.47384,-5.616777 -0.6273,-1.331569 -1.96305,-2.015274 -3.93828,-2.015837 l -1.56189,-4.49e-4 v 7.777083 7.777086 h 2.00063 c 1.60413,0 2.14059,-0.116763 2.70697,-0.58918 z"
       id="path928" />
    <path
       style="fill:#e6e6e6;stroke-width:0.279717"
       d="m 134.31891,71.992469 c -0.35961,-0.54442 -0.42284,-1.916267 -0.42284,-9.172641 0,-7.900311 0.0369,-8.567793 0.49674,-9.009171 0.65171,-0.625392 1.48263,-0.605021 2.04167,0.05005 0.3973,0.465523 0.44955,1.531764 0.44955,9.172648 0,8.010195 -0.0366,8.680944 -0.49674,9.122592 -0.69173,0.663816 -1.56765,0.594585 -2.06838,-0.163474 z"
       id="path924" />
    <path
       style="fill:#ececec;stroke-width:0.317283"
       d="M 88.018349,82.294485 C 87.806502,82.039233 87.172975,74.160696 86.403918,62.217668 85.496294,48.122534 85.000457,42.170618 84.65142,41.181342 c -0.792347,-2.245732 -0.623577,-3.500938 0.863314,-6.421476 1.170294,-2.298625 1.540021,-2.749296 2.776225,-3.384045 0.947924,-0.486728 1.762388,-0.681137 2.428955,-0.579786 0.875694,0.133151 1.052194,0.03327 1.392201,-0.787562 0.584587,-1.411331 2.670935,-3.03167 4.454456,-3.459532 2.463885,-0.591085 4.487639,0.03158 6.364169,1.958147 1.38198,1.418847 1.61768,1.538763 3.02638,1.53986 1.80984,8.98e-4 3.34475,0.825129 4.03895,2.167575 0.26385,0.510228 0.98339,1.224852 1.59894,1.58804 1.28092,0.755752 2.29982,2.258242 2.59653,3.828834 0.25389,1.343848 -2.35654,43.387257 -2.75485,44.369335 l -0.28952,0.713877 H 99.757053 c -9.065039,0 -11.461214,-0.08579 -11.738704,-0.420124 z"
       id="path908" />
    <path
       style="fill:#f9f9f9;stroke-width:0.317283"
       d="m 109.59405,61.456701 c 0.46363,-7.416473 0.92648,-14.519634 1.02856,-15.784797 l 0.18567,-2.300297 h -1.38446 -1.38443 l -0.14583,1.758212 c -0.23062,2.780938 -1.93583,4.571464 -4.58904,4.818661 -2.69103,0.250711 -4.861511,-1.795125 -5.112238,-4.818661 l -0.14584,-1.758212 h -4.719923 c -4.683743,0 -4.719893,0.0053 -4.718093,0.713887 9e-4,0.392643 0.429287,7.281627 0.951734,15.308868 0.522477,8.027242 0.949964,14.847036 0.950024,15.155093 9e-5,0.52425 0.583997,0.554722 9.120479,0.475926 l 9.120417,-0.08417 z"
       id="path912" />
    <path
       style="fill:#f9f9f9;stroke-width:0.279717"
       d="m 131.98841,47.585478 c 0.15282,-0.302797 0.27785,-1.461823 0.27785,-2.575624 0,-1.707342 0.0823,-2.071865 0.52542,-2.323255 0.32214,-0.18283 3.16281,-0.298174 7.34262,-0.298174 5.37847,0 6.84612,-0.07986 6.95412,-0.37829 0.0753,-0.208057 -0.0203,-0.883949 -0.21225,-1.501977 -0.32999,-1.062034 -0.5509,-1.262133 -2.37241,-2.148852 -0.2164,-0.105359 -0.48899,-0.570328 -0.60576,-1.033287 -0.1982,-0.785815 -0.87035,-1.56252 -1.35221,-1.56252 -0.11576,0 -0.58548,0.388855 -1.04398,0.864118 -0.45849,0.475271 -1.03371,0.864127 -1.27824,0.864127 -0.69489,0 -1.43799,-0.878269 -1.43912,-1.700876 -0.002,-1.062631 -0.91294,-2.510304 -1.93262,-3.069449 -2.00242,-1.098043 -4.6126,0.443024 -4.99122,2.946845 -0.23271,1.539079 -0.49379,1.953972 -1.29376,2.056008 -0.52649,0.06711 -0.86913,-0.155109 -1.42028,-0.921354 -0.9914,-1.37828 -2.26049,-1.805623 -3.50399,-1.179897 -0.8972,0.451455 -1.79695,1.858239 -1.79695,2.809534 0,0.231933 -0.25231,0.761836 -0.56071,1.177559 -0.36984,0.498583 -0.53163,1.075549 -0.47534,1.69507 l 0.0853,0.939218 3.06662,0.144021 c 2.32099,0.108993 3.12905,0.24907 3.32335,0.576076 0.1411,0.23764 0.25861,1.429253 0.26089,2.648045 0.004,1.939675 0.0771,2.270176 0.58944,2.650668 0.66707,0.495464 1.39555,0.229059 1.8532,-0.677734 z"
       id="path930" />
    <path
       style="fill:#e6e6e6;stroke-width:0.279717"
       d="m 128.07135,71.992469 c -0.35961,-0.54442 -0.42285,-1.916267 -0.42285,-9.172641 0,-7.900311 0.0369,-8.567793 0.49674,-9.009171 0.65169,-0.625392 1.48261,-0.605021 2.04168,0.05005 0.39727,0.465523 0.44955,1.531764 0.44955,9.172648 0,8.010195 -0.0366,8.680944 -0.49676,9.122592 -0.69171,0.663816 -1.56765,0.594585 -2.06836,-0.163474 z"
       id="path922" />
    <path
       style="fill:#f9f9f9;stroke-width:0.279717"
       d="M 146.66285,60.678977 V 45.556863 h -5.8065 -5.80647 l -0.12486,1.596168 c -0.21466,2.744873 -2.07288,4.602155 -4.37672,4.374551 -2.27149,-0.224414 -3.73136,-1.849918 -3.9288,-4.374551 l -0.12485,-1.596168 h -1.18873 -1.18871 V 60.678977 75.801086 H 135.39 146.66279 Z"
       id="path920" />
    <path
       style="fill:#ececec;stroke-width:0.317283"
       d="m 49.264468,81.995503 c -1.546954,-0.883322 -2.415611,-2.512303 -2.636059,-4.943335 -0.213503,-2.354666 0.151962,-3.49475 2.45738,-7.663416 2.206622,-3.990236 2.849623,-6.031693 2.841249,-9.020809 -0.01634,-5.753603 -0.878176,-8.97161 -5.232983,-19.534591 -2.747375,-6.66402 -3.366009,-12.815034 -2.058234,-20.464712 0.349024,-2.041491 0.634566,-4.273309 0.634566,-4.959591 0,-1.699582 0.646964,-3.114959 1.94465,-4.254343 0.598046,-0.525077 1.347952,-1.6371177 1.666501,-2.4711981 0.884304,-2.3155408 3.503266,-3.7431669 5.739014,-3.1284292 0.812571,0.2234237 1.081548,0.119691 1.955292,-0.7540447 2.047387,-2.0473979 5.59661,-2.1090326 7.84351,-0.1362147 0.879401,0.7721184 1.24362,0.8962624 2.182479,0.7439154 1.613355,-0.2618107 3.234431,0.3821387 4.362017,1.7327501 1.20224,1.4400651 1.159899,1.3978571 2.671251,2.6631265 1.546892,1.2950397 2.093651,2.5783947 2.097021,4.9220877 0.0018,1.009008 0.212829,3.405109 0.469736,5.32467 1.242252,9.282166 0.34073,15.345552 -3.868344,26.017141 -2.748907,6.969558 -3.525386,9.731609 -3.79371,13.494706 -0.24792,3.477104 0.297695,5.451025 2.65442,9.603187 2.358482,4.155246 2.727768,5.298549 2.548783,7.890769 -0.177494,2.569698 -0.924234,3.97096 -2.63179,4.938148 -1.219519,0.690755 -1.498403,0.708851 -10.928552,0.708851 -9.432458,0 -9.708503,-0.01838 -10.918197,-0.708668 z"
       id="path900" />
    <path
       style="fill:#f2f2f2;stroke-width:0.279717"
       d="m 145.96155,79.658805 c 0.2363,-0.09605 0.42966,-0.355387 0.42966,-0.576082 0,-0.336344 -1.77897,-0.401242 -11.00116,-0.401242 -6.05063,0 -11.00115,0.103653 -11.00115,0.230447 0,0.855222 0.7862,0.921716 10.89745,0.921716 5.63503,0 10.43887,-0.07881 10.6752,-0.174857 z"
       id="path918" />
    <path
       style="fill:#f9f9f9;stroke-width:0.317283"
       d="m 70.153956,74.392521 c -0.123368,-0.389028 -0.99368,-2.066655 -1.933805,-3.728066 -2.57801,-4.555995 -3.081059,-6.518906 -2.876829,-11.225635 0.191792,-4.421404 0.838245,-6.947228 3.433801,-13.417919 2.336994,-5.826075 3.393685,-9.056505 3.975697,-12.154076 0.564671,-3.005352 0.711099,-8.691692 0.321041,-12.467014 l -0.254047,-2.458942 h -2.793801 -2.793781 l -0.119282,2.363525 c -0.08844,1.752466 -0.287095,2.58819 -0.768187,3.232544 -1.061981,1.422422 -2.215772,2.098783 -3.838114,2.249935 -1.23684,0.115238 -1.742463,-9.01e-4 -2.633649,-0.607103 -1.895772,-1.288617 -2.545821,-2.581887 -2.545821,-5.064841 v -2.17406 h -4.561794 -4.561816 l -0.43538,2.617584 c -0.239464,1.439669 -0.42623,4.402291 -0.415038,6.58361 0.0241,4.690263 0.629685,7.351969 2.861736,12.577715 3.551142,8.314028 4.385383,11.191577 4.87054,16.799982 0.506562,5.855801 0.0082,7.940219 -3.361047,14.036874 -0.932077,1.686953 -1.694687,3.174297 -1.694687,3.305196 0,0.130904 4.578482,0.238003 10.174418,0.238003 h 10.174418 z"
       id="path904" />
    <path
       style="fill:#ececec;stroke-width:0.317283"
       d="M 9.7331463,81.823238 C 8.3599702,80.596305 8.0850872,78.243031 9.1564066,76.885745 10.282117,75.459559 11.553787,75.099833 15.469793,75.099833 h 3.500296 V 70.713885 66.327938 L 16.987073,65.961214 C 10.940216,64.842975 5.4271949,59.725685 3.6121626,53.546379 c -0.6551748,-2.23056 -0.6637799,-6.99066 -0.016544,-9.170045 0.269286,-0.906782 1.0545603,-2.816936 1.745052,-4.244789 1.3874765,-2.869119 1.4761806,-3.451623 0.7795164,-5.118981 -1.6986381,-4.065388 1.3368898,-8.774198 5.656267,-8.774198 1.272508,0 1.471484,-0.110663 2.212677,-1.230688 0.967917,-1.462624 3.07311,-2.579612 4.843185,-2.569728 1.652763,0.0092 3.715168,0.976757 4.582373,2.149713 0.614468,0.831113 0.846108,0.927033 1.898046,0.785936 1.610316,-0.215984 3.303292,0.38893 4.255456,1.520516 0.627595,0.745849 1.037015,0.930663 2.061677,0.930663 0.976596,0 1.542411,0.231655 2.395668,0.980832 1.862316,1.635141 2.150575,4.062423 0.724599,6.101475 -0.81784,1.16945 -0.627131,2.303931 0.984774,5.857608 1.838276,4.052735 2.069692,4.989379 2.055231,8.317995 -0.02206,5.064856 -1.783414,9.02455 -5.604142,12.598364 -2.26247,2.116266 -5.214374,3.675219 -8.060057,4.256661 l -1.983014,0.40518 v 4.378474 4.378466 h 3.500296 c 4.065155,0 5.378483,0.407645 6.327321,1.963916 0.761371,1.248809 0.817233,2.489305 0.168588,3.743669 -0.988126,1.910806 -0.965948,1.907191 -11.648203,1.907191 h -9.760154 z"
       id="path854" />
    <path
       style="fill:#f9f9f9;stroke-width:0.317283"
       d="m 104.47064,43.387672 c 0.2014,-3.31027 0.4264,-3.506163 4.02666,-3.506163 h 2.63627 l -0.0123,-0.872528 c -0.0184,-1.408091 -0.75889,-2.3952 -2.07441,-2.764297 -0.91711,-0.257313 -1.25871,-0.548174 -1.44001,-1.226084 -0.49475,-1.849904 -1.87165,-2.388652 -2.97863,-1.165456 -0.64222,0.709667 -2.1346,0.845383 -2.61667,0.237958 -0.17321,-0.218127 -0.40654,-0.90701 -0.51874,-1.53083 -0.23019,-1.280171 -1.530767,-2.685205 -2.768541,-2.990897 -2.021298,-0.499193 -4.090406,1.415322 -4.090406,3.784774 0,0.845257 -0.19526,1.24684 -0.798147,1.641896 -0.764294,0.500783 -0.851534,0.485953 -2.057378,-0.3497 -1.205854,-0.835642 -1.293084,-0.850473 -2.057388,-0.349689 -0.438977,0.287632 -0.798147,0.761859 -0.798147,1.053835 0,0.291984 -0.368367,1.062459 -0.818614,1.712153 -0.465767,0.672109 -0.773467,1.500019 -0.713887,1.920751 l 0.10478,0.739471 6.504264,0.158641 c 3.577329,0.08724 6.682714,0.27415 6.900834,0.415326 0.25911,0.167689 0.39661,1.080167 0.39661,2.631998 0,2.122066 0.0862,2.461438 0.8078,3.183113 0.73977,0.739761 0.86669,0.768846 1.50708,0.345382 0.60039,-0.397017 0.72174,-0.831147 0.85793,-3.069657 z"
       id="path914" />
    <path
       style="fill:#f2f2f2;stroke-width:0.317283"
       d="m 108.5953,78.907234 c 0,-0.61937 -0.21152,-0.634586 -8.831017,-0.634586 -4.857033,0 -8.916309,0.08538 -9.020639,0.189748 -0.10437,0.104372 -0.11274,0.389874 -0.0184,0.634566 0.14093,0.366977 1.720991,0.444899 9.020639,0.444899 8.638447,0 8.849947,-0.0143 8.849947,-0.634545 z"
       id="path910" />
    <path
       style="fill:#f2f2f2;stroke-width:0.317283"
       d="m 69.637671,79.161056 c 0.209398,-0.209418 0.380744,-0.494981 0.380744,-0.634566 0,-0.139503 -4.426091,-0.253842 -9.83575,-0.253842 -5.409681,0 -9.835751,0.114176 -9.835751,0.253842 0,0.918189 0.94084,1.015289 9.835751,1.015289 6.634714,0 9.176613,-0.102329 9.455006,-0.380723 z"
       id="path902" />
    <path
       style="fill:#f2f2f2;stroke-width:0.317283"
       d="M 29.303684,79.189038 C 29.4236,78.995 29.324944,78.711643 29.08445,78.559334 28.595821,78.249833 12.962482,78.162842 12.174471,78.465174 c -0.276033,0.106006 -0.501875,0.391487 -0.501875,0.634566 0,0.367059 1.476115,0.441978 8.706537,0.441978 6.045796,0 8.773163,-0.107844 8.924551,-0.352741 z"
       id="path894" />
    <path
       style="fill:#f9f9f9;stroke-width:0.317283"
       d="m 23.876869,62.556744 c 5.908853,-1.539059 10.146808,-6.54139 10.552164,-12.455389 0.21048,-3.070906 -0.119282,-4.535982 -1.854391,-8.239891 -0.712041,-1.519913 -1.370269,-3.229685 -1.462737,-3.799489 l -0.168119,-1.036006 h -4.67843 -4.678432 l -0.145815,1.758212 c -0.245693,2.962729 -2.068323,4.74607 -4.850648,4.74607 -2.789189,0 -4.604881,-1.782442 -4.85207,-4.763221 -0.139932,-1.687476 -0.187502,-1.770579 -0.960705,-1.678887 -0.633823,0.07518 -0.8745417,0.341719 -1.0899567,1.206954 -0.152065,0.61077 -0.9172954,2.491739 -1.7005121,4.179944 -1.0864622,2.341829 -1.4673386,3.585965 -1.6067049,5.248346 -0.3504696,4.180412 1.0712152,7.937035 4.1771347,11.037531 3.72267,3.716168 8.45126,5.063767 13.319212,3.795826 z"
       id="path896" />
    <path
       style="fill:#f9f9f9;stroke-width:0.317283"
       d="m 63.672756,19.446403 c 0.118874,-2.536222 0.278108,-3.461445 0.634566,-3.686047 0.261768,-0.164932 2.224943,-0.302058 4.36263,-0.30473 l 3.886706,-0.0045 v -1.124913 c 0,-1.266349 -1.144355,-2.68248 -2.167692,-2.68248 -0.743635,0 -1.200095,-0.512702 -1.49203,-1.6758757 -0.207171,-0.8254257 -0.968373,-1.4969404 -1.696873,-1.4969404 -0.177086,0 -0.714244,0.363709 -1.193886,0.8082377 C 64.67003,10.51746 63.623757,10.245272 63.077039,8.5171419 62.272577,5.9742724 59.371299,5.6559267 58.344674,7.9978832 57.594666,9.7088793 57.430898,9.8975883 56.610587,9.9962493 56.120405,10.055259 55.568091,9.8510683 55.214819,9.4803733 54.27449,8.4936689 53.40283,8.3806162 52.45909,9.1229576 c -0.655542,0.5156607 -0.843065,0.9388564 -0.843065,1.9028074 0,1.125082 -0.116218,1.298987 -1.25851,1.881698 -1.187044,0.60558 -1.914298,1.443482 -1.914298,2.205529 0,0.226122 1.793729,0.338141 5.414643,0.338141 3.125709,0 5.674103,0.138849 6.028376,0.328445 0.542489,0.29033 0.613711,0.688298 0.613711,3.429462 0,3.113278 0.239055,3.915789 1.269112,4.260351 0.261767,0.0876 0.761487,-0.01981 1.11049,-0.238616 0.551518,-0.345757 0.655338,-0.841004 0.793207,-3.78401 z"
       id="path906" />
    <path
       style="fill:#f9f9f9;stroke-width:0.317283"
       d="m 17.841611,39.493623 c 0.334082,-0.47697 0.493912,-1.431827 0.493912,-2.950723 0,-1.323503 0.156334,-2.4019 0.380738,-2.626295 0.270291,-0.270291 2.188897,-0.380746 6.613752,-0.380746 5.7399,0 6.276556,-0.04812 6.783402,-0.608171 0.439086,-0.485181 0.478853,-0.741838 0.196653,-1.269127 -0.388322,-0.725586 -1.28844,-0.850312 -2.285512,-0.316701 -0.993144,0.531517 -2.129033,0.09753 -2.366989,-0.904328 -0.251369,-1.058357 -1.009915,-1.978184 -1.631323,-1.978184 -0.253146,0 -0.884467,0.356939 -1.402939,0.793202 -0.518467,0.436263 -1.14588,0.793211 -1.394251,0.793211 -0.652324,0 -1.720707,-1.165889 -1.720707,-1.87775 0,-0.334734 -0.08869,-0.839737 -0.197082,-1.122224 -0.240687,-0.627221 -1.747677,-1.441981 -2.667101,-1.441981 -0.931779,0 -2.529609,1.673769 -2.529609,2.649827 0,1.141686 -0.862087,1.895142 -1.874449,1.638262 -1.963608,-0.498259 -2.984204,-0.53472 -3.734051,-0.133417 -0.9314537,0.49849 -1.6889901,1.829874 -1.6889901,2.968422 0,0.803103 0.0194,0.808957 2.6742361,0.808957 3.470872,0 3.671407,0.188401 3.671407,3.449313 0,1.484179 0.150288,2.602437 0.38074,2.832877 0.605787,0.605787 1.76083,0.442737 2.298171,-0.324426 z"
       id="path898" />
  </g>
</svg>
