<?xml version="1.0" encoding="UTF-8" standalone="no"?>
<!-- Created with Inkscape (http://www.inkscape.org/) -->

<svg
   width="127.491mm"
   height="111.656mm"
   viewBox="0 0 127.491 111.656"
   version="1.1"
   id="svg1059"
   inkscape:version="1.1.2 (0a00cf5339, 2022-02-04)"
   sodipodi:docname="walper-green.svg"
   xmlns:inkscape="http://www.inkscape.org/namespaces/inkscape"
   xmlns:sodipodi="http://sodipodi.sourceforge.net/DTD/sodipodi-0.dtd"
   xmlns="http://www.w3.org/2000/svg"
   xmlns:svg="http://www.w3.org/2000/svg">
  <sodipodi:namedview
     id="namedview1061"
     pagecolor="#ffffff"
     bordercolor="#666666"
     borderopacity="1.0"
     inkscape:pageshadow="2"
     inkscape:pageopacity="0.0"
     inkscape:pagecheckerboard="0"
     inkscape:document-units="mm"
     showgrid="false"
     inkscape:snap-global="false"
     inkscape:zoom="1.0267829"
     inkscape:cx="168.97437"
     inkscape:cy="258.57461"
     inkscape:window-width="1920"
     inkscape:window-height="990"
     inkscape:window-x="0"
     inkscape:window-y="28"
     inkscape:window-maximized="1"
     inkscape:current-layer="layer1" />
  <defs
     id="defs1056">
    <filter
       inkscape:collect="always"
       style="color-interpolation-filters:sRGB"
       id="filter2999"
       x="-0.024298124"
       y="-0.025631482"
       width="1.0485962"
       height="1.051263">
      <feGaussianBlur
         inkscape:collect="always"
         stdDeviation="0.28955087"
         id="feGaussianBlur3001" />
    </filter>
    <filter
       inkscape:collect="always"
       style="color-interpolation-filters:sRGB"
       id="filter3003"
       x="-0.028393428"
       y="-0.042934343"
       width="1.0567869"
       height="1.0858687">
      <feGaussianBlur
         inkscape:collect="always"
         stdDeviation="0.28955087"
         id="feGaussianBlur3005" />
    </filter>
    <filter
       inkscape:collect="always"
       style="color-interpolation-filters:sRGB"
       id="filter3007"
       x="-0.031197288"
       y="-0.041133861"
       width="1.0623946"
       height="1.0822677">
      <feGaussianBlur
         inkscape:collect="always"
         stdDeviation="0.28955087"
         id="feGaussianBlur3009" />
    </filter>
    <filter
       inkscape:collect="always"
       style="color-interpolation-filters:sRGB"
       id="filter3011"
       x="-0.02841668"
       y="-0.037467599"
       width="1.0568334"
       height="1.0749352">
      <feGaussianBlur
         inkscape:collect="always"
         stdDeviation="0.28955087"
         id="feGaussianBlur3013" />
    </filter>
    <filter
       inkscape:collect="always"
       style="color-interpolation-filters:sRGB"
       id="filter3015"
       x="-0.039258933"
       y="-0.031846916"
       width="1.0785179"
       height="1.0636938">
      <feGaussianBlur
         inkscape:collect="always"
         stdDeviation="0.28955087"
         id="feGaussianBlur3017" />
    </filter>
    <filter
       inkscape:collect="always"
       style="color-interpolation-filters:sRGB"
       id="filter3019"
       x="-0.039258933"
       y="-0.031846916"
       width="1.0785179"
       height="1.0636938">
      <feGaussianBlur
         inkscape:collect="always"
         stdDeviation="0.28955087"
         id="feGaussianBlur3021" />
    </filter>
    <filter
       inkscape:collect="always"
       style="color-interpolation-filters:sRGB"
       id="filter3023"
       x="-0.036584529"
       y="-0.033551125"
       width="1.0731691"
       height="1.0671023">
      <feGaussianBlur
         inkscape:collect="always"
         stdDeviation="0.28955087"
         id="feGaussianBlur3025" />
    </filter>
    <filter
       inkscape:collect="always"
       style="color-interpolation-filters:sRGB"
       id="filter3027"
       x="-0.035346094"
       y="-0.034742548"
       width="1.0706922"
       height="1.0694851">
      <feGaussianBlur
         inkscape:collect="always"
         stdDeviation="0.28955087"
         id="feGaussianBlur3029" />
    </filter>
    <filter
       inkscape:collect="always"
       style="color-interpolation-filters:sRGB"
       id="filter3031"
       x="-0.06198088"
       y="-0.060922584"
       width="1.1239618"
       height="1.1218452">
      <feGaussianBlur
         inkscape:collect="always"
         stdDeviation="0.28955087"
         id="feGaussianBlur3033" />
    </filter>
    <filter
       inkscape:collect="always"
       style="color-interpolation-filters:sRGB"
       id="filter3035"
       x="-0.061981211"
       y="-0.060922584"
       width="1.1239624"
       height="1.1218452">
      <feGaussianBlur
         inkscape:collect="always"
         stdDeviation="0.28955087"
         id="feGaussianBlur3037" />
    </filter>
    <filter
       inkscape:collect="always"
       style="color-interpolation-filters:sRGB"
       id="filter3039"
       x="-0.094452272"
       y="-0.095277093"
       width="1.1889045"
       height="1.1905542">
      <feGaussianBlur
         inkscape:collect="always"
         stdDeviation="0.28955087"
         id="feGaussianBlur3041" />
    </filter>
    <filter
       inkscape:collect="always"
       style="color-interpolation-filters:sRGB"
       id="filter3043"
       x="-0.096674361"
       y="-0.095375216"
       width="1.1933487"
       height="1.1907504">
      <feGaussianBlur
         inkscape:collect="always"
         stdDeviation="0.28955087"
         id="feGaussianBlur3045" />
    </filter>
    <filter
       inkscape:collect="always"
       style="color-interpolation-filters:sRGB"
       id="filter3047"
       x="-0.097063404"
       y="-0.095405431"
       width="1.1941268"
       height="1.1908109">
      <feGaussianBlur
         inkscape:collect="always"
         stdDeviation="0.28955087"
         id="feGaussianBlur3049" />
    </filter>
    <filter
       inkscape:collect="always"
       style="color-interpolation-filters:sRGB"
       id="filter3051"
       x="-0.095100071"
       y="-0.10059115"
       width="1.1902001"
       height="1.2011823">
      <feGaussianBlur
         inkscape:collect="always"
         stdDeviation="0.28955087"
         id="feGaussianBlur3053" />
    </filter>
    <filter
       inkscape:collect="always"
       style="color-interpolation-filters:sRGB"
       id="filter3055"
       x="-0.097063476"
       y="-0.095405431"
       width="1.194127"
       height="1.1908109">
      <feGaussianBlur
         inkscape:collect="always"
         stdDeviation="0.28955087"
         id="feGaussianBlur3057" />
    </filter>
    <filter
       inkscape:collect="always"
       style="color-interpolation-filters:sRGB"
       id="filter3059"
       x="-0.097063472"
       y="-0.095402563"
       width="1.1941269"
       height="1.1908051">
      <feGaussianBlur
         inkscape:collect="always"
         stdDeviation="0.28955087"
         id="feGaussianBlur3061" />
    </filter>
    <filter
       inkscape:collect="always"
       style="color-interpolation-filters:sRGB"
       id="filter3063"
       x="-0.09706339"
       y="-0.095405433"
       width="1.1941268"
       height="1.1908109">
      <feGaussianBlur
         inkscape:collect="always"
         stdDeviation="0.28955087"
         id="feGaussianBlur3065" />
    </filter>
    <filter
       inkscape:collect="always"
       style="color-interpolation-filters:sRGB"
       id="filter3067"
       x="-0.099156027"
       y="-0.096567504"
       width="1.1983121"
       height="1.193135">
      <feGaussianBlur
         inkscape:collect="always"
         stdDeviation="0.28955087"
         id="feGaussianBlur3069" />
    </filter>
    <filter
       inkscape:collect="always"
       style="color-interpolation-filters:sRGB"
       id="filter3071"
       x="-0.095974575"
       y="-0.094868983"
       width="1.1919492"
       height="1.189738">
      <feGaussianBlur
         inkscape:collect="always"
         stdDeviation="0.28955087"
         id="feGaussianBlur3073" />
    </filter>
    <filter
       inkscape:collect="always"
       style="color-interpolation-filters:sRGB"
       id="filter3075"
       x="-0.099764879"
       y="-0.09526705"
       width="1.1995298"
       height="1.1905341">
      <feGaussianBlur
         inkscape:collect="always"
         stdDeviation="0.28955087"
         id="feGaussianBlur3077" />
    </filter>
    <filter
       inkscape:collect="always"
       style="color-interpolation-filters:sRGB"
       id="filter3079"
       x="-0.095585634"
       y="-0.098762231"
       width="1.1911713"
       height="1.1975245">
      <feGaussianBlur
         inkscape:collect="always"
         stdDeviation="0.28955087"
         id="feGaussianBlur3081" />
    </filter>
    <filter
       inkscape:collect="always"
       style="color-interpolation-filters:sRGB"
       id="filter3083"
       x="-0.099114288"
       y="-0.096662251"
       width="1.1982286"
       height="1.1933245">
      <feGaussianBlur
         inkscape:collect="always"
         stdDeviation="0.28955087"
         id="feGaussianBlur3085" />
    </filter>
    <filter
       inkscape:collect="always"
       style="color-interpolation-filters:sRGB"
       id="filter3087"
       x="-0.099764855"
       y="-0.095267024"
       width="1.1995297"
       height="1.190534">
      <feGaussianBlur
         inkscape:collect="always"
         stdDeviation="0.28955087"
         id="feGaussianBlur3089" />
    </filter>
    <filter
       inkscape:collect="always"
       style="color-interpolation-filters:sRGB"
       id="filter3091"
       x="-0.095096085"
       y="-0.099675087"
       width="1.1901922"
       height="1.1993502">
      <feGaussianBlur
         inkscape:collect="always"
         stdDeviation="0.28955087"
         id="feGaussianBlur3093" />
    </filter>
    <filter
       inkscape:collect="always"
       style="color-interpolation-filters:sRGB"
       id="filter3095"
       x="-0.043841282"
       y="-0.044486377"
       width="1.0876826"
       height="1.0889728">
      <feGaussianBlur
         inkscape:collect="always"
         stdDeviation="0.28955087"
         id="feGaussianBlur3097" />
    </filter>
    <filter
       inkscape:collect="always"
       style="color-interpolation-filters:sRGB"
       id="filter3099"
       x="-0.035568229"
       y="-0.037412185"
       width="1.0711365"
       height="1.0748244">
      <feGaussianBlur
         inkscape:collect="always"
         stdDeviation="0.28955087"
         id="feGaussianBlur3101" />
    </filter>
    <filter
       inkscape:collect="always"
       style="color-interpolation-filters:sRGB"
       id="filter3103"
       x="-0.033007471"
       y="-0.031988635"
       width="1.0660149"
       height="1.0639773">
      <feGaussianBlur
         inkscape:collect="always"
         stdDeviation="0.28955087"
         id="feGaussianBlur3105" />
    </filter>
    <filter
       inkscape:collect="always"
       style="color-interpolation-filters:sRGB"
       id="filter3107"
       x="-0.033007507"
       y="-0.031988565"
       width="1.066015"
       height="1.0639771">
      <feGaussianBlur
         inkscape:collect="always"
         stdDeviation="0.28955087"
         id="feGaussianBlur3109" />
    </filter>
    <filter
       inkscape:collect="always"
       style="color-interpolation-filters:sRGB"
       id="filter3111"
       x="-0.033007471"
       y="-0.031988586"
       width="1.0660149"
       height="1.0639772">
      <feGaussianBlur
         inkscape:collect="always"
         stdDeviation="0.28955087"
         id="feGaussianBlur3113" />
    </filter>
    <filter
       inkscape:collect="always"
       style="color-interpolation-filters:sRGB"
       id="filter3115"
       x="-0.049183008"
       y="-0.050478205"
       width="1.098366"
       height="1.1009564">
      <feGaussianBlur
         inkscape:collect="always"
         stdDeviation="0.28955087"
         id="feGaussianBlur3117" />
    </filter>
  </defs>
  <g
     inkscape:label="Vrstva 1"
     inkscape:groupmode="layer"
     id="layer1">
    <path
       style="opacity:0.0883733;fill:#008000;stroke-width:0.262707;filter:url(#filter2999)"
       d="m 29.137678,27.86633 c -1.051909,-0.225265 -3.906011,-1.707336 -6.049096,-3.141171 -1.23021,-0.823069 -2.645299,-2.071862 -4.352617,-3.841118 l -2.529789,-2.621556 0.152096,1.005202 c 0.08365,0.55287 -0.03193,1.469141 -0.256839,2.036178 -0.366159,0.923109 -0.515987,1.081239 -1.432158,1.511397 -1.362873,0.639872 -2.946964,0.340128 -3.604555,-0.682066 -0.433489,-0.673838 -0.514873,-0.697679 -0.952285,-0.278951 -0.6890407,0.659609 -2.0811877,0.7343 -3.1049557,0.166591 -1.814531,-1.006224 -1.918548,-3.327901 -0.242141,-5.4044 0.442394,-0.54795 0.734364,-1.069403 0.648838,-1.158746 -0.08553,-0.08934 -0.272835,-0.05013 -0.416233,0.08714 -0.476988,0.456614 -2.942893,0.67066 -3.865443,0.335529 -2.0292558,-0.737158 -2.45769578,-3.215996 -0.825851,-4.778137 0.79686,-0.762822 0.811571,-0.830202 0.341021,-1.5616593 -0.6921268,-1.07589 -0.4429538,-2.271511 0.701774,-3.367341 0.807814,-0.77331 1.066584,-0.870147 2.128365,-0.796532 1.259725,0.08733 2.579841,0.712454 3.503271,1.658911 0.536669,0.550493 0.538193,0.546445 0.178985,-0.528679 -0.88713,-2.655177 -0.296468,-4.7408072 1.5517597,-5.4793242 1.173539,-0.46892296 2.543308,-0.09576 3.286161,0.895245 0.419859,0.560067 0.59316,0.63568 0.863643,0.37675 1.029545,-0.985568 2.832369,-0.848175 3.93111,0.299593 1.217951,1.2722962 0.741728,3.7866212 -1.046389,5.5246062 -0.638744,0.621151 -0.62266,0.623058 1.063054,0.136187 1.982384,-0.572562 3.198716,-0.365267 4.242491,0.723043 0.576333,0.601094 0.739113,1.0272443 0.734334,1.9238583 -0.0055,1.023662 -0.110037,1.237021 -0.940042,1.917794 -0.684402,0.561309 -0.869262,0.833516 -0.691841,1.018853 0.497922,0.52014 0.799086,2.065439 0.529392,2.71635 -0.757157,1.827428 -2.692154,2.660912 -4.337661,1.868359 -1.569868,-0.756112 -1.310423,-0.138225 0.730757,1.740312 3.154374,2.903025 5.988562,4.753311 9.322532,6.086186 1.385313,0.553807 1.526063,0.665163 1.505345,1.190944 -0.02073,0.525775 -0.09244,0.565105 -0.76704,0.420654 z"
       id="path908" />
    <path
       style="opacity:0.0883733;fill:#008000;stroke-width:0.187699;filter:url(#filter3003)"
       d="m 32.987279,36.893187 c 0.69305,-0.331045 2.953744,-0.736139 4.791408,-0.858567 1.054887,-0.07028 2.400188,0.0199 4.13796,0.277379 l 2.574913,0.381513 -0.524915,-0.502872 c -0.288708,-0.276584 -0.623454,-0.845807 -0.743912,-1.26493 -0.196079,-0.68233 -0.180424,-0.837189 0.149691,-1.48018 0.49108,-0.956487 1.517514,-1.477372 2.335625,-1.185259 0.539306,0.192564 0.595726,0.170584 0.660171,-0.257212 0.101519,-0.673893 0.855938,-1.323117 1.682609,-1.447991 1.4652,-0.221316 2.537785,1.047952 2.496765,2.954596 -0.01084,0.503139 0.0518,0.925693 0.139163,0.938996 0.08736,0.0133 0.176141,-0.09055 0.197264,-0.230805 0.07028,-0.466502 1.370883,-1.662755 2.038774,-1.875194 1.469104,-0.467284 2.793722,0.749535 2.553299,2.345505 -0.117404,0.779342 -0.0963,0.823908 0.489118,1.03294 0.861083,0.307462 1.242294,1.093096 1.073637,2.212658 -0.11902,0.790052 -0.223027,0.957701 -0.855438,1.378919 -0.750323,0.499726 -1.769582,0.721311 -2.704911,0.587979 -0.543777,-0.07774 -0.542871,-0.07478 0.129665,0.377388 1.660931,1.116692 2.237716,2.55516 1.51532,3.779101 -0.458687,0.777148 -1.395997,1.163047 -2.248713,0.925739 -0.481919,-0.134083 -0.612911,-0.101345 -0.652763,0.16319 -0.151681,1.006916 -1.230882,1.715091 -2.353227,1.544198 -1.244116,-0.189435 -2.072787,-1.82075 -1.8208,-3.584418 0.08988,-0.630189 0.07995,-0.624256 -0.660452,0.386343 -0.870705,1.188459 -1.648863,1.601362 -2.714169,1.440175 -0.588297,-0.0891 -0.866405,-0.259432 -1.255217,-0.76921 -0.443901,-0.582016 -0.477944,-0.74842 -0.305977,-1.495751 0.141819,-0.616209 0.127467,-0.850936 -0.05377,-0.87853 -0.508617,-0.07744 -1.353645,-0.821149 -1.485402,-1.307296 -0.369911,-1.364849 0.36007,-2.680392 1.636415,-2.949007 1.217671,-0.256274 0.801192,-0.493032 -1.173047,-0.66684 -3.05092,-0.268591 -5.46114,-0.08067 -7.927974,0.618105 -1.024997,0.290366 -1.153193,0.288676 -1.371067,-0.01807 -0.217863,-0.30675 -0.194493,-0.360287 0.249955,-0.572593 z"
       id="path908-3" />
    <path
       style="opacity:0.0883733;fill:#008000;stroke-width:0.187699;filter:url(#filter3007)"
       d="m 26.658942,61.651399 c -0.365068,0.675747 -1.953351,2.334721 -3.366277,3.516093 -0.81107,0.678152 -1.951343,1.397697 -3.507321,2.213221 l -2.305541,1.208391 0.720396,0.09719 c 0.396224,0.05345 1.002025,0.316275 1.346244,0.58402 0.560365,0.435904 0.638931,0.570268 0.7509,1.284324 0.16655,1.06221 -0.356108,2.087742 -1.189296,2.333572 -0.549246,0.162053 -0.581893,0.213048 -0.381988,0.596716 0.314903,0.604378 0.08766,1.573399 -0.50683,2.161243 -1.053685,1.041893 -2.668089,0.647964 -3.758007,-0.916981 -0.287603,-0.412978 -0.587119,-0.717552 -0.665554,-0.676843 -0.07843,0.04071 -0.08901,0.176926 -0.02346,0.30271 0.217988,0.418383 -0.128418,2.151182 -0.543017,2.716263 -0.911958,1.242962 -2.699139,1.039873 -3.4449207,-0.391467 -0.364179,-0.69895 -0.407484,-0.722533 -1.003693,-0.546627 -0.876956,0.258738 -1.647778,-0.151599 -2.170938,-1.155674 -0.369181,-0.708557 -0.383882,-0.9053 -0.120932,-1.618199 0.311993,-0.845796 1.005149,-1.625234 1.839536,-2.068422 0.485224,-0.257477 0.482749,-0.259336 -0.327076,-0.228596 -1.999982,0.07592 -3.313387,-0.746779 -3.450546,-2.161372 -0.08709,-0.898203 0.443056,-1.762155 1.271927,-2.072657 0.468424,-0.17551 0.554996,-0.279123 0.431383,-0.516371 -0.470527,-0.903046 -0.01555,-2.111011 0.992096,-2.634003 1.116968,-0.579735 2.747518,0.250441 3.5827337,1.82411 0.298566,0.562206 0.303096,0.551562 0.306153,-0.701233 0.0036,-1.473278 0.389219,-2.265307 1.34505,-2.762545 0.527892,-0.274521 0.852965,-0.300687 1.467443,-0.11775 0.701546,0.208864 0.827073,0.323285 1.128303,1.028506 0.248359,0.581501 0.398218,0.762733 0.560931,0.678279 0.456634,-0.23701 1.577578,-0.133755 1.970406,0.181498 1.102865,0.885064 1.28785,2.37815 0.414641,3.347024 -0.833062,0.924341 -0.357043,0.87035 1.340742,-0.152076 2.623694,-1.580026 4.460732,-3.151575 6.042613,-5.169298 0.657279,-0.838401 0.761872,-0.912546 1.11862,-0.792995 0.356743,0.119561 0.369392,0.176591 0.135282,0.60995 z"
       id="path908-3-9" />
    <path
       style="opacity:0.0883733;fill:#008000;stroke-width:0.206066;filter:url(#filter3011)"
       d="m 74.439224,84.342584 c -0.400792,0.74187 -2.144485,2.563179 -3.695668,3.860151 -0.890435,0.744504 -2.142288,1.534463 -3.850521,2.429786 l -2.53114,1.32664 0.790887,0.106711 c 0.434995,0.05866 1.100074,0.347215 1.477976,0.641166 0.615197,0.478554 0.701451,0.626074 0.824376,1.409994 0.182848,1.16615 -0.390953,2.29203 -1.30567,2.56192 -0.60299,0.17791 -0.638832,0.23389 -0.419366,0.65511 0.345717,0.66351 0.09624,1.72735 -0.556424,2.37272 -1.156789,1.143848 -2.929165,0.711368 -4.125733,-1.00671 -0.315745,-0.45339 -0.644569,-0.78776 -0.730679,-0.74307 -0.08611,0.0447 -0.09772,0.19423 -0.02575,0.33233 0.239318,0.45932 -0.140984,2.361668 -0.596151,2.982038 -1.001195,1.3646 -2.963254,1.14163 -3.782012,-0.42977 -0.399814,-0.76734 -0.447357,-0.79323 -1.101906,-0.60011 -0.962767,0.28407 -1.809015,-0.16643 -2.383367,-1.268758 -0.405305,-0.77788 -0.421445,-0.99388 -0.132765,-1.77654 0.342522,-0.92856 1.103504,-1.78427 2.019537,-2.27082 0.532703,-0.28267 0.529987,-0.28471 -0.359081,-0.25096 -2.195683,0.0833 -3.637607,-0.81986 -3.788186,-2.372877 -0.09561,-0.986087 0.486409,-1.934582 1.396386,-2.275464 0.51426,-0.192687 0.609303,-0.306434 0.473595,-0.566901 -0.516569,-0.99141 -0.01707,-2.317576 1.089174,-2.891743 1.226264,-0.636462 3.016366,0.274946 3.933309,2.0026 0.327781,0.617219 0.332755,0.605532 0.336111,-0.769851 0.004,-1.617441 0.427304,-2.486974 1.476664,-3.032864 0.579547,-0.301386 0.936429,-0.330105 1.611035,-0.129273 0.770193,0.229307 0.908003,0.354924 1.238708,1.12915 0.272662,0.638398 0.437185,0.837364 0.615819,0.74465 0.501317,-0.260207 1.731947,-0.146842 2.163213,0.199256 1.210782,0.97167 1.413868,2.610855 0.455215,3.674535 -0.914578,1.014792 -0.391981,0.955516 1.471935,-0.166957 2.880423,-1.734637 4.897218,-3.459959 6.63389,-5.675123 0.721597,-0.920437 0.836423,-1.001838 1.228083,-0.870588 0.391643,0.13126 0.405532,0.19387 0.148517,0.669634 z"
       id="path908-3-9-1" />
    <path
       style="opacity:0.0883733;fill:#008000;stroke-width:0.187699;filter:url(#filter3015)"
       d="m 107.00245,35.027734 c 0.69535,0.326168 2.44171,1.817851 3.70128,3.161527 0.72304,0.771323 1.50607,1.868969 2.4085,3.376209 l 1.33715,2.233325 0.0562,-0.724744 c 0.0309,-0.398619 0.25896,-1.018348 0.50676,-1.377186 0.40344,-0.584178 0.53313,-0.670238 1.23969,-0.822505 1.05106,-0.226501 2.10457,0.237174 2.39724,1.055085 0.19293,0.539179 0.2457,0.568882 0.61741,0.347544 0.58556,-0.34866 1.5659,-0.176716 2.1865,0.38349 1.09995,0.992923 0.79819,2.627067 -0.70245,3.803953 -0.39599,0.310584 -0.68312,0.626854 -0.63803,0.702853 0.0451,0.07603 0.18169,0.07883 0.30355,0.0063 0.40537,-0.241342 2.15501,0.0063 2.74269,0.388157 1.29266,0.840022 1.19122,2.635844 -0.19554,3.461575 -0.67718,0.403213 -0.69827,0.44779 -0.48885,1.03307 0.30804,0.860874 -0.0579,1.653719 -1.03074,2.232958 -0.68649,0.408757 -0.88208,0.434593 -1.60874,0.212475 -0.86212,-0.263539 -1.67961,-0.911393 -2.16938,-1.719314 -0.28457,-0.469842 -0.28629,-0.467269 -0.20969,0.339513 0.18919,1.992461 -0.55774,3.350391 -1.96227,3.567529 -0.89183,0.13787 -1.78444,-0.342444 -2.14143,-1.152375 -0.20179,-0.457721 -0.31015,-0.538287 -0.54001,-0.40142 -0.87491,0.520966 -2.10673,0.1352 -2.686,-0.841168 -0.64213,-1.082309 0.0943,-2.7573 1.61806,-3.680385 0.54439,-0.329943 0.53346,-0.333916 -0.71746,-0.265912 -1.47111,0.07994 -2.28373,-0.260167 -2.83436,-1.186274 -0.304,-0.511475 -0.34856,-0.834543 -0.20075,-1.458402 0.16876,-0.712257 0.27587,-0.844075 0.96288,-1.184799 0.56649,-0.280925 0.73894,-0.440816 0.64537,-0.598505 -0.26251,-0.442466 -0.22297,-1.567454 0.0695,-1.977525 0.82111,-1.151266 2.30131,-1.4206 3.31813,-0.603727 0.97008,0.779319 0.88919,0.307133 -0.22784,-1.329959 -1.72623,-2.5299 -3.39939,-4.274889 -5.50356,-5.739842 -0.87431,-0.608689 -0.95426,-0.70891 -0.85513,-1.071862 0.0991,-0.362947 0.15536,-0.378809 0.6013,-0.169644 z"
       id="path908-3-5" />
    <path
       style="opacity:0.0883733;fill:#008000;stroke-width:0.187699;filter:url(#filter3019)"
       d="m 70.126573,1.1435571 c 0.69535,0.3261677 2.44171,1.8178507 3.70128,3.1615266 0.72304,0.771323 1.50607,1.868969 2.4085,3.376209 l 1.33715,2.233325 0.0562,-0.724744 c 0.0309,-0.398619 0.25896,-1.018348 0.50676,-1.377186 0.40344,-0.584178 0.53313,-0.670238 1.23969,-0.822505 1.05106,-0.226501 2.10457,0.237174 2.39724,1.055085 0.19293,0.539179 0.2457,0.568882 0.61741,0.347544 0.58556,-0.34866 1.5659,-0.176716 2.1865,0.38349 1.09995,0.992923 0.79819,2.6270673 -0.70245,3.8039533 -0.39599,0.310584 -0.68312,0.626854 -0.63803,0.702853 0.0451,0.07603 0.18169,0.07883 0.30355,0.0063 0.40537,-0.241342 2.15501,0.0063 2.74269,0.388157 1.29266,0.840022 1.19122,2.635844 -0.19554,3.461575 -0.67718,0.403213 -0.69827,0.44779 -0.48885,1.03307 0.30804,0.860874 -0.0579,1.653719 -1.03074,2.232958 -0.68649,0.408757 -0.88208,0.434593 -1.60874,0.212475 -0.86212,-0.263539 -1.67961,-0.911393 -2.16938,-1.719314 -0.28457,-0.469842 -0.28629,-0.467269 -0.20969,0.339513 0.18919,1.992461 -0.55774,3.350391 -1.96227,3.567529 -0.89183,0.13787 -1.78444,-0.342444 -2.14143,-1.152375 -0.20179,-0.457721 -0.31015,-0.538287 -0.54001,-0.40142 -0.87491,0.520966 -2.10673,0.1352 -2.686,-0.841168 -0.64213,-1.082309 0.0943,-2.7573 1.61806,-3.680385 0.54439,-0.329943 0.53346,-0.333916 -0.71746,-0.265912 -1.47111,0.07994 -2.28373,-0.260167 -2.83436,-1.186274 -0.304,-0.511475 -0.34856,-0.834543 -0.20075,-1.458402 0.16876,-0.712257 0.27587,-0.844075 0.96288,-1.184799 0.56649,-0.280925 0.73894,-0.440816 0.64537,-0.598505 -0.26251,-0.442466 -0.22297,-1.567454 0.0695,-1.977525 0.82111,-1.1512663 2.30131,-1.4206003 3.31813,-0.6037273 0.97008,0.7793193 0.88919,0.307133 -0.22784,-1.329959 -1.72623,-2.5299 -3.39939,-4.274889 -5.50356,-5.7398419 -0.87431,-0.608689 -0.95426,-0.70891 -0.85513,-1.0718617 0.0991,-0.36294696 0.15536,-0.37880896 0.6013,-0.169644 z"
       id="path908-3-5-2" />
    <path
       style="opacity:0.0883733;fill:#008000;stroke-width:0.187699;filter:url(#filter3023)"
       d="m 122.43821,64.691462 c -0.13838,0.755478 -1.13628,2.824074 -2.11499,4.384239 -0.56182,0.895593 -1.42393,1.932282 -2.65174,3.188719 l -1.81929,1.861694 0.71517,-0.130173 c 0.39335,-0.07161 1.05072,-0.0088 1.46083,0.139426 0.66764,0.241412 0.78388,0.344917 1.11102,0.989426 0.48664,0.958756 0.30647,2.095601 -0.40997,2.586868 -0.47229,0.323848 -0.48758,0.382442 -0.1789,0.685549 0.48626,0.477494 0.56958,1.469305 0.18584,2.212083 -0.68015,1.316503 -2.33728,1.440743 -3.85744,0.289193 -0.40117,-0.303866 -0.78012,-0.501011 -0.84214,-0.438057 -0.062,0.06297 -0.03,0.195773 0.0712,0.295151 0.3366,0.330565 0.54258,2.085597 0.32293,2.751132 -0.48322,1.463933 -2.24569,1.823056 -3.39729,0.692228 -0.56233,-0.552206 -0.61081,-0.561251 -1.12348,-0.209719 -0.75408,0.517069 -1.61397,0.365048 -2.42181,-0.428258 -0.57006,-0.559797 -0.64485,-0.742363 -0.61506,-1.501629 0.0354,-0.900807 0.45373,-1.856302 1.11033,-2.53563 0.38191,-0.394815 0.37898,-0.395824 -0.38171,-0.11634 -1.87863,0.69024 -3.38198,0.313656 -3.94956,-0.989305 -0.36039,-0.827339 -0.12317,-1.812823 0.56918,-2.364258 0.39127,-0.311677 0.44159,-0.436979 0.25071,-0.624417 -0.72655,-0.713439 -0.66712,-2.002883 0.12959,-2.811648 0.88315,-0.896528 2.69044,-0.610822 3.97106,0.627705 0.45767,0.442446 0.45873,0.430865 0.0745,-0.761519 -0.45185,-1.402278 -0.32985,-2.27471 0.42555,-3.042984 0.41722,-0.424204 0.7183,-0.549549 1.35923,-0.565446 0.73175,-0.01814 0.8865,0.05188 1.39091,0.629497 0.41589,0.476298 0.61442,0.602357 0.74309,0.471722 0.36105,-0.366512 1.45903,-0.614699 1.93005,-0.436272 1.32239,0.500937 1.95971,1.863785 1.42864,3.055074 -0.50666,1.136528 -0.0706,0.938085 1.22812,-0.558941 2.00703,-2.313461 3.26852,-4.375762 4.14947,-6.78357 0.36603,-1.000472 0.4426,-1.103303 0.81883,-1.099848 0.37621,0.0034 0.40588,0.05379 0.31714,0.538293 z"
       id="path908-3-5-2-7" />
    <path
       style="opacity:0.0883733;fill:#008000;stroke-width:0.0741878;filter:url(#filter3027)"
       d="m 45.005125,19.259901 c 0.840085,-1.679575 1.716444,-2.922999 3.233343,-4.587628 0.678937,-0.745092 1.201916,-1.353165 1.162137,-1.351308 -0.03978,0.0019 -0.336506,0.122568 -0.659398,0.268232 -1.742483,0.786093 -3.051378,1.169888 -4.14952,1.216722 -1.202044,0.05127 -2.15265,-0.353957 -2.728479,-1.163105 -0.806071,-1.132674 -0.859022,-2.638221 -0.133486,-3.7953363 0.250686,-0.399808 0.658769,-0.75635 1.320071,-1.153368 0.11653,-0.06996 0.116732,-0.155843 0.0012,-0.517769 -0.400543,-1.254704 0.04687,-2.685036 1.08858,-3.48008 1.410819,-1.07675 2.987785,-0.8151 4.260438,0.706889 0.754644,0.90249 1.920939,3.220346 2.425358,4.8200753 0.07436,0.235814 0.152481,0.407283 0.173609,0.381038 0.02113,-0.02625 -0.0116,-0.367715 -0.07272,-0.7588303 -0.170903,-1.093485 -0.275083,-3.200258 -0.19843,-4.012748 0.270634,-2.8686348 1.52102,-4.2463421 3.536242,-3.8963305 0.706932,0.1227823 1.33618,0.4326249 1.876699,0.9240871 0.551388,0.5013224 0.853662,1.0196604 1.031609,1.7688974 0.07283,0.306626 0.14031,0.564844 0.149967,0.573818 0.0097,0.009 0.244535,0.0472 0.521955,0.08494 0.513362,0.06984 1.163135,0.331369 1.627867,0.6552 0.735499,0.512512 1.342074,1.661703 1.402529,2.657175 0.147894,2.4353063 -2.541387,3.6851253 -7.306963,3.3958583 -0.577299,-0.03505 -1.070025,-0.04513 -1.094948,-0.02241 -0.0249,0.02274 0.150553,0.08692 0.389947,0.142692 1.613935,0.375961 4.012298,1.363747 4.954249,2.040457 1.627687,1.16935 2.009279,2.719167 1.044046,4.240396 -0.695343,1.095871 -2.082653,1.658368 -3.350097,1.358304 -0.367535,-0.08701 -0.452542,-0.07995 -0.512478,0.04261 -0.34125,0.697755 -0.660168,1.13336 -1.039237,1.419456 -0.80537,0.607837 -1.921849,0.822375 -2.872658,0.552011 -1.809283,-0.514471 -2.544872,-1.981597 -2.182799,-4.353566 0.09656,-0.632615 0.56613,-2.362283 0.884748,-3.259026 0.172219,-0.48471 0.06362,-0.379634 -0.669189,0.647438 -1.077444,1.510107 -2.019225,3.25508 -2.627063,4.867548 l -0.2737,0.726071 -0.692374,-0.281577 c -0.3808,-0.154874 -0.710243,-0.298201 -0.732094,-0.31851 -0.02185,-0.02031 0.07313,-0.262543 0.211057,-0.538316 z"
       id="path1503" />
    <path
       style="opacity:0.0883733;fill:#008000;stroke-width:0.0423074;filter:url(#filter3031)"
       d="m 76.771499,41.173306 c 0.479078,-0.957818 0.978843,-1.66691 1.843891,-2.616205 0.38718,-0.424906 0.685421,-0.771674 0.662736,-0.770615 -0.02268,0.0011 -0.1919,0.0699 -0.376037,0.152966 -0.993693,0.448288 -1.740121,0.667156 -2.366363,0.693864 -0.685494,0.02924 -1.2276,-0.201852 -1.55598,-0.663288 -0.459681,-0.645934 -0.489878,-1.504509 -0.07612,-2.164381 0.14296,-0.228 0.375679,-0.431327 0.752802,-0.657736 0.06645,-0.0399 0.06657,-0.08887 6.84e-4,-0.29527 -0.228419,-0.715525 0.02673,-1.531206 0.620789,-1.984598 0.804553,-0.614043 1.703856,-0.464831 2.429617,0.40312 0.430353,0.514666 1.095461,1.836479 1.383118,2.748763 0.04241,0.134478 0.08696,0.232263 0.09901,0.217296 0.01205,-0.01497 -0.0066,-0.209699 -0.04147,-0.432741 -0.09746,-0.623586 -0.156872,-1.825024 -0.113159,-2.288366 0.154335,-1.635907 0.867398,-2.421578 2.016626,-2.221975 0.403145,0.07002 0.761989,0.246714 1.070233,0.526982 0.314442,0.285892 0.486821,0.581486 0.588299,1.008757 0.04153,0.17486 0.08002,0.322115 0.08552,0.327233 0.0055,0.0051 0.139451,0.02692 0.297657,0.04844 0.292757,0.03983 0.663305,0.188971 0.92833,0.373644 0.419436,0.292272 0.76535,0.947625 0.799825,1.515317 0.08434,1.388791 -1.449286,2.101531 -4.16697,1.936569 -0.329218,-0.01999 -0.610207,-0.02574 -0.62442,-0.01278 -0.0142,0.01297 0.08586,0.04957 0.222377,0.08137 0.920385,0.214401 2.288108,0.777709 2.825279,1.163619 0.928227,0.66685 1.145839,1.55067 0.595392,2.418187 -0.396536,0.624947 -1.187683,0.945724 -1.910473,0.774605 -0.209596,-0.04962 -0.258073,-0.04559 -0.292253,0.0243 -0.194606,0.397911 -0.376476,0.646325 -0.59265,0.809478 -0.459281,0.346634 -1.09598,0.468979 -1.638201,0.314798 -1.031787,-0.293389 -1.451274,-1.130053 -1.244794,-2.482725 0.05507,-0.360764 0.32285,-1.347148 0.504549,-1.858537 0.09821,-0.276418 0.03628,-0.216496 -0.381621,0.369217 -0.614438,0.861174 -1.151511,1.856287 -1.498145,2.775835 l -0.156084,0.414059 -0.394843,-0.160576 c -0.21716,-0.08832 -0.405033,-0.170056 -0.417494,-0.181638 -0.01246,-0.01158 0.0417,-0.149721 0.12036,-0.306987 z"
       id="path1503-62" />
    <path
       style="opacity:0.0883733;fill:#008000;stroke-width:0.0423074;filter:url(#filter3035)"
       d="m 92.647295,55.08146 c 0.47908,-0.957818 0.97884,-1.66691 1.84389,-2.616205 0.38718,-0.424906 0.68542,-0.771674 0.66274,-0.770615 -0.0227,0.0011 -0.1919,0.0699 -0.37604,0.152966 -0.99369,0.448288 -1.74012,0.667156 -2.36636,0.693864 -0.685496,0.02924 -1.227599,-0.201852 -1.555979,-0.663288 -0.459681,-0.645934 -0.489878,-1.504509 -0.07612,-2.164381 0.14296,-0.228 0.375679,-0.431327 0.752803,-0.657736 0.0665,-0.0399 0.0666,-0.08887 6.8e-4,-0.29527 -0.228416,-0.715525 0.0267,-1.531206 0.62079,-1.984598 0.804556,-0.614043 1.703856,-0.464831 2.429616,0.40312 0.43035,0.514666 1.09546,1.836479 1.38312,2.748763 0.0424,0.134478 0.087,0.232263 0.099,0.217296 0.0121,-0.01497 -0.007,-0.209699 -0.0415,-0.432741 -0.0975,-0.623586 -0.15688,-1.825024 -0.11316,-2.288366 0.15433,-1.635907 0.8674,-2.421578 2.01662,-2.221975 0.40315,0.07002 0.76199,0.246714 1.07024,0.526982 0.31444,0.285892 0.48682,0.581486 0.5883,1.008757 0.0415,0.17486 0.08,0.322115 0.0855,0.327233 0.005,0.0051 0.13945,0.02692 0.29765,0.04844 0.292765,0.03983 0.663315,0.188971 0.928335,0.373644 0.41944,0.292272 0.76535,0.947625 0.79983,1.515317 0.0843,1.388791 -1.44929,2.101531 -4.166975,1.936569 -0.32922,-0.01999 -0.61021,-0.02574 -0.62442,-0.01278 -0.0142,0.01297 0.0859,0.04957 0.22238,0.08137 0.92038,0.214401 2.2881,0.777709 2.82527,1.163619 0.928235,0.66685 1.145845,1.55067 0.595405,2.418187 -0.39654,0.624947 -1.187695,0.945724 -1.910485,0.774605 -0.20959,-0.04962 -0.25807,-0.04559 -0.29225,0.0243 -0.19461,0.397911 -0.37648,0.646325 -0.59265,0.809478 -0.45928,0.346634 -1.09598,0.468979 -1.6382,0.314798 -1.03179,-0.293389 -1.45127,-1.130053 -1.24479,-2.482725 0.0551,-0.360764 0.32284,-1.347148 0.50454,-1.858537 0.0982,-0.276418 0.0363,-0.216496 -0.38162,0.369217 -0.61444,0.861174 -1.15151,1.856287 -1.49814,2.775835 l -0.15609,0.414059 -0.39484,-0.160576 c -0.21716,-0.08832 -0.40503,-0.170056 -0.41749,-0.181638 -0.0125,-0.01158 0.0417,-0.149721 0.12036,-0.306987 z"
       id="path1503-62-3" />
    <path
       style="opacity:0.0883733;fill:#008000;stroke-width:0.0270162;filter:url(#filter3039)"
       d="m 61.933308,51.658694 c 0.617139,-0.294659 1.147122,-0.455884 1.955391,-0.594833 0.361774,-0.0622 0.64808,-0.119922 0.636237,-0.128286 -0.01186,-0.0083 -0.124114,-0.04006 -0.249478,-0.07045 -0.67654,-0.163952 -1.138495,-0.346499 -1.464507,-0.578716 -0.356863,-0.25419 -0.539347,-0.583291 -0.523782,-0.944612 0.02179,-0.50579 0.343389,-0.950235 0.810746,-1.120386 0.161476,-0.0588 0.358498,-0.06995 0.637332,-0.03608 0.04916,0.006 0.06842,-0.01865 0.116177,-0.148507 0.165615,-0.450126 0.614144,-0.761033 1.091346,-0.756416 0.646271,0.0062 1.040853,0.434217 1.066034,1.156254 0.01493,0.428143 -0.168495,1.35507 -0.381445,1.927578 -0.03139,0.08439 -0.04728,0.15116 -0.03536,0.148325 0.01197,-0.0028 0.07871,-0.108423 0.148855,-0.23432 0.195506,-0.352446 0.636911,-0.981093 0.840708,-1.197399 0.719526,-0.763718 1.387029,-0.879846 1.887766,-0.328436 0.175663,0.193433 0.287148,0.423237 0.332512,0.685377 0.04628,0.267404 0.01717,0.483965 -0.09932,0.739059 -0.04769,0.104384 -0.08605,0.193685 -0.08529,0.19842 4.98e-4,0.0046 0.0597,0.06827 0.130971,0.141173 0.131886,0.134915 0.26008,0.355431 0.321164,0.552446 0.09668,0.311809 0.01387,0.777714 -0.191459,1.077275 -0.502348,0.73282 -1.554664,0.490313 -2.859268,-0.658949 -0.158034,-0.139229 -0.297358,-0.252357 -0.30958,-0.25143 -0.01228,9.58e-4 0.02384,0.05867 0.08013,0.128238 0.37963,0.469092 0.847778,1.289475 0.967042,1.694649 0.206089,0.70014 -0.03099,1.230827 -0.648658,1.451993 -0.444965,0.159322 -0.969432,0.01058 -1.266484,-0.359191 -0.08613,-0.107226 -0.112147,-0.124209 -0.156787,-0.102403 -0.254155,0.124144 -0.443245,0.177962 -0.616168,0.175364 -0.367395,-0.0055 -0.736196,-0.193655 -0.948911,-0.484053 -0.404778,-0.552596 -0.287913,-1.138716 0.346776,-1.739266 0.169287,-0.160161 0.69115,-0.552119 0.983319,-0.738504 0.157919,-0.10075 0.103221,-0.09484 -0.337125,0.03632 -0.647427,0.192863 -1.308416,0.483564 -1.843805,0.810901 L 62.0273,52.257217 61.891352,52.021415 c -0.07477,-0.129694 -0.137364,-0.244576 -0.139099,-0.255301 -0.0018,-0.01075 0.07975,-0.05908 0.181077,-0.107458 z"
       id="path1503-62-3-6" />
    <path
       style="opacity:0.0883733;fill:#008000;stroke-width:0.0270162;filter:url(#filter3043)"
       d="m 63.309449,26.718533 c 0.355304,0.584332 0.569076,1.095387 0.788706,1.885557 0.09831,0.353672 0.184571,0.63271 0.1917,0.620085 0.0071,-0.01264 0.02736,-0.127517 0.04497,-0.255304 0.09499,-0.68961 0.230098,-1.167599 0.428307,-1.515336 0.216964,-0.380645 0.526017,-0.59534 0.887069,-0.616237 0.505414,-0.02925 0.979983,0.245961 1.196329,0.693809 0.07476,0.154734 0.105693,0.349632 0.100072,0.63046 -0.001,0.04951 0.02545,0.06619 0.159451,0.100632 0.464514,0.119449 0.819006,0.534391 0.862463,1.009633 0.05891,0.64361 -0.327202,1.079286 -1.043034,1.177044 -0.424463,0.05797 -1.365149,-0.03119 -1.95619,-0.185411 -0.08712,-0.02273 -0.155152,-0.03182 -0.151131,-0.02024 0.004,0.01163 0.115797,0.06739 0.248117,0.124504 0.370341,0.159023 1.04024,0.534884 1.275968,0.715864 0.832288,0.638967 1.01504,1.291384 0.516853,1.8451 -0.174761,0.194248 -0.392171,0.328306 -0.648411,0.399835 -0.261385,0.07297 -0.479776,0.06582 -0.745304,-0.0244 -0.108655,-0.03694 -0.201365,-0.06611 -0.205999,-0.06488 -0.0045,9.59e-4 -0.06191,0.06627 -0.127268,0.144521 -0.120949,0.144801 -0.327436,0.294548 -0.517299,0.375159 -0.300489,0.127586 -0.772364,0.09211 -1.091078,-0.08201 -0.779679,-0.426004 -0.644367,-1.497391 0.367688,-2.911088 0.122609,-0.17125 0.221132,-0.321258 0.21898,-0.333324 -0.0022,-0.01212 -0.05597,0.02963 -0.119518,0.09264 -0.428481,0.424936 -1.197555,0.973312 -1.588661,1.132768 -0.675829,0.275542 -1.227691,0.09311 -1.509929,-0.499154 -0.203317,-0.42666 -0.108142,-0.963439 0.229838,-1.296215 0.09801,-0.09649 0.112285,-0.124084 0.0861,-0.166301 -0.149105,-0.240363 -0.221689,-0.423073 -0.236517,-0.595379 -0.03152,-0.366081 0.11854,-0.751954 0.386043,-0.992829 0.509029,-0.458364 1.103937,-0.401112 1.765344,0.16988 0.176394,0.152299 0.618908,0.632042 0.833765,0.903958 0.11614,0.146971 0.104752,0.09315 -0.07008,-0.331754 -0.257074,-0.624717 -0.612856,-1.253074 -0.992439,-1.752781 l -0.170915,-0.225021 0.220914,-0.159001 c 0.121506,-0.08745 0.229501,-0.161293 0.239997,-0.164099 0.01051,-0.0029 0.06681,0.0734 0.125145,0.169336 z"
       id="path1503-62-3-6-5" />
    <path
       style="opacity:0.0883733;fill:#008000;stroke-width:0.0270162;filter:url(#filter3047)"
       d="m 95.666365,31.142486 c 0.30593,-0.611632 0.62506,-1.064436 1.17745,-1.670626 0.24724,-0.271332 0.43769,-0.492766 0.42321,-0.49209 -0.0145,7.02e-4 -0.12254,0.04464 -0.24013,0.09768 -0.63454,0.286262 -1.11119,0.426024 -1.51108,0.443079 -0.43774,0.01867 -0.78391,-0.128896 -0.9936,-0.423555 -0.29354,-0.412473 -0.31282,-0.960732 -0.0486,-1.382105 0.0913,-0.145594 0.23989,-0.275432 0.48071,-0.42001 0.0425,-0.02548 0.0425,-0.05675 4.4e-4,-0.18855 -0.14586,-0.456912 0.017,-0.97778 0.39641,-1.267302 0.51377,-0.392108 1.08803,-0.296826 1.55148,0.25742 0.27481,0.328649 0.69953,1.172718 0.88322,1.755274 0.0271,0.08587 0.0556,0.148315 0.0632,0.138758 0.008,-0.0096 -0.004,-0.133907 -0.0265,-0.276335 -0.0623,-0.398202 -0.10018,-1.165403 -0.0723,-1.461278 0.0986,-1.044639 0.55389,-1.546344 1.28775,-1.418884 0.25744,0.04471 0.48658,0.157544 0.68342,0.336514 0.20079,0.182562 0.310875,0.371319 0.375675,0.644161 0.0265,0.11166 0.0511,0.205692 0.0546,0.20896 0.003,0.0033 0.0891,0.01719 0.19007,0.03093 0.18695,0.02543 0.42357,0.120671 0.5928,0.238597 0.26784,0.186636 0.48873,0.605124 0.51075,0.967634 0.0538,0.886838 -0.92547,1.341972 -2.660905,1.236632 -0.21023,-0.01277 -0.38966,-0.01644 -0.39873,-0.0082 -0.009,0.0083 0.0549,0.03165 0.142,0.05196 0.58773,0.13691 1.46111,0.496621 1.804135,0.743051 0.59274,0.425829 0.7317,0.990209 0.3802,1.544178 -0.25321,0.399072 -0.758425,0.60391 -1.219975,0.494639 -0.13384,-0.03169 -0.16479,-0.02911 -0.18662,0.01552 -0.12427,0.254093 -0.24041,0.412723 -0.37845,0.516907 -0.29328,0.22135 -0.69986,0.299475 -1.0461,0.20102 -0.65887,-0.187349 -0.92674,-0.721616 -0.79488,-1.58539 0.0352,-0.230373 0.20615,-0.860246 0.32218,-1.186803 0.0627,-0.176512 0.0232,-0.138248 -0.24369,0.23577 -0.39236,0.549919 -0.73532,1.185367 -0.95667,1.772561 l -0.0997,0.264405 -0.25213,-0.102539 c -0.13867,-0.0564 -0.25864,-0.108592 -0.26659,-0.115988 -0.008,-0.0074 0.0266,-0.09561 0.0769,-0.196032 z"
       id="path1503-62-3-6-8" />
    <path
       style="opacity:0.0883733;fill:#008000;stroke-width:0.0270162;filter:url(#filter3051)"
       d="m 119.9168,65.25323 c 0.66247,0.169772 1.17249,0.38601 1.88172,0.797827 0.31745,0.18432 0.57413,0.323676 0.57041,0.309666 -0.004,-0.01402 -0.0695,-0.11034 -0.14622,-0.214066 -0.41389,-0.559718 -0.65122,-0.99607 -0.75239,-1.383326 -0.11075,-0.423909 -0.0397,-0.793445 0.20402,-1.060666 0.34113,-0.374074 0.87293,-0.508776 1.34063,-0.339566 0.16159,0.05847 0.3199,0.176269 0.5121,0.381099 0.0339,0.03616 0.0645,0.02955 0.18439,-0.03941 0.41577,-0.23912 0.95929,-0.190006 1.32245,0.119655 0.49182,0.419308 0.52004,1.000735 0.0762,1.570841 -0.26316,0.338053 -0.99841,0.931549 -1.529,1.234195 -0.0782,0.04463 -0.13321,0.08569 -0.12227,0.09109 0.0111,0.0058 0.13004,-0.03221 0.2645,-0.0843 0.37604,-0.14504 1.11791,-0.344187 1.413,-0.379461 1.04188,-0.124377 1.62847,0.214612 1.65896,0.958834 0.0107,0.261075 -0.0512,0.508884 -0.18449,0.739098 -0.13601,0.234835 -0.29724,0.382316 -0.55023,0.503309 -0.10354,0.0495 -0.19025,0.09341 -0.1927,0.09752 -0.003,0.0036 0.002,0.09072 0.01,0.192314 0.0146,0.188102 -0.0284,0.439505 -0.10794,0.629833 -0.12582,0.301231 -0.48818,0.605567 -0.83785,0.703694 -0.85544,0.23999 -1.50724,-0.620988 -1.771,-2.339488 -0.0319,-0.208181 -0.0663,-0.384334 -0.0763,-0.391458 -0.01,-0.007 -0.0193,0.06035 -0.0208,0.149773 -0.01,0.603389 -0.17664,1.533059 -0.34502,1.920408 -0.29096,0.66934 -0.81323,0.924425 -1.42897,0.697926 -0.44356,-0.163161 -0.75054,-0.613676 -0.74127,-1.087894 0.003,-0.137514 -0.006,-0.16722 -0.0546,-0.179126 -0.27462,-0.06777 -0.45421,-0.147765 -0.58521,-0.260672 -0.27832,-0.239882 -0.4406,-0.620771 -0.41754,-0.979997 0.0439,-0.683581 0.50949,-1.058302 1.38162,-1.111951 0.23261,-0.01428 0.88438,0.01971 1.22808,0.06411 0.18578,0.02398 0.14003,-0.0065 -0.28194,-0.188364 -0.62041,-0.267292 -1.31398,-0.468226 -1.93469,-0.560493 l -0.27951,-0.04158 0.047,-0.268104 c 0.0258,-0.147457 0.0515,-0.275747 0.057,-0.28508 0.006,-0.0094 0.0991,0.0058 0.20786,0.03374 z"
       id="path1503-62-3-6-8-2" />
    <path
       style="opacity:0.0883733;fill:#008000;stroke-width:0.0270162;filter:url(#filter3055)"
       d="m 4.6491133,34.159386 c 0.30593,-0.611632 0.62506,-1.064436 1.17745,-1.670626 0.24724,-0.271332 0.43769,-0.492766 0.42321,-0.49209 -0.0145,7.02e-4 -0.12254,0.04464 -0.24013,0.09768 -0.63454,0.286262 -1.11119,0.426024 -1.51108,0.443079 -0.43774,0.01867 -0.78391,-0.128896 -0.9936,-0.423555 -0.29354,-0.412473 -0.31282,-0.960732 -0.0486,-1.382105 0.0913,-0.145594 0.23989,-0.275432 0.48071,-0.42001 0.0425,-0.02548 0.0425,-0.05675 4.4e-4,-0.18855 -0.14586,-0.456912 0.017,-0.97778 0.39641,-1.267302 0.51377,-0.392108 1.08803,-0.296826 1.55148,0.25742 0.27481,0.328649 0.69953,1.172718 0.88322,1.755274 0.0271,0.08587 0.0556,0.148315 0.0632,0.138758 0.008,-0.0096 -0.004,-0.133907 -0.0265,-0.276335 -0.0623,-0.398202 -0.10018,-1.165403 -0.0723,-1.461278 0.0986,-1.044639 0.55389,-1.546344 1.28775,-1.418884 0.25744,0.04471 0.48658,0.157544 0.68342,0.336514 0.20079,0.182562 0.31087,0.371319 0.37567,0.644161 0.0265,0.11166 0.0511,0.205692 0.0546,0.20896 0.003,0.0033 0.0891,0.01719 0.19007,0.03093 0.18695,0.02543 0.42357,0.120671 0.5928,0.238597 0.2678397,0.186636 0.4887297,0.605124 0.5107497,0.967634 0.0538,0.886838 -0.9254697,1.341972 -2.6608997,1.236632 -0.21023,-0.01277 -0.38966,-0.01644 -0.39873,-0.0082 -0.009,0.0083 0.0549,0.03165 0.142,0.05196 0.58773,0.13691 1.46111,0.496621 1.80413,0.743051 0.59274,0.425829 0.7316997,0.990209 0.3802,1.544178 -0.25321,0.399072 -0.75842,0.60391 -1.21997,0.494639 -0.13384,-0.03169 -0.16479,-0.02911 -0.18662,0.01552 -0.12427,0.254093 -0.24041,0.412723 -0.37845,0.516907 -0.29328,0.22135 -0.69986,0.299475 -1.0461,0.20102 -0.65887,-0.187349 -0.92674,-0.721616 -0.79488,-1.58539 0.0352,-0.230373 0.20615,-0.860246 0.32218,-1.186803 0.0627,-0.176512 0.0232,-0.138248 -0.24369,0.23577 -0.39236,0.549919 -0.73532,1.185367 -0.95667,1.772561 l -0.0997,0.264405 -0.25213,-0.102539 c -0.13867,-0.0564 -0.25864,-0.108592 -0.26659,-0.115988 -0.008,-0.0074 0.0266,-0.09561 0.0769,-0.196032 z"
       id="path1503-62-3-6-8-0" />
    <path
       style="opacity:0.0883733;fill:#008000;stroke-width:0.0270162;filter:url(#filter3059)"
       d="m 2.0733063,98.152362 c 0.30593,-0.61164 0.62506,-1.06444 1.17745,-1.67063 0.24724,-0.27133 0.43769,-0.49277 0.42321,-0.49209 -0.0145,7e-4 -0.12254,0.0446 -0.24013,0.0977 -0.63454,0.28626 -1.11119,0.42602 -1.51108,0.44308 -0.43774,0.0187 -0.78391,-0.1289 -0.99359998,-0.42356 -0.29354,-0.41247 -0.31282,-0.96073 -0.0486,-1.3821 0.0913,-0.1456 0.23988998,-0.27543 0.48070998,-0.42001 0.0425,-0.0255 0.0425,-0.0567 4.4e-4,-0.18855 -0.14586,-0.45691 0.017,-0.97778 0.39641,-1.267303 0.51377,-0.392108 1.08803,-0.296826 1.55148,0.257423 0.27481,0.32865 0.69953,1.17272 0.88322,1.75527 0.0271,0.0859 0.0556,0.14832 0.0632,0.13876 0.008,-0.01 -0.004,-0.13391 -0.0265,-0.27634 -0.0623,-0.3982 -0.10018,-1.1654 -0.0723,-1.46127 0.0986,-1.044643 0.55389,-1.546348 1.28775,-1.418888 0.25744,0.04471 0.48658,0.157544 0.68342,0.336514 0.20079,0.182562 0.31087,0.371319 0.37567,0.644161 0.0265,0.11166 0.0511,0.205692 0.0546,0.20896 0.003,0.0033 0.0891,0.01719 0.19007,0.03093 0.18695,0.02543 0.42357,0.120673 0.5928,0.238593 0.26784,0.18664 0.48873,0.60513 0.51075,0.96764 0.0538,0.88684 -0.92547,1.34197 -2.6609,1.23663 -0.21023,-0.0128 -0.38966,-0.0164 -0.39873,-0.008 -0.009,0.008 0.0549,0.0316 0.142,0.052 0.58773,0.13691 1.46111,0.49662 1.80413,0.74305 0.59274,0.42583 0.7317,0.99021 0.3802,1.54418 -0.25321,0.39907 -0.75842,0.60391 -1.21997,0.49464 -0.13384,-0.0317 -0.16479,-0.0291 -0.18662,0.0155 -0.12427,0.25409 -0.24041,0.41272 -0.37845,0.5169 -0.29328,0.22136 -0.69986,0.29948 -1.0461,0.20102 -0.65887,-0.18734 -0.92674,-0.72161 -0.79488,-1.58539 0.0352,-0.23037 0.20615,-0.86024 0.32218,-1.1868 0.0627,-0.17651 0.0232,-0.13825 -0.24369,0.23577 -0.39236,0.54992 -0.73532,1.18537 -0.95667,1.77256 l -0.0997,0.26441 -0.25213,-0.10254 c -0.13867,-0.0564 -0.25864,-0.10859 -0.26659,-0.11599 -0.008,-0.007 0.0266,-0.0956 0.0769,-0.19603 z"
       id="path1503-62-3-6-8-23" />
    <path
       style="opacity:0.0883733;fill:#008000;stroke-width:0.0270162;filter:url(#filter3063)"
       d="m 91.464349,7.0229027 c 0.30593,-0.611632 0.62506,-1.064436 1.177446,-1.670626 0.24724,-0.271332 0.43769,-0.492766 0.42321,-0.49209 -0.0145,7.02e-4 -0.12254,0.04464 -0.24013,0.09768 -0.634536,0.286262 -1.111186,0.426024 -1.511076,0.443079 -0.43774,0.01867 -0.78391,-0.128896 -0.9936,-0.423555 -0.29354,-0.412473 -0.31282,-0.960732 -0.0486,-1.382105 0.0913,-0.145594 0.23989,-0.275432 0.48071,-0.42001 0.0425,-0.02548 0.0425,-0.05675 4.4e-4,-0.18855 -0.14586,-0.4569119 0.017,-0.9777799 0.39641,-1.2673019 0.51377,-0.392108 1.08803,-0.296826 1.551476,0.25742 0.27481,0.328649 0.69953,1.1727179 0.88322,1.7552739 0.0271,0.08587 0.0556,0.148315 0.0632,0.138758 0.008,-0.0096 -0.004,-0.133907 -0.0265,-0.276335 -0.0623,-0.398202 -0.10018,-1.1654029 -0.0723,-1.4612779 0.0986,-1.044639 0.55389,-1.54634396 1.28776,-1.41888396 0.25744,0.04471 0.48658,0.157544 0.68342,0.33651396 0.20079,0.182562 0.31087,0.371319 0.37567,0.644161 0.0265,0.11166 0.0511,0.205692 0.0546,0.20896 0.003,0.0033 0.0891,0.01719 0.19007,0.03093 0.18695,0.02543 0.42357,0.120671 0.5928,0.238597 0.26784,0.186636 0.48873,0.605124 0.51075,0.9676339 0.0538,0.886838 -0.92547,1.341972 -2.6609,1.236632 -0.21024,-0.01277 -0.38967,-0.01644 -0.39874,-0.0082 -0.009,0.0083 0.0549,0.03165 0.142,0.05196 0.58774,0.13691 1.46112,0.496621 1.80414,0.743051 0.59274,0.425829 0.7317,0.990209 0.3802,1.544178 -0.25321,0.399072 -0.75842,0.60391 -1.21997,0.494639 -0.13384,-0.03169 -0.16479,-0.02911 -0.18662,0.01552 -0.12427,0.254093 -0.24041,0.412723 -0.37845,0.516907 -0.29329,0.22135 -0.69987,0.299475 -1.04611,0.20102 -0.65887,-0.187349 -0.92674,-0.721616 -0.79488,-1.58539 0.0352,-0.230373 0.20615,-0.860246 0.32218,-1.186803 0.0627,-0.176512 0.0232,-0.138248 -0.24369,0.23577 -0.39236,0.549919 -0.735316,1.185367 -0.956666,1.772561 l -0.0997,0.264405 -0.25213,-0.102539 c -0.13867,-0.0564 -0.25864,-0.108592 -0.26659,-0.115988 -0.008,-0.0074 0.0266,-0.09561 0.0769,-0.196032 z"
       id="path1503-62-3-6-8-7" />
    <path
       style="opacity:0.0883733;fill:#008000;stroke-width:0.0270162;filter:url(#filter3067)"
       d="m 34.803262,15.577772 c -0.44732,-0.517293 -0.742915,-0.9858 -1.090595,-1.728578 -0.155626,-0.33246 -0.28698,-0.593325 -0.291915,-0.579695 -0.0049,0.01366 -0.0058,0.130288 -0.002,0.25923 0.02073,0.695814 -0.0332,1.189595 -0.170971,1.565391 -0.150808,0.411366 -0.419961,0.674361 -0.772542,0.754864 -0.493557,0.112701 -1.007207,-0.07997 -1.294859,-0.485711 -0.09939,-0.140197 -0.162234,-0.327246 -0.203284,-0.605116 -0.0072,-0.04903 -0.03609,-0.06103 -0.173933,-0.07279 -0.477897,-0.04072 -0.896332,-0.391065 -1.018015,-0.852549 -0.164828,-0.624932 0.14361,-1.118612 0.833305,-1.333776 0.408965,-0.127585 1.351407,-0.195725 1.959843,-0.141698 0.08969,0.0079 0.158296,0.0056 0.152389,-0.0051 -0.0058,-0.01107 -0.125183,-0.04771 -0.265335,-0.08161 -0.391607,-0.09534 -1.114563,-0.354891 -1.377064,-0.494221 -0.926742,-0.492079 -1.215219,-1.105086 -0.815798,-1.733783 0.140114,-0.2205503 0.332269,-0.3888153 0.573092,-0.5018673 0.245656,-0.115319 0.462209,-0.144501 0.739021,-0.09959 0.113278,0.0184 0.209548,0.03178 0.21391,0.0298 0.0042,-0.0015 0.05008,-0.07567 0.101527,-0.163632 0.09525,-0.162863 0.274032,-0.344789 0.447889,-0.45578 0.275159,-0.175668 0.746379,-0.218976 1.089566,-0.100142 0.839538,0.290778 0.883858,1.3697373 0.120362,2.9317513 -0.0925,0.189218 -0.16477,0.353491 -0.160643,0.365029 0.0042,0.0115 0.0503,-0.03854 0.102492,-0.111172 0.352047,-0.490136 1.019484,-1.158502 1.378716,-1.380634 0.620752,-0.383847 1.195233,-0.295495 1.571815,0.241739 0.271286,0.387011 0.26648,0.932146 -0.01161,1.316382 -0.08064,0.111418 -0.09014,0.140987 -0.05731,0.178278 0.186916,0.212294 0.288806,0.380432 0.332013,0.547891 0.0918,0.355783 0.0079,0.761201 -0.215978,1.043114 -0.425932,0.536462 -1.022096,0.578703 -1.769063,0.125345 -0.199208,-0.120942 -0.71519,-0.5206 -0.972181,-0.753104 -0.138916,-0.125658 -0.118748,-0.07449 0.124152,0.315529 0.357156,0.573409 0.812251,1.134036 1.269476,1.563848 l 0.205871,0.193565 -0.191474,0.193446 c -0.105314,0.106393 -0.199563,0.197134 -0.209444,0.201636 -0.0099,0.0045 -0.07807,-0.06127 -0.15149,-0.146264 z"
       id="path1503-62-3-6-8-9" />
    <path
       style="opacity:0.0883733;fill:#008000;stroke-width:0.0270162;filter:url(#filter3071)"
       d="m 30.880534,84.494729 c -0.328956,-0.599559 -0.519779,-1.119619 -0.704039,-1.918778 -0.08248,-0.357695 -0.156239,-0.640295 -0.163922,-0.628 -0.0077,0.01232 -0.033,0.126174 -0.05628,0.253051 -0.125581,0.684701 -0.281815,1.156205 -0.495298,1.494781 -0.233683,0.370616 -0.551982,0.571349 -0.913606,0.576162 -0.506215,0.0067 -0.968071,-0.289315 -1.164278,-0.746345 -0.0678,-0.157908 -0.09003,-0.353988 -0.07193,-0.634288 0.0032,-0.04942 -0.02248,-0.06726 -0.154815,-0.107626 -0.458742,-0.139996 -0.79442,-0.5703 -0.816693,-1.047003 -0.03017,-0.645596 0.374894,-1.063661 1.094367,-1.129476 0.426622,-0.03902 1.362409,0.0919 1.946005,0.272256 0.08602,0.02658 0.153582,0.03869 0.15008,0.02695 -0.0035,-0.01179 -0.112684,-0.07248 -0.242332,-0.135419 -0.3629,-0.175342 -1.015414,-0.580633 -1.242856,-0.771922 -0.803038,-0.675362 -0.956583,-1.335263 -0.434256,-1.866267 0.183231,-0.18628 0.406389,-0.310534 0.665558,-0.370593 0.264372,-0.06127 0.482229,-0.0444 0.743479,0.05753 0.106905,0.04173 0.198226,0.07501 0.202911,0.07398 0.0045,-7.55e-4 0.0648,-0.06345 0.133571,-0.138716 0.127271,-0.139277 0.340215,-0.279689 0.533477,-0.351774 0.305868,-0.11409 0.775697,-0.05766 1.086349,0.13047 0.759955,0.46027 0.577111,1.524575 -0.496835,2.891848 -0.130106,0.165626 -0.235206,0.311101 -0.233592,0.323252 0.0016,0.01221 0.05723,-0.0271 0.123521,-0.08722 0.446962,-0.405452 1.23967,-0.91907 1.637483,-1.060969 0.687419,-0.245202 1.230618,-0.0384 1.486228,0.565834 0.184134,0.435285 0.06517,0.967298 -0.287278,1.284708 -0.102204,0.09204 -0.117695,0.118965 -0.09341,0.162306 0.138264,0.246758 0.202648,0.432516 0.209796,0.605311 0.01518,0.367123 -0.151877,0.745936 -0.42983,0.974672 -0.528918,0.435264 -1.12069,0.351601 -1.75604,-0.24825 -0.169442,-0.159995 -0.590175,-0.658951 -0.792723,-0.940156 -0.109486,-0.151993 -0.100507,-0.09772 0.05526,0.334543 0.229028,0.635536 0.556502,1.279099 0.913478,1.795199 l 0.160736,0.232401 -0.22777,0.149015 c -0.125277,0.08196 -0.23645,0.150923 -0.24706,0.15326 -0.01064,0.0024 -0.06348,-0.0763 -0.117488,-0.174736 z"
       id="path1503-62-3-6-0" />
    <path
       style="opacity:0.0883733;fill:#008000;stroke-width:0.0270162;filter:url(#filter3075)"
       d="m 72.669256,103.76739 c 0.115021,-0.67413 0.288778,-1.20013 0.641189,-1.94067 0.157731,-0.33148 0.275622,-0.59869 0.261952,-0.59384 -0.01363,0.005 -0.104256,0.0783 -0.201371,0.16327 -0.523975,0.45829 -0.939443,0.73052 -1.317134,0.86305 -0.413414,0.14509 -0.787538,0.10445 -1.073802,-0.11657 -0.400728,-0.30937 -0.578494,-0.82837 -0.448107,-1.30834 0.04509,-0.16584 0.149511,-0.33327 0.337933,-0.54157 0.0332,-0.0367 0.02422,-0.0666 -0.05443,-0.18055 -0.272324,-0.394818 -0.267805,-0.940548 0.01106,-1.327818 0.377662,-0.52447 0.954831,-0.60017 1.559334,-0.20452 0.358448,0.23462 1.010107,0.91885 1.355152,1.422898 0.05085,0.0743 0.09626,0.12577 0.100814,0.1144 0.0047,-0.0118 -0.04318,-0.126818 -0.105652,-0.256718 -0.175287,-0.36292 -0.434503,-1.086 -0.493756,-1.37723 -0.209256,-1.0282 0.08065,-1.64056 0.819887,-1.73185 0.259319,-0.032 0.511363,0.009 0.751714,0.12341 0.245168,0.11633 0.405344,0.26496 0.546638,0.5072 0.05782,0.0991 0.108651,0.18198 0.112958,0.18408 0.0038,0.002 0.09022,-0.009 0.190852,-0.0257 0.186258,-0.03 0.440355,-0.008 0.636558,0.056 0.31051,0.10075 0.643473,0.43699 0.769874,0.77746 0.309212,0.83293 -0.495578,1.553 -2.186736,1.956478 -0.204873,0.0489 -0.377615,0.0975 -0.38385,0.10821 -0.0065,0.0103 0.0617,0.0143 0.150988,0.008 0.602141,-0.0398 1.542366,0.0506 1.942198,0.18675 0.690892,0.23521 0.987858,0.73486 0.812498,1.36707 -0.126353,0.45542 -0.550208,0.79823 -1.023599,0.82778 -0.13727,0.009 -0.166143,0.02 -0.174071,0.0691 -0.04475,0.27929 -0.110108,0.46478 -0.211906,0.60458 -0.216315,0.29702 -0.58264,0.48992 -0.942553,0.49632 -0.684882,0.0122 -1.096436,-0.42118 -1.221266,-1.286 -0.03327,-0.23066 -0.05271,-0.88303 -0.03659,-1.22922 0.0087,-0.18711 -0.01801,-0.13902 -0.164665,0.29641 -0.215627,0.64021 -0.359144,1.34789 -0.40031,1.97406 l -0.01857,0.28196 -0.271041,-0.0248 c -0.149074,-0.0137 -0.27904,-0.0288 -0.288803,-0.0335 -0.0097,-0.004 -0.0023,-0.0992 0.01661,-0.20991 z"
       id="path1503-62-3-6-0-6" />
    <path
       style="opacity:0.0883733;fill:#008000;stroke-width:0.0270162;filter:url(#filter3079)"
       d="m 91.178435,79.354994 c 0.428278,-0.53316 0.835863,-0.908317 1.50387,-1.384088 0.29901,-0.212972 0.53194,-0.389153 0.51764,-0.391561 -0.0143,-0.0022 -0.12918,0.01773 -0.25535,0.04476 -0.6807,0.145711 -1.176118,0.181594 -1.570597,0.113767 -0.431803,-0.07422 -0.738969,-0.291634 -0.881658,-0.623955 -0.199755,-0.465178 -0.102752,-1.005134 0.244551,-1.361157 0.120034,-0.122995 0.292688,-0.218532 0.558616,-0.308941 0.04686,-0.01593 0.05355,-0.04642 0.04022,-0.184237 -0.046,-0.477417 0.223283,-0.952102 0.655261,-1.154929 0.585017,-0.274682 1.126177,-0.06021 1.462047,0.579443 0.19916,0.379301 0.43593,1.294053 0.49236,1.902275 0.008,0.08963 0.023,0.156725 0.0325,0.148987 0.0101,-0.0079 0.0239,-0.131825 0.0325,-0.2757 0.0233,-0.402363 0.14833,-1.160256 0.23815,-1.443553 0.31706,-1.00023 0.86817,-1.394355 1.5585,-1.114728 0.24216,0.09812 0.44247,0.256492 0.59687,0.473328 0.15768,0.220858 0.22538,0.428613 0.23107,0.708994 0.002,0.114701 0.006,0.211849 0.009,0.215779 0.003,0.0037 0.0832,0.03599 0.17927,0.07034 0.17735,0.06435 0.38869,0.207111 0.52903,0.358436 0.22235,0.239013 0.34982,0.694721 0.29473,1.053695 -0.13477,0.878191 -1.18814,1.116124 -2.86212,0.646446 -0.2028,-0.05688 -0.37738,-0.0984 -0.38804,-0.09207 -0.0111,0.0056 0.047,0.04249 0.12805,0.0804 0.54553,0.257986 1.32319,0.794129 1.60638,1.107503 0.48937,0.541453 0.50594,1.122458 0.0453,1.589649 -0.33185,0.336529 -0.8689,0.430011 -1.29694,0.225667 -0.12433,-0.05888 -0.1549,-0.0633 -0.18571,-0.02425 -0.17494,0.222273 -0.3222,0.352608 -0.47912,0.425275 -0.33344,0.154377 -0.74734,0.144829 -1.06496,-0.02457 -0.60441,-0.322333 -0.75333,-0.901143 -0.44193,-1.717553 0.0831,-0.217751 0.38328,-0.797253 0.56567,-1.091941 0.0988,-0.159129 0.0519,-0.130233 -0.288,0.178957 -0.4997,0.454602 -0.969197,1.003223 -1.309613,1.530385 l -0.153345,0.237345 -0.224788,-0.153453 c -0.123608,-0.08445 -0.229837,-0.160839 -0.236083,-0.169693 -0.0065,-0.0082 0.04622,-0.0878 0.116575,-0.175353 z"
       id="path1503-62-3-6-0-6-6" />
    <path
       style="opacity:0.0883733;fill:#008000;stroke-width:0.0270162;filter:url(#filter3083)"
       d="m 120.11006,97.719232 c -0.44266,-0.52129 -0.73406,-0.99241 -1.07507,-1.73826 -0.15266,-0.33385 -0.28166,-0.59588 -0.28673,-0.58228 -0.005,0.0136 -0.007,0.1302 -0.004,0.2592 0.0145,0.69597 -0.0438,1.18924 -0.18497,1.5638 -0.15446,0.41001 -0.42599,0.67058 -0.77928,0.74792 -0.49454,0.10828 -1.00645,-0.089 -1.29045,-0.49729 -0.0981,-0.14111 -0.15931,-0.3287 -0.19785,-0.60691 -0.007,-0.049 -0.0355,-0.0613 -0.1733,-0.0743 -0.47751,-0.045 -0.89278,-0.39913 -1.01033,-0.86167 -0.15922,-0.62637 0.15362,-1.11727 0.8452,-1.32626 0.4101,-0.12392 1.35311,-0.18362 1.96104,-0.12414 0.0896,0.009 0.15825,0.007 0.15244,-0.004 -0.006,-0.0114 -0.12493,-0.0484 -0.2646,-0.084 -0.39072,-0.0989 -1.11134,-0.36484 -1.37257,-0.50656 -0.92232,-0.5003 -1.20524,-1.115947 -0.80024,-1.741017 0.1421,-0.21926 0.33546,-0.38605 0.57756,-0.49671 0.24667,-0.11311 0.46347,-0.14035 0.73988,-0.093 0.11307,0.0194 0.20925,0.0337 0.21363,0.0317 0.004,-0.002 0.0511,-0.0749 0.10294,-0.16276 0.0967,-0.162 0.2768,-0.34256 0.45192,-0.45179 0.27671,-0.17319 0.74829,-0.21228 1.0904,-0.0904 0.83692,0.29824 0.87157,1.37759 0.0941,2.932707 -0.0942,0.1884 -0.16791,0.35199 -0.16372,0.36365 0.003,0.012 0.0506,-0.0381 0.10315,-0.11055 0.3564,-0.48697 1.02979,-1.149347 1.39102,-1.368237 0.62415,-0.37827 1.19783,-0.28479 1.56959,0.2558 0.26778,0.389437 0.25812,0.934487 -0.0234,1.316207 -0.0813,0.11097 -0.0914,0.14016 -0.0589,0.17779 0.18523,0.21378 0.2854,0.383 0.32711,0.55083 0.0886,0.3566 0.001,0.76125 -0.22531,1.04114 -0.4307,0.53264 -1.02723,0.56954 -1.77011,0.10952 -0.19814,-0.12269 -0.71049,-0.52699 -0.96542,-0.76177 -0.13759,-0.12712 -0.11809,-0.0755 0.12133,0.31663 0.35202,0.57658 0.80207,1.14126 1.25543,1.57513 l 0.2041,0.19542 -0.19315,0.19176 c -0.10628,0.10542 -0.20136,0.19531 -0.21123,0.19977 -0.009,0.005 -0.0773,-0.0622 -0.15018,-0.1476 z"
       id="path1503-62-3-6-0-6-6-7" />
    <path
       style="opacity:0.0883733;fill:#008000;stroke-width:0.0270162;filter:url(#filter3087)"
       d="m 29.43994,52.143791 c 0.11502,-0.67413 0.28878,-1.20013 0.64119,-1.94067 0.15773,-0.33148 0.27562,-0.59869 0.26195,-0.59384 -0.0136,0.005 -0.10426,0.0783 -0.20137,0.16327 -0.52398,0.45829 -0.939446,0.73052 -1.317137,0.86305 -0.413414,0.14509 -0.787538,0.10445 -1.073802,-0.11657 -0.400728,-0.30937 -0.578494,-0.82837 -0.448107,-1.30834 0.04509,-0.16584 0.149511,-0.33327 0.337933,-0.54157 0.0332,-0.0367 0.02422,-0.0666 -0.05443,-0.18055 -0.272324,-0.39482 -0.267805,-0.94055 0.01106,-1.32782 0.377662,-0.52447 0.954831,-0.60017 1.559334,-0.20452 0.358449,0.23462 1.010109,0.91885 1.355149,1.4229 0.0508,0.0743 0.0963,0.12577 0.10082,0.1144 0.005,-0.0118 -0.0432,-0.12682 -0.10565,-0.25672 -0.17529,-0.36292 -0.43451,-1.086 -0.49376,-1.37723 -0.20926,-1.0282 0.0807,-1.64056 0.81989,-1.73185 0.25932,-0.032 0.51136,0.009 0.75171,0.12341 0.24517,0.11633 0.40534,0.26496 0.54664,0.5072 0.0578,0.0991 0.10865,0.18198 0.11296,0.18408 0.004,0.002 0.0902,-0.009 0.19085,-0.0257 0.18626,-0.03 0.44035,-0.008 0.63656,0.056 0.31051,0.10075 0.64347,0.43699 0.76987,0.77746 0.30921,0.83293 -0.49558,1.553 -2.18674,1.95648 -0.20487,0.0489 -0.37761,0.0975 -0.38385,0.10821 -0.007,0.0103 0.0617,0.0143 0.15099,0.008 0.60214,-0.0398 1.54237,0.0506 1.9422,0.18675 0.69089,0.23521 0.98786,0.73486 0.8125,1.36707 -0.12636,0.45542 -0.55021,0.79823 -1.0236,0.82778 -0.13727,0.009 -0.16614,0.02 -0.17407,0.0691 -0.0448,0.27929 -0.11011,0.46478 -0.21191,0.60458 -0.21631,0.29702 -0.58264,0.48992 -0.94255,0.49632 -0.68488,0.0122 -1.09644,-0.42118 -1.22127,-1.286 -0.0333,-0.23066 -0.0527,-0.88303 -0.0366,-1.22922 0.009,-0.18711 -0.018,-0.13902 -0.16466,0.29641 -0.21563,0.64021 -0.35915,1.34789 -0.40031,1.97406 l -0.0186,0.28196 -0.27104,-0.0248 c -0.14908,-0.0137 -0.27904,-0.0288 -0.28881,-0.0335 -0.01,-0.004 -0.002,-0.0992 0.0166,-0.20991 z"
       id="path1503-62-3-6-0-6-6-1" />
    <path
       style="opacity:0.0883733;fill:#008000;stroke-width:0.0270162;filter:url(#filter3091)"
       d="m 45.552498,102.5781 c 0.675562,0.1063 1.203755,0.27328 1.948788,0.61611 0.333482,0.15344 0.602197,0.26786 0.597162,0.25427 -0.0051,-0.0136 -0.07962,-0.10328 -0.165845,-0.19925 -0.465014,-0.51803 -0.742585,-0.92995 -0.879973,-1.30589 -0.150413,-0.41151 -0.114601,-0.78613 0.1027,-1.07522 0.304181,-0.40469 0.820844,-0.58913 1.302455,-0.46495 0.166411,0.0429 0.335165,0.1452 0.545887,0.33091 0.03717,0.0328 0.06692,0.0234 0.179824,-0.0567 0.391275,-0.2774 0.93701,-0.27992 1.327849,-0.006 0.5293,0.37086 0.612441,0.94701 0.224617,1.55657 -0.229972,0.36144 -0.905742,1.02188 -1.405294,1.3734 -0.07366,0.0518 -0.124514,0.0979 -0.113092,0.10228 0.01186,0.004 0.126256,-0.0448 0.255331,-0.10896 0.360635,-0.17995 1.080308,-0.44847 1.370745,-0.51149 1.025416,-0.2225 1.641471,0.0595 1.742284,0.79748 0.03538,0.25888 -0.0028,0.51144 -0.113693,0.75324 -0.113164,0.24666 -0.259714,0.40874 -0.500109,0.55314 -0.09839,0.0591 -0.180561,0.111 -0.182605,0.11533 -0.0019,0.004 0.01058,0.0901 0.02812,0.1905 0.03242,0.18586 0.0133,0.44022 -0.04783,0.63722 -0.09674,0.3118 -0.428656,0.64907 -0.767468,0.77985 -0.828873,0.31993 -1.559262,-0.47551 -1.984531,-2.16131 -0.05148,-0.20423 -0.102399,-0.37633 -0.113153,-0.38243 -0.01038,-0.006 -0.0135,0.0618 -0.0065,0.15109 0.04754,0.60158 -0.03072,1.54289 -0.161672,1.94444 -0.226285,0.69388 -0.722061,0.99726 -1.356474,0.83008 -0.457022,-0.12045 -0.805266,-0.53987 -0.840923,-1.01284 -0.01033,-0.13715 -0.02218,-0.16587 -0.0713,-0.17316 -0.279805,-0.0415 -0.46616,-0.1041 -0.607258,-0.2041 -0.299787,-0.21245 -0.497399,-0.57626 -0.508442,-0.93607 -0.02102,-0.68466 0.407002,-1.10177 1.270141,-1.23775 0.230204,-0.0363 0.882273,-0.0641 1.228637,-0.0524 0.187212,0.006 0.138776,-0.0198 -0.298508,-0.16083 -0.642933,-0.20735 -1.352412,-0.34172 -1.979064,-0.37481 l -0.282172,-0.0149 0.02134,-0.27134 c 0.01175,-0.14924 0.02516,-0.27939 0.02979,-0.28921 0.0042,-0.01 0.09918,-0.004 0.210102,0.0139 z"
       id="path1503-62-3-6-0-6-2" />
    <path
       style="opacity:0.0883733;fill:#008000;stroke-width:0.0588512;filter:url(#filter3095)"
       d="m 100.25178,10.259608 c 1.32474,0.681439 2.3032,1.387738 3.61002,2.605907 0.58493,0.545231 1.06258,0.965524 1.06146,0.933953 -0.001,-0.03157 -0.0942,-0.268023 -0.20685,-0.525455 -0.60792,-1.389228 -0.90062,-2.430915 -0.92792,-3.3024073 -0.0299,-0.953949 0.30007,-1.704357 0.94707,-2.153861 0.9057,-0.629236 2.1004,-0.657735 3.01175,-0.07184 0.31489,0.202436 0.59404,0.529334 0.90304,1.057455 0.0545,0.09306 0.12257,0.09399 0.41069,0.0056 0.99886,-0.306467 2.12942,0.06126 2.75072,0.894698 0.84145,1.1287523 0.61976,2.3772913 -0.59893,3.3731383 -0.72265,0.590507 -2.57168,1.494851 -3.84515,1.880621 -0.18772,0.05687 -0.32443,0.117298 -0.3038,0.134292 0.0206,0.017 0.29178,-0.0059 0.60257,-0.05088 0.86891,-0.125757 2.54099,-0.1895 3.18478,-0.12141 2.27304,0.240401 3.35466,1.244592 3.05895,2.839973 -0.10374,0.559653 -0.35515,1.056009 -0.74984,1.480353 -0.40261,0.432877 -0.81647,0.667999 -1.41238,0.802431 -0.24388,0.05502 -0.44931,0.106231 -0.45651,0.113811 -0.007,0.0076 -0.0396,0.193548 -0.0721,0.413265 -0.06,0.406585 -0.27328,0.919654 -0.53432,1.285385 -0.41314,0.578819 -1.33014,1.049661 -2.12031,1.088688 -1.93307,0.09547 -2.90034,-2.048938 -2.62814,-5.826508 0.033,-0.457612 0.0454,-0.848364 0.0276,-0.868337 -0.0178,-0.01995 -0.0703,0.118643 -0.11669,0.308035 -0.31269,1.276839 -1.11774,3.170417 -1.66297,3.911525 -0.94215,1.280631 -2.17492,1.569419 -3.37294,0.79013 -0.863045,-0.56139 -1.296785,-1.666881 -1.047395,-2.669556 0.0723,-0.290757 0.0675,-0.35825 -0.0292,-0.406891 -0.55042,-0.276946 -0.89309,-0.533825 -1.11663,-0.837078 -0.47493,-0.64429 -0.63509,-1.53183 -0.4121,-2.283609 0.42431,-1.430551 1.59467,-2.000879 3.472925,-1.692401 0.50094,0.08227 1.86874,0.470254 2.5772,0.731031 0.38294,0.140956 0.30057,0.05387 -0.50756,-0.536622 -1.18819,-0.868197 -2.56389,-1.63089 -3.837495,-2.127502 l -0.57348,-0.223617 0.22956,-0.546682 c 0.12627,-0.300671 0.24291,-0.560706 0.25922,-0.577857 0.0163,-0.01715 0.207605,0.06036 0.425115,0.172243 z"
       id="path1503-7" />
    <path
       style="opacity:0.0883733;fill:#008000;stroke-width:0.071791;filter:url(#filter3099)"
       d="m 71.071724,61.534033 c 1.808661,0.176837 3.235836,0.537625 5.265588,1.331135 0.908512,0.355149 1.639171,0.616887 1.623705,0.581591 -0.01549,-0.03529 -0.227377,-0.261545 -0.470901,-0.502785 -1.314198,-1.301837 -2.114636,-2.351376 -2.537583,-3.327299 -0.462969,-1.068261 -0.426348,-2.067578 0.105116,-2.868296 0.743957,-1.120877 2.085846,-1.690565 3.382766,-1.436128 0.448112,0.08792 0.911692,0.333026 1.499612,0.792891 0.103603,0.08104 0.181262,0.05145 0.468206,-0.178394 0.994776,-0.796786 2.442141,-0.888333 3.521526,-0.222735 1.461843,0.901437 1.772047,2.416897 0.838073,4.094268 -0.553817,0.994629 -2.243712,2.851766 -3.514206,3.861995 -0.187278,0.148922 -0.315122,0.278935 -0.284087,0.288927 0.03103,0.01 0.328205,-0.137935 0.660385,-0.328728 0.928712,-0.533429 2.796043,-1.357795 3.556685,-1.570163 2.685576,-0.7498 4.363714,-0.09763 4.746004,1.844417 0.1341,0.68126 0.0722,1.357175 -0.18441,2.015875 -0.26182,0.671938 -0.625358,1.124703 -1.240598,1.545173 -0.25179,0.172078 -0.4617,0.322552 -0.46646,0.334388 -0.005,0.01183 0.0421,0.237294 0.10418,0.501021 0.11479,0.488022 0.10381,1.165735 -0.0277,1.697859 -0.20811,0.842157 -1.036148,1.788518 -1.914585,2.188187 -2.149004,0.977735 -4.210347,-1.018786 -5.600824,-5.424685 -0.168439,-0.533728 -0.330113,-0.982395 -0.359277,-0.99704 -0.02918,-0.01461 -0.02635,0.16615 0.0062,0.401771 0.219739,1.588483 0.158599,4.097755 -0.126304,5.183353 -0.492309,1.875909 -1.760282,2.757865 -3.469257,2.413072 -1.231122,-0.248386 -2.220194,-1.306832 -2.388408,-2.555958 -0.04878,-0.362221 -0.08462,-0.436577 -0.216128,-0.448247 -0.748695,-0.06646 -1.2528,-0.203613 -1.642677,-0.446931 -0.828326,-0.516956 -1.409148,-1.451317 -1.494444,-2.404072 -0.162309,-1.812988 0.908254,-2.986111 3.176796,-3.481146 0.605029,-0.132032 2.33052,-0.307315 3.251154,-0.330274 0.497623,-0.01241 0.365046,-0.07411 -0.816904,-0.38019 -1.737819,-0.450029 -3.640816,-0.69608 -5.308346,-0.686345 l -0.750864,0.0044 0.01441,-0.723149 c 0.0079,-0.39773 0.02324,-0.745056 0.03401,-0.771838 0.01073,-0.02678 0.262552,-0.02493 0.559517,0.0041 z"
       id="path1503-5" />
    <path
       style="opacity:0.0883733;fill:#008000;stroke-width:0.0807263;filter:url(#filter3103)"
       d="m 54.471181,74.678207 c -1.600176,-1.270911 -2.727805,-2.482703 -4.160397,-4.470946 -0.641241,-0.889903 -1.171528,-1.583046 -1.178466,-1.540267 -0.0069,0.04284 0.0551,0.38578 0.137852,0.762239 0.446566,2.031576 0.561928,3.511303 0.365715,4.691103 -0.214774,1.291439 -0.859286,2.212859 -1.849913,2.644686 -1.386715,0.604487 -3.001705,0.3235 -4.071228,-0.708359 -0.369543,-0.356536 -0.657747,-0.870963 -0.932305,-1.664088 -0.04839,-0.139707 -0.139785,-0.159219 -0.55106,-0.117294 -1.425782,0.145336 -2.848549,-0.651622 -3.461689,-1.93898 -0.830385,-1.743551 -0.198393,-3.364094 1.707426,-4.378165 1.130089,-0.601314 3.859522,-1.323789 5.675966,-1.502413 0.267765,-0.02635 0.467849,-0.07109 0.444639,-0.09948 -0.0232,-0.02844 -0.39409,-0.07033 -0.824311,-0.09259 -1.202651,-0.06306 -3.469314,-0.424229 -4.317286,-0.687925 -2.993906,-0.93101 -4.180706,-2.571169 -3.356419,-4.638562 0.289155,-0.725234 0.76009,-1.325837 1.404528,-1.791257 0.657374,-0.47478 1.277041,-0.680482 2.114712,-0.702064 0.342829,-0.0089 0.632897,-0.02284 0.644617,-0.03111 0.0118,-0.0088 0.105059,-0.249802 0.207408,-0.536744 0.189404,-0.530989 0.613493,-1.164271 1.062454,-1.586555 0.710546,-0.668317 2.070144,-1.056681 3.143683,-0.897984 2.626282,0.38825 3.354461,3.531902 1.978528,8.541525 -0.166681,0.606852 -0.287835,1.129258 -0.269232,1.160885 0.01865,0.03154 0.126293,-0.140834 0.239322,-0.383238 0.761996,-1.634298 2.351252,-3.96675 3.2829,-4.8181 1.609885,-1.471137 3.345659,-1.530167 4.74918,-0.161475 1.011079,0.985972 1.299149,2.58925 0.695616,3.871597 -0.175007,0.371863 -0.186539,0.463956 -0.06948,0.555234 0.666503,0.519732 1.058874,0.956935 1.278569,1.424676 0.466756,0.993779 0.445004,2.230702 -0.05595,3.182547 -0.953258,1.811261 -2.680307,2.265752 -5.12487,1.348682 -0.651977,-0.244583 -2.388521,-1.13219 -3.271983,-1.672408 -0.477531,-0.292004 -0.389973,-0.152858 0.539441,0.857645 1.366534,1.485676 3.013556,2.879526 4.594321,3.888094 l 0.711794,0.454144 -0.45498,0.674147 c -0.250245,0.370776 -0.476687,0.689454 -0.503206,0.708166 -0.02652,0.01867 -0.263176,-0.13669 -0.525909,-0.345373 z"
       id="path1503-3" />
    <path
       style="opacity:0.0883733;fill:#008000;stroke-width:0.0807263;filter:url(#filter3107)"
       d="m 97.899835,103.59635 c -1.60018,-1.27092 -2.72781,-2.48271 -4.1604,-4.470948 -0.64124,-0.8899 -1.17152,-1.58305 -1.17846,-1.54027 -0.007,0.0428 0.0551,0.38578 0.13785,0.76224 0.44656,2.031578 0.56192,3.511298 0.36571,4.691098 -0.21476,1.29144 -0.859285,2.21286 -1.849905,2.64469 -1.386719,0.60449 -3.001713,0.3235 -4.071233,-0.70836 -0.36954,-0.35653 -0.65775,-0.87096 -0.93231,-1.66409 -0.0484,-0.1397 -0.13978,-0.15922 -0.55106,-0.11729 -1.425779,0.14534 -2.848546,-0.65162 -3.461686,-1.93898 -0.830385,-1.743548 -0.198393,-3.364088 1.707426,-4.378178 1.13009,-0.60131 3.85952,-1.32378 5.675974,-1.50241 0.26776,-0.0263 0.46785,-0.0711 0.44464,-0.0995 -0.0232,-0.0284 -0.39409,-0.0703 -0.824324,-0.0926 -1.20265,-0.0631 -3.46931,-0.42423 -4.31728,-0.68792 -2.993908,-0.93101 -4.180708,-2.571174 -3.356421,-4.638574 0.289155,-0.72523 0.76009,-1.325837 1.404528,-1.791257 0.657374,-0.47478 1.277041,-0.680482 2.114713,-0.702064 0.34283,-0.0089 0.6329,-0.02284 0.64462,-0.03111 0.0118,-0.0088 0.10506,-0.249802 0.2074,-0.536744 0.18941,-0.530989 0.6135,-1.164271 1.06246,-1.586555 0.71054,-0.668317 2.07014,-1.056681 3.143684,-0.897984 2.626284,0.38825 3.354454,3.531902 1.978529,8.541534 -0.16668,0.606854 -0.28784,1.129254 -0.26923,1.160884 0.0187,0.0315 0.12629,-0.14083 0.23932,-0.38324 0.762005,-1.634304 2.351245,-3.966754 3.282895,-4.818104 1.60988,-1.471139 3.34566,-1.530169 4.749185,-0.161477 1.01108,0.985977 1.29915,2.589257 0.69562,3.871597 -0.17501,0.37187 -0.18654,0.46396 -0.0695,0.555244 0.6665,0.51973 1.05887,0.95693 1.27856,1.42467 0.46676,0.99378 0.44501,2.23071 -0.056,3.18256 -0.95325,1.81126 -2.680305,2.26575 -5.124875,1.34868 -0.65197,-0.24458 -2.38852,-1.13219 -3.27198,-1.6724 -0.47753,-0.29201 -0.38997,-0.15286 0.53944,0.85764 1.36654,1.48568 3.01356,2.879528 4.59432,3.888088 l 0.7118,0.45415 -0.45498,0.67415 c -0.25025,0.37077 -0.47669,0.68945 -0.50321,0.70816 -0.0265,0.0187 -0.26317,-0.13669 -0.52591,-0.34537 z"
       id="path1503-3-9" />
    <path
       style="opacity:0.0883733;fill:#008000;stroke-width:0.0807263;filter:url(#filter3111)"
       d="m 29.244572,108.55954 c -1.600176,-1.27092 -2.727805,-2.48271 -4.160397,-4.47096 -0.641241,-0.8899 -1.171528,-1.58304 -1.178466,-1.54026 -0.0069,0.0428 0.0551,0.38578 0.137852,0.76224 0.446566,2.03157 0.561928,3.5113 0.365715,4.6911 -0.214774,1.29144 -0.859286,2.21286 -1.849913,2.64469 -1.386715,0.60449 -3.001705,0.3235 -4.071228,-0.70836 -0.369543,-0.35654 -0.657747,-0.87096 -0.932305,-1.66409 -0.04839,-0.1397 -0.139785,-0.15922 -0.55106,-0.11729 -1.425782,0.14533 -2.848549,-0.65162 -3.461689,-1.93898 -0.830385,-1.74356 -0.198393,-3.3641 1.707426,-4.37817 1.130089,-0.60131 3.859522,-1.32379 5.675966,-1.50241 0.267765,-0.0264 0.467849,-0.0711 0.444639,-0.0995 -0.0232,-0.0284 -0.39409,-0.0703 -0.824311,-0.0926 -1.202651,-0.0631 -3.469314,-0.424228 -4.317286,-0.687928 -2.993906,-0.93101 -4.180706,-2.57117 -3.356419,-4.63856 0.289155,-0.72523 0.76009,-1.32584 1.404528,-1.791257 0.657374,-0.47478 1.277041,-0.680482 2.114712,-0.702064 0.342829,-0.0089 0.632897,-0.02284 0.644617,-0.03111 0.0118,-0.0088 0.105059,-0.249802 0.207408,-0.536744 0.189404,-0.530989 0.613493,-1.164271 1.062454,-1.586555 0.710546,-0.668317 2.070144,-1.056681 3.143683,-0.897984 2.626282,0.38825 3.354461,3.531902 1.978528,8.541524 -0.166681,0.60685 -0.287835,1.12926 -0.269232,1.16089 0.01865,0.0315 0.126293,-0.14084 0.239322,-0.38324 0.761996,-1.6343 2.351252,-3.96675 3.2829,-4.8181 1.609885,-1.471139 3.345659,-1.530169 4.74918,-0.16148 1.011079,0.98597 1.299149,2.58925 0.695616,3.8716 -0.175007,0.37186 -0.186539,0.46396 -0.06948,0.55523 0.666503,0.51974 1.058874,0.95694 1.278569,1.42468 0.466756,0.993778 0.445004,2.230698 -0.05595,3.182548 -0.953258,1.81126 -2.680307,2.26575 -5.12487,1.34868 -0.651977,-0.24458 -2.388521,-1.13219 -3.271983,-1.67241 -0.477531,-0.292 -0.389973,-0.15286 0.539441,0.85765 1.366534,1.48567 3.013556,2.87953 4.594321,3.88809 l 0.711794,0.45415 -0.45498,0.67414 c -0.250245,0.37078 -0.476687,0.68946 -0.503206,0.70817 -0.02652,0.0187 -0.263176,-0.13669 -0.525909,-0.34537 z"
       id="path1503-3-0" />
    <path
       style="opacity:0.0883733;fill:#008000;stroke-width:0.0522594;filter:url(#filter3115)"
       d="m 8.5979433,40.511729 c 1.20467,0.546591 2.1032917,1.130337 3.3154777,2.153746 0.542577,0.458059 0.984547,0.809988 0.982179,0.782037 -0.0024,-0.02795 -0.09524,-0.233606 -0.206385,-0.457014 -0.599782,-1.205614 -0.904823,-2.116739 -0.967056,-2.888492 -0.06813,-0.844773 0.191789,-1.52472 0.746016,-1.95162 0.775827,-0.597593 1.834196,-0.674988 2.668044,-0.195108 0.288113,0.165808 0.549964,0.443562 0.847057,0.898484 0.05236,0.08016 0.11281,0.07802 0.364497,-0.01297 0.872533,-0.315387 1.891292,-0.03857 2.478698,0.673526 0.795542,0.964405 0.653387,2.081432 -0.384051,3.017834 -0.615167,0.555258 -2.215664,1.438004 -3.328298,1.835705 -0.164012,0.05863 -0.28263,0.118189 -0.263593,0.132361 0.01904,0.01417 0.258532,-0.01796 0.532216,-0.07141 0.765168,-0.149443 2.245385,-0.278923 2.819354,-0.246617 2.026494,0.114055 3.029608,0.957507 2.836934,2.385385 -0.06759,0.500892 -0.268923,0.952088 -0.600467,1.345667 -0.338195,0.401491 -0.695007,0.62808 -1.217665,0.773307 -0.2139,0.05943 -0.393865,0.11382 -0.399924,0.120857 -0.006,0.0071 -0.0267,0.17339 -0.04588,0.369677 -0.03547,0.363225 -0.202258,0.827582 -0.417824,1.163343 -0.341165,0.531389 -1.133935,0.988993 -1.833054,1.058078 -1.710312,0.169006 -2.66175,-1.690718 -2.585132,-5.052997 0.0093,-0.407304 0.0033,-0.754412 -0.0134,-0.77135 -0.01667,-0.01692 -0.05717,0.108293 -0.09005,0.278293 -0.221634,1.146096 -0.853039,2.860669 -1.304283,3.541759 -0.779748,1.17692 -1.860522,1.486831 -2.9570637,0.847927 -0.789934,-0.460258 -1.222856,-1.421819 -1.045413,-2.321992 0.05145,-0.261033 0.04421,-0.320683 -0.04365,-0.359606 -0.500255,-0.221617 -0.815384,-0.4345 -1.026874,-0.693709 -0.44933,-0.550715 -0.630101,-1.330906 -0.465127,-2.007402 0.313929,-1.287296 1.32706,-1.844188 3.006379,-1.652531 0.4478817,0.05111 1.6779387,0.335554 2.3176627,0.535936 0.345785,0.108311 0.268926,0.03467 -0.473576,-0.453799 -1.091704,-0.718187 -2.3451177,-1.334619 -3.4963617,-1.719515 l -0.518388,-0.173313 0.179757,-0.494878 c 0.09887,-0.272179 0.19098,-0.507899 0.204693,-0.523822 0.01371,-0.01592 0.186758,0.04448 0.384555,0.134221 z"
       id="path1503-6" />
  </g>
</svg>
